<svg xmlns="http://www.w3.org/2000/svg" width="322.89" height="112" viewBox="0 0 322.89 112">
  <title>Asset 1</title>
  <g id="2e4857cb-2f09-4995-8b7f-bf0b56efefe9" data-name="Layer 2">
    <g id="53c0ee34-a94d-4470-8e47-23198113096d" data-name="Layer 1">
      <g>
        <g>
          <path d="M134.06,39.28A7.5,7.5,0,0,0,137.25,42a9.56,9.56,0,0,0,4,.89,8.19,8.19,0,0,0,2.35-.36,7.06,7.06,0,0,0,2.18-1.08,5.84,5.84,0,0,0,1.61-1.78,4.67,4.67,0,0,0,.62-2.45,3.68,3.68,0,0,0-1.24-3,11,11,0,0,0-3.1-1.72c-1.23-.47-2.58-.92-4-1.35a16.37,16.37,0,0,1-4-1.8,9.9,9.9,0,0,1-3.09-3.09A9.68,9.68,0,0,1,131.27,21a8.89,8.89,0,0,1,.65-3.17,8.78,8.78,0,0,1,2-3.07,11.33,11.33,0,0,1,3.58-2.33,13.32,13.32,0,0,1,5.25-.93,18.41,18.41,0,0,1,5.33.76,9.23,9.23,0,0,1,4.46,3.12l-3.74,3.41a6.31,6.31,0,0,0-2.45-2.16,7.76,7.76,0,0,0-3.6-.81,8.65,8.65,0,0,0-3.19.5,5.73,5.73,0,0,0-2,1.3,4.54,4.54,0,0,0-1.08,1.7,5.18,5.18,0,0,0-.31,1.68,4.25,4.25,0,0,0,1.25,3.31,9.62,9.62,0,0,0,3.09,1.87,36.73,36.73,0,0,0,4,1.3,17.13,17.13,0,0,1,4,1.61,9.34,9.34,0,0,1,3.09,2.78,8.22,8.22,0,0,1,1.25,4.83,10,10,0,0,1-.94,4.41,9.66,9.66,0,0,1-2.52,3.31,11,11,0,0,1-3.74,2.07,14.5,14.5,0,0,1-4.61.72,16.93,16.93,0,0,1-6.19-1.15,10.27,10.27,0,0,1-4.66-3.56Z" style="fill: #333"/>
          <path d="M170.82,27.38h-6.19V37.7c0,.64,0,1.27.05,1.89a4.82,4.82,0,0,0,.36,1.68,2.71,2.71,0,0,0,1,1.2,3.23,3.23,0,0,0,1.9.46,8.78,8.78,0,0,0,1.58-.15,4.63,4.63,0,0,0,1.49-.52v3.93a5.64,5.64,0,0,1-2,.6,15.5,15.5,0,0,1-1.9.17,8.63,8.63,0,0,1-3.87-.7,4.68,4.68,0,0,1-2-1.8,5.83,5.83,0,0,1-.77-2.47q-.12-1.37-.12-2.76V27.38h-5V23.63h5V17.25h4.32v6.38h6.19Z" style="fill: #333"/>
          <path d="M177.45,26.42a12,12,0,0,1,4.22-2.52,14.45,14.45,0,0,1,4.8-.84,13.06,13.06,0,0,1,4.3.62,8.49,8.49,0,0,1,2.95,1.68,6.47,6.47,0,0,1,1.7,2.42,7.59,7.59,0,0,1,.56,2.86V42.26c0,.8,0,1.53,0,2.2s.08,1.32.15,1.92h-3.84q-.15-1.73-.15-3.45h-.09a8.32,8.32,0,0,1-3.41,3.12,10.7,10.7,0,0,1-4.56.91,10.35,10.35,0,0,1-3-.43,7.35,7.35,0,0,1-2.52-1.3,6.25,6.25,0,0,1-1.71-2.13,6.75,6.75,0,0,1-.62-3,6.51,6.51,0,0,1,1-3.69A7.54,7.54,0,0,1,179.92,34a13,13,0,0,1,4-1.34,27.92,27.92,0,0,1,4.88-.41h3.16v-1a4.69,4.69,0,0,0-3-4.39,6.41,6.41,0,0,0-2.4-.41,8.81,8.81,0,0,0-2.18.24,9.51,9.51,0,0,0-1.71.6,7.66,7.66,0,0,0-1.39.84l-1.2.91Zm12.19,9a30.63,30.63,0,0,0-3.14.17,12.12,12.12,0,0,0-2.93.65,5.59,5.59,0,0,0-2.16,1.34,3,3,0,0,0-.84,2.21,3.13,3.13,0,0,0,1.32,2.83,6.42,6.42,0,0,0,3.57.86,6.94,6.94,0,0,0,3-.6,5.66,5.66,0,0,0,2-1.56,6,6,0,0,0,1.11-2.13,8.62,8.62,0,0,0,.33-2.33V35.44Z" style="fill: #333"/>
          <path d="M202.26,23.63h4.32v3.51h.1a6.4,6.4,0,0,1,2.83-3,9.42,9.42,0,0,1,4.66-1.12,9.78,9.78,0,0,1,3.14.5A7.17,7.17,0,0,1,220,25.12a7.56,7.56,0,0,1,1.8,2.71,10.36,10.36,0,0,1,.67,3.91V46.38H218.1V32.94a7.55,7.55,0,0,0-.43-2.71,4.94,4.94,0,0,0-1.15-1.82,4.25,4.25,0,0,0-1.66-1,6,6,0,0,0-1.94-.31,7,7,0,0,0-2.5.43,5.16,5.16,0,0,0-2,1.37,6.35,6.35,0,0,0-1.35,2.37,10.83,10.83,0,0,0-.48,3.41V46.38h-4.32Z" style="fill: #333"/>
          <path d="M251.75,46.38h-4.32V43.12h-.09A8.23,8.23,0,0,1,243.9,46a10.61,10.61,0,0,1-4.49,1,12,12,0,0,1-4.77-.91A10.54,10.54,0,0,1,231,43.5a11.47,11.47,0,0,1-2.33-3.79,13.3,13.3,0,0,1-.81-4.7,13.5,13.5,0,0,1,.81-4.73A11.18,11.18,0,0,1,231,26.49,10.74,10.74,0,0,1,234.64,24a12,12,0,0,1,4.77-.91,10.51,10.51,0,0,1,4.61,1,7.89,7.89,0,0,1,3.32,2.81h.09V10.1h4.32Zm-11.81-3.45a7.79,7.79,0,0,0,3.12-.6,6.87,6.87,0,0,0,2.35-1.63,7,7,0,0,0,1.49-2.5,9.87,9.87,0,0,0,0-6.38,7,7,0,0,0-1.49-2.5,6.74,6.74,0,0,0-2.35-1.63,8.41,8.41,0,0,0-6.24,0,6.83,6.83,0,0,0-2.35,1.63,7.17,7.17,0,0,0-1.49,2.5,9.87,9.87,0,0,0,0,6.38,7.17,7.17,0,0,0,1.49,2.5,7,7,0,0,0,2.35,1.63A7.82,7.82,0,0,0,239.94,42.93Z" style="fill: #333"/>
          <path d="M258.37,26.42a12.09,12.09,0,0,1,4.23-2.52,14.45,14.45,0,0,1,4.8-.84,13,13,0,0,1,4.29.62,8.54,8.54,0,0,1,3,1.68,6.71,6.71,0,0,1,1.7,2.42,7.58,7.58,0,0,1,.55,2.86V42.26c0,.8,0,1.53.05,2.2s.08,1.32.14,1.92h-3.84c-.09-1.15-.14-2.3-.14-3.45H273a8.3,8.3,0,0,1-3.4,3.12,10.76,10.76,0,0,1-4.56.91,10.42,10.42,0,0,1-3-.43,7.35,7.35,0,0,1-2.52-1.3,6.1,6.1,0,0,1-1.7-2.13,6.61,6.61,0,0,1-.63-3,6.51,6.51,0,0,1,1-3.69A7.46,7.46,0,0,1,260.85,34a13,13,0,0,1,4-1.34,27.8,27.8,0,0,1,4.87-.41h3.17v-1a4.67,4.67,0,0,0-.34-1.73,4.62,4.62,0,0,0-2.68-2.66,6.48,6.48,0,0,0-2.4-.41,8.89,8.89,0,0,0-2.19.24,9.68,9.68,0,0,0-1.7.6,7.33,7.33,0,0,0-1.39.84l-1.2.91Zm12.2,9a30.82,30.82,0,0,0-3.15.17,12.23,12.23,0,0,0-2.93.65,5.59,5.59,0,0,0-2.16,1.34,3,3,0,0,0-.84,2.21,3.13,3.13,0,0,0,1.32,2.83,6.45,6.45,0,0,0,3.58.86,6.92,6.92,0,0,0,3-.6,5.61,5.61,0,0,0,2-1.56,6,6,0,0,0,1.1-2.13,8.26,8.26,0,0,0,.34-2.33V35.44Z" style="fill: #333"/>
          <path d="M283.19,23.63h4.32v3.51h.1a6,6,0,0,1,1.15-1.66,7.33,7.33,0,0,1,1.61-1.27,8.68,8.68,0,0,1,1.94-.84,7.33,7.33,0,0,1,2.11-.31,6.06,6.06,0,0,1,1.92.28L296.15,28a9.56,9.56,0,0,0-1.06-.24,6.22,6.22,0,0,0-1-.1,6.38,6.38,0,0,0-4.85,1.78q-1.68,1.77-1.68,5.52V46.38h-4.32Z" style="fill: #333"/>
          <path d="M322.89,46.38h-4.32V43.12h-.1A8.2,8.2,0,0,1,315,46a10.64,10.64,0,0,1-4.49,1,12,12,0,0,1-4.77-.91,10.45,10.45,0,0,1-3.65-2.55,11.31,11.31,0,0,1-2.33-3.79A13.08,13.08,0,0,1,299,35a13.28,13.28,0,0,1,.82-4.73,11,11,0,0,1,2.33-3.79A10.64,10.64,0,0,1,305.78,24a12,12,0,0,1,4.77-.91,10.54,10.54,0,0,1,4.61,1,7.86,7.86,0,0,1,3.31,2.81h.1V10.1h4.32Zm-11.81-3.45a7.82,7.82,0,0,0,3.12-.6,7,7,0,0,0,2.35-1.63A7.17,7.17,0,0,0,318,38.2a9.87,9.87,0,0,0,0-6.38,7.17,7.17,0,0,0-1.49-2.5,6.83,6.83,0,0,0-2.35-1.63,8.41,8.41,0,0,0-6.24,0,6.83,6.83,0,0,0-2.35,1.63,7.17,7.17,0,0,0-1.49,2.5,9.87,9.87,0,0,0,0,6.38,7.17,7.17,0,0,0,1.49,2.5A7,7,0,0,0,308,42.33,7.82,7.82,0,0,0,311.08,42.93Z" style="fill: #333"/>
          <path d="M133.05,64.4h4.61V94.06h15.6v4.32H133.05Z" style="fill: #333"/>
          <path d="M157.14,67.47a3.15,3.15,0,0,1,5.4-2.23,3.15,3.15,0,1,1-5.4,2.23Zm1,8.16h4.32V98.38h-4.32Z" style="fill: #333"/>
          <path d="M168.37,62.1h4.33V78.9h.09a7.86,7.86,0,0,1,3.31-2.81,10.54,10.54,0,0,1,4.61-1,12.05,12.05,0,0,1,4.78.91,10.84,10.84,0,0,1,3.65,2.52,11.15,11.15,0,0,1,2.32,3.79,13.28,13.28,0,0,1,.82,4.73,13.08,13.08,0,0,1-.82,4.7,11.45,11.45,0,0,1-2.32,3.79,10.63,10.63,0,0,1-3.65,2.55,12.05,12.05,0,0,1-4.78.91,10.68,10.68,0,0,1-4.49-1,8.2,8.2,0,0,1-3.43-2.83h-.09v3.26h-4.33Zm11.81,32.83a7.82,7.82,0,0,0,3.12-.6,7.11,7.11,0,0,0,2.36-1.63,7.31,7.31,0,0,0,1.48-2.5,9.87,9.87,0,0,0,0-6.38,7.31,7.31,0,0,0-1.48-2.5,7,7,0,0,0-2.36-1.63,8.41,8.41,0,0,0-6.24,0,6.83,6.83,0,0,0-2.35,1.63,7.17,7.17,0,0,0-1.49,2.5,10,10,0,0,0,0,6.38,7.17,7.17,0,0,0,1.49,2.5,7,7,0,0,0,2.35,1.63A7.82,7.82,0,0,0,180.18,94.93Z" style="fill: #333"/>
          <path d="M197.7,75.63H202v3.51h.1a6.25,6.25,0,0,1,1.15-1.66,7.57,7.57,0,0,1,1.61-1.27,8.68,8.68,0,0,1,1.94-.84,7.39,7.39,0,0,1,2.11-.31,6.06,6.06,0,0,1,1.92.28L210.66,80a9.92,9.92,0,0,0-1-.24,7.12,7.12,0,0,0-5.91,1.68Q202,83.21,202,87V98.38H197.7Z" style="fill: #333"/>
          <path d="M215.56,78.42a12,12,0,0,1,4.22-2.52,14.45,14.45,0,0,1,4.8-.84,13.06,13.06,0,0,1,4.3.62,8.49,8.49,0,0,1,3,1.68,6.47,6.47,0,0,1,1.7,2.42,7.59,7.59,0,0,1,.56,2.86V94.26c0,.8,0,1.53,0,2.2s.08,1.32.15,1.92h-3.84q-.15-1.72-.15-3.45h-.09a8.32,8.32,0,0,1-3.41,3.12,10.7,10.7,0,0,1-4.56.91,10.35,10.35,0,0,1-3-.43,7.35,7.35,0,0,1-2.52-1.3A6.25,6.25,0,0,1,215,95.1a6.75,6.75,0,0,1-.62-3,6.59,6.59,0,0,1,1-3.69A7.54,7.54,0,0,1,218,86a13,13,0,0,1,4-1.34,27.92,27.92,0,0,1,4.88-.41h3.16v-1a4.69,4.69,0,0,0-3-4.39,6.41,6.41,0,0,0-2.4-.41,8.81,8.81,0,0,0-2.18.24,9.51,9.51,0,0,0-1.71.6,7.66,7.66,0,0,0-1.39.84l-1.2.91Zm12.19,9a30.78,30.78,0,0,0-3.14.17,12.12,12.12,0,0,0-2.93.65,5.59,5.59,0,0,0-2.16,1.34,3,3,0,0,0-.84,2.21A3.13,3.13,0,0,0,220,94.64a6.42,6.42,0,0,0,3.57.86,6.94,6.94,0,0,0,3-.6,5.66,5.66,0,0,0,2-1.56,6,6,0,0,0,1.11-2.13,8.62,8.62,0,0,0,.33-2.33V87.44Z" style="fill: #333"/>
          <path d="M240.37,75.63h4.32v3.51h.1a6.25,6.25,0,0,1,1.15-1.66,7.57,7.57,0,0,1,1.61-1.27,8.68,8.68,0,0,1,1.94-.84,7.4,7.4,0,0,1,2.12-.31,6.14,6.14,0,0,1,1.92.28l-.2,4.66a9.92,9.92,0,0,0-1.05-.24,7.12,7.12,0,0,0-5.91,1.68q-1.68,1.77-1.68,5.52V98.38h-4.32Z" style="fill: #333"/>
          <path d="M258.33,75.63h5l6.74,17.76h.09l6.46-17.76h4.61l-10.8,27.65a29.22,29.22,0,0,1-1.19,2.71,8.19,8.19,0,0,1-1.49,2.09,5.83,5.83,0,0,1-2.08,1.34,8.13,8.13,0,0,1-3,.48,15.91,15.91,0,0,1-1.94-.12,7,7,0,0,1-1.89-.5l.53-3.94a6.61,6.61,0,0,0,2.57.53,4.94,4.94,0,0,0,1.7-.26,3.39,3.39,0,0,0,1.19-.77,4.55,4.55,0,0,0,.83-1.18,15.14,15.14,0,0,0,.67-1.53l1.4-3.6Z" style="fill: #333"/>
        </g>
        <g>
          <path d="M72.4,6.79l4.48,4.48L32.14,56,11.27,35.12,39.6,6.79A23.21,23.21,0,0,1,72.4,6.79Z" style="fill: #f9aa3f"/>
          <path d="M79.86,56l20.87,20.88L72.4,105.21a23.21,23.21,0,0,1-32.8,0l-4.48-4.48Z" style="fill: #986eb0"/>
          <path d="M82.84,17.23,105.21,39.6a23.21,23.21,0,0,1,0,32.8l-4.48,4.48L62,38.11Z" style="fill: #4dbc88"/>
          <path d="M11.27,35.12,50,73.89,29.16,94.77,6.79,72.4a23.21,23.21,0,0,1,0-32.8Z" style="fill: #ed4d41"/>
          <polygon points="11.27 35.13 41.09 47.05 32.14 56 11.27 35.13" style="fill: #ee8229"/>
          <polygon points="100.73 76.88 70.91 64.95 79.86 56 100.73 76.88" style="fill: #7650a0"/>
        </g>
      </g>
    </g>
  </g>
</svg>
