<?xml version="1.0" encoding="UTF-8" standalone="no"?>
<!-- Created with Inkscape (http://www.inkscape.org/) -->

<svg
   xmlns:dc="http://purl.org/dc/elements/1.1/"
   xmlns:cc="http://creativecommons.org/ns#"
   xmlns:rdf="http://www.w3.org/1999/02/22-rdf-syntax-ns#"
   xmlns:svg="http://www.w3.org/2000/svg"
   xmlns="http://www.w3.org/2000/svg"
   xmlns:sodipodi="http://sodipodi.sourceforge.net/DTD/sodipodi-0.dtd"
   xmlns:inkscape="http://www.inkscape.org/namespaces/inkscape"
   width="78.833214"
   height="30.48057"
   viewBox="0 0 20.857953 8.0646507"
   version="1.1"
   id="svg2942"
   inkscape:version="0.92.0 r15299"
   sodipodi:docname="clearly.svg">
  <defs
     id="defs2936" />
  <sodipodi:namedview
     id="base"
     pagecolor="#ffffff"
     bordercolor="#666666"
     borderopacity="1.0"
     inkscape:pageopacity="0.0"
     inkscape:pageshadow="2"
     inkscape:zoom="11.524643"
     inkscape:cx="38.916607"
     inkscape:cy="14.740285"
     inkscape:document-units="mm"
     inkscape:current-layer="layer1"
     showgrid="false"
     fit-margin-top="0"
     fit-margin-left="0"
     fit-margin-right="0"
     fit-margin-bottom="0"
     units="px"
     inkscape:window-width="1280"
     inkscape:window-height="744"
     inkscape:window-x="-4"
     inkscape:window-y="-4"
     inkscape:window-maximized="1" />
  <metadata
     id="metadata2939">
    <rdf:RDF>
      <cc:Work
         rdf:about="">
        <dc:format>image/svg+xml</dc:format>
        <dc:type
           rdf:resource="http://purl.org/dc/dcmitype/StillImage" />
        <dc:title></dc:title>
      </cc:Work>
    </rdf:RDF>
  </metadata>
  <g
     inkscape:label="Layer 1"
     inkscape:groupmode="layer"
     id="layer1"
     transform="translate(-341.97712,-345.75206)">
    <g
       id="XLarge"
       transform="matrix(0.26458333,0,0,0.26458333,342.10946,345.82556)"
       style="fill:none;fill-rule:evenodd;stroke:none;stroke-width:1">
      <g
         transform="translate(-262,-255)"
         id="Xlarge---Navigation---Glasses---Expanded---Hover"
         style="fill:#000000">
        <g
           transform="translate(0,200)"
           id="Navigation">
          <g
             transform="translate(0,13)"
             id="Global-Navigation">
            <g
               transform="translate(261)"
               id="Group-4">
              <g
                 transform="translate(1,42)"
                 id="Clearly-Logo">
                <path
                   id="Fill-1"
                   d="m 13.450556,0.22244224 v 0.73340668 h 1.27449 V 21.048992 h -1.27449 v 0.733773 h 5.269436 V 21.048992 H 17.443298 V 0.95584892 0.22244224 Z"
                   inkscape:connector-curvature="0" />
                <path
                   id="Fill-2"
                   d="m 36.120146,18.709388 c 0,-0.667401 0.167068,-1.240558 0.497532,-1.693803 0.02276,-0.033 0.04516,-0.06161 0.07931,-0.09681 0.327527,-0.343234 0.868754,-0.704804 1.393091,-0.922625 l 2.236508,-0.891456 c 0.414549,-0.174184 0.705358,-0.425376 0.863981,-0.59956 v 2.693069 c 0,0.390173 -0.03709,0.816648 -0.10428,1.309864 -0.0015,0.01357 -0.0015,0.02237 -0.0077,0.0352 -0.185427,0.832417 -0.350659,1.118812 -0.491657,1.357169 -0.227286,0.400807 -0.509283,0.638064 -0.857739,0.882288 -0.24491,0.16355 -0.763005,0.446278 -1.48305,0.446278 -0.335972,0 -0.631554,-0.05207 -0.873894,-0.120279 -0.06866,-0.0286 -0.143201,-0.05904 -0.207458,-0.09534 -0.275387,-0.148882 -0.49129,-0.347268 -0.635226,-0.580125 -0.158623,-0.237624 -0.260332,-0.511185 -0.321285,-0.819215 -0.05508,-0.308031 -0.08812,-0.609828 -0.08812,-0.904657 z m 9.711609,2.291162 c 0,0 -0.207458,0.09241 -0.306964,0.127979 -0.224716,0.07517 -0.449064,0.112578 -0.661296,0.112578 -0.312472,0 -0.546367,-0.08581 -0.707561,-0.270627 -0.163029,-0.185552 -0.251887,-0.551521 -0.251887,-1.101576 v -7.393473 c 0,-0.541988 -0.07674,-1.06344 -0.237934,-1.554456 C 43.503451,10.427759 43.229533,9.9763476 42.848398,9.5839751 42.460653,9.1901357 41.949168,8.8791713 41.33634,8.6485149 40.714333,8.4123579 39.934437,8.3005134 39.012075,8.3005134 c -0.758232,0 -1.432746,0.090209 -2.023543,0.2691602 -0.595203,0.179318 -1.093469,0.4290429 -1.490393,0.739274 -0.388112,0.3168316 -0.696913,0.6784011 -0.895559,1.0828754 -0.207091,0.40594 -0.303292,0.83755 -0.303292,1.279794 0,0.394573 0.08372,0.718372 0.250418,0.966264 0.176982,0.262192 0.59557,0.389805 1.285506,0.389805 0.393252,0 0.703889,-0.09938 0.915386,-0.303264 0.218106,-0.205353 0.322019,-0.454345 0.322019,-0.755408 0,-0.163183 -0.02717,-0.405574 -0.08409,-0.739641 -0.06462,-0.321966 -0.08812,-0.647598 -0.08812,-0.979831 0,-0.4866157 0.189467,-0.8280165 0.588961,-1.0410711 0.412346,-0.2211222 0.945128,-0.3292996 1.580354,-0.3292996 0.485048,0 0.872058,0.06454 1.155156,0.1965529 0.287136,0.1327467 0.50304,0.326366 0.64771,0.5742575 0.154951,0.2585258 0.260332,0.5749913 0.321651,0.9361933 0.05361,0.369637 0.08041,0.792813 0.08041,1.259626 0,0.590393 -0.04002,1.056473 -0.128146,1.40044 -0.03525,0.127246 -0.08115,0.248992 -0.140631,0.360836 -0.07123,0.123213 -0.163764,0.235424 -0.277957,0.348002 -0.255559,0.242757 -0.553344,0.431243 -0.899597,0.559589 -0.522501,0.193253 -1.307537,0.459479 -1.731266,0.598093 -0.496063,0.163183 -1.192241,0.410708 -1.703727,0.589293 l -0.215903,0.07627 c -0.01579,0.011 -0.03121,0.01723 -0.04737,0.02604 -0.424463,0.145581 -0.821755,0.30363 -1.18343,0.50275 -0.454204,0.253025 -0.828731,0.593693 -1.113664,1.021269 -0.281629,0.426843 -0.420424,1.001833 -0.420424,1.707004 0,0.303263 0.03929,0.63073 0.129982,0.983865 0.09033,0.363036 0.282364,0.689035 0.566196,0.976898 0.286769,0.277961 0.688467,0.524385 1.192976,0.712137 0.414182,0.16025 0.959448,0.247892 1.609728,0.274295 0.03745,0.0044 0.0727,0.01834 0.113092,0.01834 0.718209,0 1.606056,-0.0198 2.126721,-0.196553 0.456775,-0.149249 0.894824,-0.389073 1.236671,-0.684269 0.313574,-0.268427 0.452001,-0.422442 0.696912,-0.834983 0.07491,-0.120279 0.140998,-0.272827 0.203052,-0.414008 0.17588,0.623029 0.449799,1.13238 0.835707,1.495416 0.433643,0.416575 1.14818,0.62963 2.120846,0.62963 0.522134,0 0.976339,-0.07884 1.333607,-0.228457 0.18763,-0.07517 0.50304,-0.247158 0.520298,-0.251558 l 0.06793,-0.03704 -0.262169,-0.510818 z"
                   inkscape:connector-curvature="0" />
                <path
                   id="Fill-4"
                   d="M 57.380159,9.3706271 C 57.157279,9.1374037 56.870877,8.9434177 56.522421,8.7890356 56.182409,8.640154 55.763821,8.5649798 55.305945,8.5649798 c -0.644405,0 -1.199585,0.1191786 -1.658196,0.3612028 -0.450166,0.2416575 -0.843051,0.5419876 -1.168742,0.8892556 -0.319449,0.3568028 -0.568399,0.7242388 -0.75199,1.1059778 -0.12117,0.259259 -0.222512,0.488448 -0.293012,0.699669 V 9.6192519 8.8865787 h -3.938032 v 0.5786578 0.1540154 h 1.283303 V 21.049395 h -1.283303 v 0.158783 0.574624 h 5.574198 v -0.574624 -0.158783 h -1.574112 v -6.561056 c 0,-0.819582 0.0984,-1.557389 0.306231,-2.189219 0.207458,-0.634397 0.460446,-1.180051 0.760435,-1.627796 0.304027,-0.441878 0.621639,-0.7807116 0.974135,-1.0143016 0.342214,-0.2218555 0.666436,-0.3414008 0.966057,-0.3414008 0.639999,0 0.955041,0.284195 0.955041,0.8679864 0,0.251192 -0.01542,0.441878 -0.05581,0.569857 -0.03011,0.134214 -0.07491,0.255226 -0.123374,0.363403 -0.04994,0.107444 -0.09694,0.217455 -0.135857,0.336634 -0.04443,0.110011 -0.06683,0.262193 -0.06683,0.449212 0,0.605794 0.464853,0.911624 1.388684,0.911624 0.414549,0 0.776591,-0.114778 1.08943,-0.338834 0.313574,-0.23359 0.476236,-0.694169 0.476236,-1.37367 0,-0.299964 -0.05067,-0.612395 -0.158623,-0.911992 -0.0995,-0.3083972 -0.262901,-0.5834247 -0.491655,-0.8192149"
                   inkscape:connector-curvature="0" />
                <path
                   id="Fill-6"
                   d="M 64.340837,21.208287 V 21.049138 H 63.05937 V 0.9556289 0.22222222 H 59.067362 V 0.8016135 0.9556289 h 1.273389 V 21.049138 h -1.273389 v 0.159149 0.574258 h 5.273475 z"
                   inkscape:connector-curvature="0" />
                <path
                   id="Fill-8"
                   d="m 75.138646,9.4651632 v 0.1540154 h 1.198117 L 72.597376,18.327649 69.016245,9.6191786 h 1.383177 V 9.4651632 8.8865053 h -5.419981 v 0.7326733 h 1.133492 l 4.964675,12.2933624 -0.04406,0.13018 -1.090899,2.83315 -0.18506,0.453612 c -0.216271,0.554822 -0.403901,1.030436 -0.610992,1.473414 -0.247481,0.504217 -0.476603,0.984598 -0.717842,1.312064 -0.249684,0.328567 -0.454939,0.53282 -0.675983,0.680969 -0.105748,0.06601 -0.241606,0.124679 -0.376729,0.176017 -0.151646,0.04657 -0.30623,0.06601 -0.469626,0.06601 -0.227286,0 -0.40537,-0.03997 -0.525071,-0.110378 -0.116764,-0.06417 -0.171474,-0.20462 -0.171474,-0.435277 0,-0.277228 0.07748,-0.540154 0.233161,-0.76971 0.183591,-0.261093 0.269511,-0.543821 0.269511,-0.833884 0,-0.207187 -0.04333,-0.396039 -0.167802,-0.550055 -0.101709,-0.149981 -0.229489,-0.264393 -0.37012,-0.343967 -0.146873,-0.08361 -0.304394,-0.147415 -0.476236,-0.180418 -0.163396,-0.0308 -0.317612,-0.04657 -0.458611,-0.04657 -0.418955,0 -0.77145,0.134581 -1.062626,0.398974 -0.299621,0.259259 -0.443556,0.658232 -0.443556,1.170883 0,0.185186 0.0246,0.408508 0.09143,0.669234 0.06095,0.270627 0.193138,0.531353 0.400964,0.775578 0.200481,0.246424 0.485415,0.462046 0.844519,0.643197 0.349558,0.180418 0.835708,0.277228 1.417325,0.277228 0.480642,0 0.912448,-0.08801 1.28367,-0.259993 0.01652,-0.011 0.03084,-0.02163 0.05214,-0.02604 0.348456,-0.167216 0.71674,-0.375137 1.031782,-0.718738 0.251153,-0.272461 0.546368,-0.637697 0.882707,-1.289329 0.299254,-0.56179 1.450004,-3.353869 1.747422,-4.113312 l 0.04186,-0.112577 c 0.317981,-0.801247 0.560321,-1.437844 0.921996,-2.251559 L 77.286664,9.6191786 h 0.546367 V 9.4651632 8.8865053 h -2.694385 z"
                   inkscape:connector-curvature="0" />
                <path
                   id="Fill-10"
                   d="M 12.216345,17.544114 H 11.35163 c -0.378932,2.219289 -2.2750624,3.614595 -4.1425525,3.614595 -0.9653228,0 -2.6822682,-0.190686 -3.3270406,-1.522552 0,0 -0.00404,0 -0.00404,-0.0044 C 3.5912284,19.078401 3.3966216,18.427503 3.2916075,17.689329 3.1851245,16.940521 3.1278441,16.136707 3.1278441,15.292923 c 0,-1.491749 0.1230061,-2.680602 0.3668153,-3.53282 0.2456451,-0.859186 0.5460003,-1.521452 0.9381512,-1.9339937 0.8426838,-0.8870554 2.1458145,-0.946828 2.5666057,-0.946828 0.5794139,0 1.0938366,0.1188118 1.5370259,0.3549688 0.4343768,0.2372571 0.645874,0.5566557 0.645874,0.9864319 0,0.244225 -0.075272,0.56839 -0.2096612,0.951228 -0.1391622,0.400807 -0.2096612,0.753209 -0.2096612,1.033371 0,0.389072 0.1652321,0.671067 0.499001,0.833516 0.3304642,0.149982 0.6609285,0.228823 1.0093842,0.228823 0.511853,0 0.91759,-0.144848 1.201422,-0.424642 0.276488,-0.281262 0.420791,-0.645031 0.420791,-1.081042 0,-0.625962 -0.160092,-1.16685 -0.475869,-1.60286 C 11.104517,9.7234323 10.703186,9.3688302 10.234294,9.0952695 9.7661363,8.8272094 9.2399638,8.6266227 8.6686279,8.4946095 7.1011258,8.1381738 5.6055915,8.2811881 4.2789612,8.8272094 3.4340743,9.1748442 2.6872251,9.6629263 2.0542025,10.280088 1.4263204,10.900917 0.92328038,11.638724 0.55279324,12.47114 c -0.36791686,0.839018 -0.55297683125,1.752476 -0.55297683125,2.730107 0,1.255225 0.21553612125,2.329666 0.64183499125,3.192886 0.4318066,0.853685 0.9957989,1.562889 1.6725163,2.084708 0.6730455,0.530987 1.3651845,0.861386 2.1682126,1.160616 0.8283637,0.29483 1.802866,0.356803 2.3363822,0.356803 v 0.004 l 0.018359,-0.004 c 0,0 0.031211,0.004 0.044062,0.004 l 0.037085,-0.004 c 2.6481202,-0.0308 4.6892875,-1.450312 5.2980765,-4.452146"
                   inkscape:connector-curvature="0" />
                <path
                   id="Fill-13"
                   d="m 23.244377,11.868097 c 0.123007,-0.582325 0.299254,-1.105611 0.540493,-1.552622 0.231325,-0.4385773 0.553344,-0.7942795 0.936315,-1.0542722 0.401331,-0.2555922 0.912816,-0.3813715 1.523808,-0.3813715 0.336706,0 0.663499,0.046205 0.958713,0.1518152 0.295215,0.1059773 0.547102,0.2823616 0.745381,0.5232857 0.206723,0.2497249 0.37012,0.5911258 0.485048,1.0091678 0.118967,0.427209 0.178451,0.981665 0.178451,1.640631 v 0.746241 c 0,0.215621 -0.0084,0.447011 -0.0459,0.687569 h -5.551432 c 0.04369,-0.613128 0.123006,-1.206821 0.229121,-1.770444 z m 7.910213,5.676201 h -0.180654 c -0.368651,2.219288 -2.222556,3.615328 -4.043046,3.615328 -0.943659,0 -2.456451,-0.145948 -3.2503,-1.52842 -0.273551,-0.552255 -0.463017,-1.203887 -0.569133,-1.941694 -0.07417,-0.53282 -0.120803,-1.096809 -0.140263,-1.678034 0,-0.08104 -0.0051,-0.171984 -0.0051,-0.259993 -0.0044,-0.109644 -0.0044,-0.220022 -0.0044,-0.330033 0,-0.261459 0,-0.493216 0.0095,-0.674001 0.0084,-0.122845 0.0084,-0.198386 0.0084,-0.325265 h 8.580688 v -0.381005 h -0.0092 C 31.540499,12.986175 31.375634,12.088119 31.030849,11.37048 30.687167,10.62974 30.251321,10.030913 29.738734,9.5784012 29.218804,9.1306564 28.650038,8.7976898 28.054468,8.6000367 27.451187,8.4016502 26.88389,8.30044 26.357718,8.30044 c -0.881973,0 -1.719883,0.1983866 -2.487662,0.585992 -0.762638,0.3854052 -1.441558,0.9046571 -2.010324,1.547855 -0.573906,0.635863 -1.023705,1.378438 -1.354169,2.203887 -0.326058,0.823616 -0.493126,1.686469 -0.493126,2.563256 0,1.016502 0.160459,1.950128 0.477337,2.780345 0.319816,0.826549 0.774388,1.548588 1.351599,2.149248 0.584555,0.602127 1.281467,1.06564 2.074948,1.385405 0.778794,0.312798 1.638002,0.471214 2.542739,0.479648 0.01726,0 0.02607,0.0051 0.02607,0.0051 2.662808,0 4.731147,-1.414008 5.335529,-4.456912 z"
                   inkscape:connector-curvature="0" />
              </g>
            </g>
          </g>
        </g>
      </g>
    </g>
  </g>
</svg>
