<svg width="28" height="20" viewBox="0 0 28 20" fill="none" xmlns="http://www.w3.org/2000/svg">
<g clip-path="url(#clip0)">
<path d="M2.21126 19.9465C1.46518 19.8179 0.779981 19.3625 0.370912 18.7234C-0.248913 17.755 -0.0719948 16.2085 0.75293 15.3842C0.919551 15.2177 2.9378 14.0061 7.07509 11.5888L13.1525 8.03791L13.1347 7.5493C13.1184 7.09958 13.1027 7.04577 12.9377 6.8729C12.8391 6.76961 12.545 6.53542 12.2842 6.3525C11.6278 5.89214 11.3349 5.57101 11.0535 5.00326C10.5735 4.03486 10.5929 2.98778 11.1103 1.94897C11.8785 0.406658 13.2981 -0.266953 15.0147 0.0964253C16.211 0.349677 17.2789 1.38861 17.5971 2.60875C17.7818 3.31718 17.6938 3.77438 17.3078 4.11301C17.0505 4.33867 16.8736 4.3933 16.5435 4.34906C16.1113 4.29115 15.8925 3.99299 15.7776 3.30527C15.6801 2.72173 15.4436 2.36857 14.9993 2.14294C14.3814 1.82919 13.7723 1.87479 13.2174 2.27632C12.676 2.66809 12.4916 3.55587 12.8145 4.21527C12.9972 4.58827 13.2045 4.78118 13.681 5.02145C14.1535 5.2597 14.5846 5.66736 14.7872 6.0674C14.9445 6.37787 14.9623 6.47829 14.9942 7.23518L15.0292 8.06329L21.0049 11.5913C25.3043 14.1295 27.0617 15.1977 27.2695 15.3991C28.0066 16.1132 28.202 17.2444 27.782 18.3658C27.4654 19.2112 26.7117 19.7783 25.6831 19.945C25.2368 20.0174 2.63087 20.0188 2.21126 19.9465V19.9465ZM25.565 17.916C25.7783 17.786 25.9349 17.488 25.9349 17.2119C25.9349 16.79 25.984 16.822 19.8677 13.2479C16.6806 11.3855 14.0327 9.86219 13.9834 9.86279C13.9341 9.86338 11.2585 11.4006 8.03759 13.2789C2.59319 16.4537 2.1736 16.7098 2.07065 16.9203C1.91594 17.2366 1.97925 17.5207 2.26895 17.8101L2.49599 18.0369H13.9316C25.2961 18.0369 25.3684 18.0359 25.565 17.9162V17.916Z" fill="#828282"/>
</g>
<defs>
<clipPath id="clip0">
<rect width="28" height="20" fill="white"/>
</clipPath>
</defs>
</svg>
