<svg width="33" height="33" viewBox="0 0 33 33" fill="none" xmlns="http://www.w3.org/2000/svg">
<g id="insta_icon">
<g id="Group">
<g id="Group_2">
<path id="Vector" d="M23.9419 0H8.8641C3.97645 0 0 3.99996 0 8.91651V24.0835C0 29 3.97645 33 8.8641 33H23.9419C28.8296 33 32.806 29 32.806 24.0835V8.91651C32.806 3.99996 28.8296 0 23.9419 0ZM30.1557 24.0835C30.1557 27.53 27.3682 30.334 23.9419 30.334H8.8641C5.43786 30.334 2.65037 27.5301 2.65037 24.0835V8.91651C2.65037 5.47001 5.43779 2.66604 8.8641 2.66604H23.9419C27.3682 2.66604 30.1557 5.46994 30.1557 8.91651V24.0835Z" fill="white"/>
</g>
</g>
<g id="Group_3">
<g id="Group_4">
<path id="Vector_2" d="M23.7455 15.3486C23.5123 13.7665 22.7947 12.3326 21.6704 11.2016C20.5461 10.0707 19.1206 9.34882 17.5478 9.11428C16.8317 9.00748 16.1057 9.00748 15.3896 9.11428C13.4459 9.40425 11.7308 10.4382 10.5602 12.0258C9.38966 13.6133 8.90365 15.5644 9.19192 17.5195C9.48019 19.4747 10.5081 21.1999 12.0863 22.3775C13.3675 23.3334 14.8867 23.8354 16.4531 23.8354C16.8162 23.8354 17.182 23.8084 17.5477 23.7538C19.4915 23.4639 21.2066 22.4299 22.3771 20.8424C23.5478 19.2549 24.0338 17.3038 23.7455 15.3486ZM17.159 21.1166C15.9156 21.3024 14.6748 20.9894 13.6652 20.2362C12.6556 19.4829 11.9981 18.3792 11.8137 17.1285C11.6293 15.8778 11.9401 14.6297 12.689 13.6141C13.4379 12.5985 14.535 11.9371 15.7784 11.7516C16.0074 11.7174 16.238 11.7003 16.4686 11.7003C16.6993 11.7003 16.9299 11.7174 17.1589 11.7516C19.2241 12.0597 20.8174 13.6623 21.1237 15.7398C21.5043 18.3217 19.7258 20.7338 17.159 21.1166Z" fill="white"/>
</g>
</g>
<g id="Group_5">
<g id="Group_6">
<path id="Vector_3" d="M25.6334 7.21565C25.3866 6.96744 25.045 6.8252 24.6963 6.8252C24.3477 6.8252 24.0061 6.96738 23.7593 7.21565C23.5125 7.46393 23.3711 7.80695 23.3711 8.15828C23.3711 8.50961 23.5125 8.85263 23.7593 9.10091C24.0061 9.34912 24.3477 9.49136 24.6963 9.49136C25.045 9.49136 25.3866 9.34918 25.6334 9.10091C25.8802 8.85263 26.0216 8.50903 26.0216 8.15828C26.0216 7.80746 25.8802 7.46386 25.6334 7.21565Z" fill="white"/>
</g>
</g>
</g>
</svg>
