<svg width="44" height="33" viewBox="0 0 44 33" fill="none" xmlns="http://www.w3.org/2000/svg">
<path d="M43.7464 4.71473H41.3325C40.704 4.71473 39.0593 5.40155 39.0593 5.98624V27.2191C39.0593 27.8053 40.704 28.2858 41.3325 28.2858H43.7464V33H28.1226V28.2858H31.2482V6.28536H30.7042L23.1833 32.9999H17.3602L9.93657 6.28536H9.3743V28.2857H12.4985V32.9999H0V28.2857H1.73346C2.41398 28.2857 3.12425 27.8053 3.12425 27.219V5.98624C3.12425 5.40146 2.41407 4.71473 1.73346 4.71473H0V1.47099e-07H16.1976L21.4863 18.8569H21.6287L26.9695 1.47099e-07H43.7464V4.71473Z" fill="white"/>
</svg>
