<svg width="35" height="30" viewBox="0 0 35 30" fill="none" xmlns="http://www.w3.org/2000/svg">
<path d="M34.9321 4.06627C33.6464 4.64601 32.2668 5.03919 30.8174 5.21472C32.2974 4.31284 33.4303 2.88233 33.9672 1.183C32.579 2.0182 31.0466 2.62467 29.4138 2.95342C28.1063 1.53401 26.2465 0.649902 24.1837 0.649902C20.2262 0.649902 17.0174 3.91525 17.0174 7.94029C17.0174 8.51114 17.0807 9.0687 17.2029 9.60186C11.2481 9.29749 5.96786 6.39425 2.43383 1.98266C1.81607 3.0578 1.46464 4.31057 1.46464 5.64786C1.46464 8.17797 2.7307 10.4104 4.65162 11.7165C3.47723 11.6765 2.3727 11.3478 1.40573 10.8013V10.8924C1.40573 14.4243 3.87672 17.372 7.15315 18.0428C6.55286 18.2072 5.91986 18.2983 5.26499 18.2983C4.80226 18.2983 4.35476 18.2517 3.916 18.1628C4.8284 21.0616 7.47405 23.1696 10.6086 23.2274C8.15728 25.1822 5.06636 26.344 1.70916 26.344C1.13073 26.344 0.560969 26.3084 0 26.244C3.17169 28.3165 6.93711 29.5249 10.9841 29.5249C24.1663 29.5249 31.3719 18.4138 31.3719 8.77775L31.3479 7.8337C32.7558 6.81182 33.9738 5.52791 34.9321 4.06627Z" fill="white"/>
</svg>
