<?xml version="1.0" encoding="utf-8"?>
<!-- Generator: Adobe Illustrator 16.0.3, SVG Export Plug-In . SVG Version: 6.00 Build 0)  -->
<!DOCTYPE svg PUBLIC "-//W3C//DTD SVG 1.1//EN" "http://www.w3.org/Graphics/SVG/1.1/DTD/svg11.dtd">
<svg version="1.1" id="Calque_3" xmlns="http://www.w3.org/2000/svg" xmlns:xlink="http://www.w3.org/1999/xlink" x="0px" y="0px"
	 width="450px" height="240px" viewBox="0 0 450 240" enable-background="new 0 0 450 240" xml:space="preserve">
<g>
	<path fill-rule="evenodd" fill="#01b1af" clip-rule="evenodd" d="M193.055,79.981c2.744,0,5.319-0.024,7.893,0.005
		c8.278,0.095,16.579-0.126,24.829,0.406c9.543,0.615,15.886,5.951,18.422,15.148c1.298,4.716,2.06,9.671,2.335,14.56
		c0.559,9.927,1.117,19.912-1.087,29.745c-2.824,12.601-10.572,19.262-23.406,19.688c-9.278,0.307-18.572,0.069-27.86,0.065
		c-0.32-0.002-0.64-0.099-1.125-0.177C193.055,132.99,193.055,106.608,193.055,79.981z M209.848,147.077
		c3.617,0,7.116,0.208,10.579-0.064c2.905-0.23,5.21-1.898,6.433-4.603c0.85-1.881,1.805-3.913,1.886-5.911
		c0.408-9.744,0.682-19.502,0.676-29.253c-0.002-2.852-0.858-5.773-1.728-8.537c-0.913-2.905-2.871-5.371-6.003-5.83
		c-3.893-0.57-7.879-0.505-11.842-0.716C209.848,110.821,209.848,128.916,209.848,147.077z"/>
	<path fill-rule="evenodd" fill="#01b1af" clip-rule="evenodd" d="M1.625,79.981c2.237,0,4.311-0.01,6.385,0.002
		c8.282,0.047,16.597-0.352,24.836,0.26c12.173,0.904,18.37,6.434,20.748,18.444c2.685,13.557,2.98,27.3,0.425,40.909
		c-2.381,12.682-10.513,19.5-23.42,19.934c-9.277,0.313-18.573,0.067-27.861,0.063c-0.32,0-0.64-0.101-1.113-0.179
		C1.625,133.041,1.625,106.725,1.625,79.981z M18.407,147.221c3.191,0,6.107,0.066,9.019-0.016c4.19-0.118,7.163-2.141,8.628-6.087
		c0.665-1.788,1.357-3.683,1.432-5.554c0.353-8.841,0.679-17.691,0.623-26.539c-0.021-3.364-0.858-6.786-1.751-10.068
		c-0.77-2.828-2.619-5.397-5.616-5.913c-4.032-0.695-8.188-0.663-12.334-0.945C18.407,110.811,18.407,128.859,18.407,147.221z"/>
	<path fill-rule="evenodd" fill="#01b1af" clip-rule="evenodd" d="M118.217,159.605c-5.559,0-10.967,0.053-16.372-0.079
		c-0.549-0.014-1.366-1.044-1.559-1.741c-1.24-4.508-2.412-9.039-3.45-13.598c-0.354-1.558-0.893-2.232-2.612-2.203
		c-6.27,0.102-12.544,0.078-18.815,0.014c-1.434-0.018-2.028,0.449-2.369,1.869c-1.249,5.191-2.65,10.347-4.019,15.606
		c-5.49,0-10.879,0-16.541,0c1.779-6.453,3.493-12.715,5.231-18.972c5.347-19.234,10.731-38.458,16.015-57.709
		c0.571-2.083,1.353-2.959,3.685-2.877c5.763,0.202,11.539,0.108,17.309,0.037c1.387-0.018,2.086,0.348,2.47,1.765
		c6.919,25.558,13.885,51.104,20.836,76.653C118.109,158.677,118.125,158.998,118.217,159.605z M84.831,96.243
		c-0.184,0.036-0.367,0.073-0.551,0.109c-2.436,11.014-4.872,22.025-7.324,33.112c5.462,0,10.495,0,15.691,0
		C90.008,118.248,87.419,107.246,84.831,96.243z"/>
	<path fill-rule="evenodd" fill="#01b1af" clip-rule="evenodd" d="M450,159.602c-5.708,0-11.054,0.053-16.392-0.079
		c-0.544-0.014-1.354-1.052-1.543-1.749c-1.401-5.152-2.676-10.337-4.048-15.738c-7.234,0-14.41-0.039-21.583,0.077
		c-0.539,0.008-1.347,1.052-1.542,1.753c-1.306,4.667-2.433,9.383-3.748,14.044c-0.188,0.667-1.067,1.607-1.646,1.623
		c-4.923,0.13-9.851,0.073-15.119,0.073c0.188-0.913,0.29-1.606,0.477-2.28c6.943-25.032,13.908-50.062,20.82-75.105
		c0.438-1.582,1.007-2.335,2.854-2.291c5.934,0.14,11.876,0.119,17.811,0.01c1.68-0.032,2.3,0.593,2.713,2.115
		c6.793,25.075,13.635,50.137,20.46,75.204C449.684,157.887,449.78,158.533,450,159.602z M416.584,96.162
		c-0.158-0.001-0.316-0.002-0.475-0.002c-2.462,11.084-4.921,22.168-7.393,33.306c5.412,0,10.451,0,15.699,0
		C421.771,118.216,419.178,107.189,416.584,96.162z"/>
	<path fill-rule="evenodd" fill="#01b1af" clip-rule="evenodd" d="M144.38,159.607c-6.217,0-12.232-0.046-18.244,0.029
		c-1.788,0.021-1.702-1.257-1.969-2.331c-4.452-17.917-8.894-35.836-13.334-53.757c-1.768-7.136-3.534-14.273-5.292-21.41
		c-0.137-0.555-0.22-1.122-0.419-2.157c2.576,0,4.944,0,7.313,0c2.675,0,5.356,0.092,8.027-0.034c1.579-0.075,2.149,0.49,2.47,2.017
		c3.114,14.799,6.306,29.581,9.478,44.369c0.749,3.488,1.504,6.972,2.772,10.514c0.568-2.256,1.155-4.508,1.703-6.77
		c3.845-15.917,7.715-31.828,11.475-47.764c0.427-1.815,1.1-2.433,2.971-2.376c4.586,0.137,9.179,0.044,14.208,0.044
		C158.446,106.668,151.428,133.083,144.38,159.607z"/>
	<path fill-rule="evenodd" fill="#01b1af" clip-rule="evenodd" d="M336.038,80.12c14.507,0,28.854,0,43.345,0c0,4.035,0,7.934,0,12.094
		c-8.765,0-17.507,0-26.458,0c0,6.629,0,13,0,19.659c8.153,0,16.221,0,24.409,0c0,4.175,0,8.063,0,12.233
		c-8.167,0-16.232,0-24.454,0c0,7.769,0,15.261,0,23.045c9.047,0,18.117,0,27.384,0c0,4.233,0,8.186,0,12.299
		c-14.703,0-29.379,0-44.226,0C336.038,133.045,336.038,106.731,336.038,80.12z"/>
	<path fill-rule="evenodd" fill="#01b1af" clip-rule="evenodd" d="M331.113,93.298c-6.592,0-13.086,0-19.815,0c0,22.11,0,43.992,0,66.093
		c-5.686,0-11.133,0-16.859,0c0-21.959,0-43.839,0-66.018c-7.828,0-15.39,0-23.104,0c0-4.524,0-8.751,0-13.186
		c19.903,0,39.754,0,59.778,0C331.113,84.492,331.113,88.779,331.113,93.298z"/>
	<path fill-rule="evenodd" fill="#01b1af" clip-rule="evenodd" d="M186.797,159.474c-5.573,0-10.964,0-16.509,0c0-26.444,0-52.754,0-79.278
		c5.432,0,10.885,0,16.509,0C186.797,106.554,186.797,132.858,186.797,159.474z"/>
	<path fill-rule="evenodd" fill="#01b1af" clip-rule="evenodd" d="M286.333,119.072c-4.141,0-8.136,0-12.359,0c-0.167-1.525-0.285-2.998-0.5-4.459
		c-0.313-2.123-1.329-3.557-3.702-3.679c-2.354-0.121-3.836,0.945-4.505,3.152c-0.794,2.625-0.457,5.042,1.823,6.786
		c1.586,1.213,3.34,2.209,5.052,3.249c2.854,1.733,5.896,3.208,8.574,5.182c6.225,4.59,8.36,11.585,6.102,18.955
		c-2.045,6.678-7.65,10.928-15.277,11.287c-2.652,0.124-5.377-0.061-7.99-0.532c-6.798-1.227-10.462-5.367-11.169-12.304
		c-0.193-1.887-0.215-3.789-0.333-6.018c2.398,0,4.461,0,6.521,0c1.993,0,3.988,0,6.17,0c0.116,1.751,0.12,3.324,0.344,4.863
		c0.435,3.004,2.029,4.433,4.787,4.475c2.569,0.041,4.441-1.608,4.908-4.438c0.478-2.894-0.496-5.386-2.754-7.133
		c-2.036-1.572-4.335-2.813-6.556-4.137c-1.866-1.109-3.855-2.026-5.675-3.208c-6.296-4.088-8.698-9.77-7.31-17.026
		c1.142-5.956,5.667-10.185,12.827-11.369c3.003-0.495,6.218-0.568,9.214-0.086C282.592,103.928,287.246,110.519,286.333,119.072z"
		/>
</g>
</svg>
