<svg width="24" height="24" viewBox="0 0 24 24" fill="none" xmlns="http://www.w3.org/2000/svg">
<rect x="1" y="1" width="22" height="22" rx="3" fill="#21258A" stroke="#21258A" stroke-width="2"/>
<path d="M11.1897 3.50446C11.1897 3.33705 11.1228 3.16964 11.0022 3.04911L10.0915 2.13839C9.97098 2.01786 9.80357 1.95089 9.63616 1.95089C9.46875 1.95089 9.30134 2.01786 9.1808 2.13839L4.78795 6.53795L2.8192 4.5625C2.69866 4.44196 2.53125 4.375 2.36384 4.375C2.19643 4.375 2.02902 4.44196 1.90848 4.5625L0.997768 5.47321C0.877232 5.59375 0.810268 5.76116 0.810268 5.92857C0.810268 6.09598 0.877232 6.26339 0.997768 6.38393L3.42188 8.80804L4.33259 9.71875C4.45312 9.83929 4.62054 9.90625 4.78795 9.90625C4.95536 9.90625 5.12277 9.83929 5.2433 9.71875L6.15402 8.80804L11.0022 3.95982C11.1228 3.83929 11.1897 3.67188 11.1897 3.50446Z" transform="translate(6 6)" fill="white"/>
</svg>
