<svg width="225" height="223" viewBox="0 0 225 223" fill="none" 
  xmlns="http://www.w3.org/2000/svg">
  <defs>
    <clipPath id="cut-off-bottom">
      <rect x="0" y="0" width="200" height="109.5"/>
    </clipPath>
  </defs>
  <ellipse cx="110.441" cy="113.733" rx="75.9652" ry="35.5321" fill="#ABB8F9" clip-path="url(#cut-off-bottom)" />
  <rect width="15.8199" height="21.1827" rx="7.90997" transform="matrix(0.641756 -0.766909 0.765178 0.643818 67.5547 57.2505)" fill="#735BA5"/>
  <rect width="15.8199" height="21.1827" rx="7.90997" transform="matrix(-0.641756 -0.766909 -0.765178 0.643818 153.322 57.2505)" fill="#735BA5"/>
  <rect x="74.2456" y="45.5371" width="73.5009" height="90.2475" rx="36.7504" fill="#ABB8F9" clip-path="url(#cut-off-bottom)"/>
  <ellipse rx="10.2276" ry="7.60277" transform="matrix(0.172509 -0.985008 0.984613 0.174751 95.0753 72.9619)" fill="#735BA5" />
  <ellipse rx="10.2276" ry="7.60277" transform="matrix(-0.172509 -0.985008 -0.984613 0.174751 125.352 72.9618)" fill="#735BA5"/>
  <ellipse cx="96.4369" cy="70.1243" rx="2.4286" ry="2.42894" fill="#1E0E47"/>
  <ellipse cx="124.938" cy="70.1243" rx="2.4286" ry="2.42894" fill="#1E0E47"/>
  <path d="M96.6836 82.7804C96.6836 74.9103 103.064 68.5303 110.934 68.5303C118.804 68.5303 125.184 74.9103 125.184 82.7804L125.184 85.6265C125.184 92.5613 119.562 98.183 112.627 98.183L109.24 98.183C102.305 98.183 96.6836 92.5613 96.6836 85.6265L96.6836 82.7804Z" fill="#8280DC"/>
  <path d="M104.248 82.853C104.896 83.426 107.215 84.572 111.302 84.572C115.388 84.572 117.302 83.426 117.748 82.853" stroke="#1E0E47" stroke-linecap="round" stroke-linejoin="round"/>
  <rect x="105.181" y="75.4678" width="11.7323" height="5.66753" rx="2.83376" fill="#1E0E47"/>
  <line x1="111.175" y1="80.9194" x2="111.175" y2="84.5723" stroke="#1E0E47"/>
  <rect x="97.0874" y="68.5854" width="0.809124" height="1.21447" rx="0.404562" fill="white"/>
  <rect x="125.407" y="68.5854" width="0.809124" height="1.21447" rx="0.404562" fill="white"/>
</svg>
