<svg width="630" height="489" viewBox="0 0 630 489" fill="none" xmlns="http://www.w3.org/2000/svg">
<path d="M261.85 360.652H232.346V431H261.85V360.652Z" fill="#2E3642"/>
<path d="M241.508 113.753L241.513 113.736C242.006 112.136 242.495 110.548 243 109C243.505 110.548 243.994 112.136 244.487 113.736L244.492 113.753C246.145 119.113 247.839 124.605 250.255 129.18C255.16 138.465 261.733 146.865 267.975 154.081C274.721 161.879 282.428 167.27 290.532 170.977C291.484 171.414 298.305 175.405 298.305 175.405C298.305 175.405 295.748 178.745 293.862 180.311C290.812 182.214 281.786 185.121 270.097 181.528C271.933 183.862 273.812 185.618 276.02 187.062C280.085 189.721 285.365 190.677 289.791 190.677C291.045 190.677 288.792 191.183 286.743 191.643C285.89 191.834 285.074 192.017 284.559 192.153C281.867 192.863 278.856 193.333 276.119 193.333C276.044 193.333 275.945 193.324 275.832 193.312L275.829 193.312C275.287 193.258 274.484 193.177 275.083 194.072C279.419 200.554 286.086 205.971 291.519 209.861C297.155 213.897 303.263 214.75 309.362 215.579C313.207 216.102 325.727 215.252 325.727 215.252C325.727 215.252 324.331 219.751 320.96 222.883C313.577 229.744 305.245 234.636 296.553 235.98C293.854 236.397 287.62 235.685 287.62 235.685C289.997 237.687 295.651 239.716 298.182 240.481C298.623 240.596 299.128 240.635 299.566 240.67L299.57 240.67C300.677 240.756 301.349 240.808 299.465 241.957C296.513 243.757 293.242 244.762 290.086 245.731L288.458 246.236C286.611 246.819 285.578 247.096 283.868 246.457C281.828 246.816 274.883 246.801 269.606 244.901C271.705 247.506 273.821 250.018 275.906 252.43C284.794 262.701 294.95 269.802 305.625 274.686C306.882 275.26 315.869 280.517 315.869 280.517C315.869 280.517 312.5 284.917 310.015 286.98C305.996 289.486 294.105 293.315 278.702 288.584C281.121 291.657 283.598 293.971 286.507 295.872C291.863 299.375 298.819 300.634 304.651 300.634C306.302 300.634 303.329 301.302 300.628 301.907L300.615 301.91L300.602 301.913C299.49 302.163 298.426 302.401 297.756 302.579C294.209 303.514 290.245 304.134 286.636 304.134C286.537 304.134 286.403 304.121 286.255 304.106C285.541 304.034 284.484 303.928 285.271 305.105C290.984 313.644 299.768 320.78 306.926 325.904C314.352 331.219 322.4 332.344 330.436 333.436C335.502 334.124 352 333.004 352 333.004C352 333.004 350.159 338.931 345.717 343.057C335.991 352.093 325.012 358.538 313.559 360.308C310.004 360.858 301.79 359.919 301.79 359.919C304.923 362.557 312.372 365.23 315.706 366.236C316.29 366.388 316.957 366.44 317.535 366.485L317.536 366.485C318.992 366.599 319.876 366.668 317.396 368.18C313.504 370.553 309.191 371.878 305.028 373.156C304.311 373.375 303.6 373.595 302.894 373.817C300.462 374.585 296.846 374.109 296.846 374.109C296.846 374.109 271.601 374.554 259.503 371.413L231.485 368.888C219.572 370.652 188.748 375.015 183.106 373.817C176.08 372.325 173.167 370.962 168.604 368.18C166.124 366.668 167.008 366.599 168.464 366.485L168.465 366.485C169.043 366.44 169.71 366.388 170.294 366.236C173.628 365.23 181.077 362.557 184.21 359.919C184.21 359.919 175.996 360.858 172.441 360.308C160.988 358.538 150.009 352.093 140.283 343.057C135.841 338.931 134 333.004 134 333.004C134 333.004 150.498 334.124 155.564 333.436C163.6 332.344 171.648 331.219 179.074 325.904C186.232 320.78 195.016 313.644 200.729 305.105C201.517 303.928 200.459 304.034 199.745 304.106C199.597 304.121 199.463 304.134 199.364 304.134C195.755 304.134 191.791 303.514 188.244 302.579C187.578 302.402 186.52 302.165 185.414 301.917L185.399 301.914L185.385 301.91L185.372 301.907C182.671 301.302 179.698 300.634 181.349 300.634C187.181 300.634 194.137 299.375 199.493 295.872C202.402 293.971 204.879 291.657 207.298 288.584C191.895 293.315 180.004 289.486 175.985 286.98C173.5 284.917 170.131 280.517 170.131 280.517C170.131 280.517 179.118 275.26 180.375 274.686C191.05 269.802 201.206 262.701 210.094 252.43C212.179 250.018 214.295 247.506 216.394 244.901C211.117 246.801 204.172 246.816 202.132 246.457C200.422 247.096 199.389 246.819 197.542 246.236L195.914 245.731C192.758 244.762 189.487 243.757 186.535 241.957C184.651 240.808 185.323 240.756 186.43 240.67L186.434 240.67C186.872 240.635 187.377 240.596 187.818 240.481C190.349 239.716 196.003 237.687 198.38 235.685C198.38 235.685 192.146 236.397 189.447 235.98C180.755 234.636 172.423 229.744 165.04 222.883C161.669 219.751 160.273 215.252 160.273 215.252C160.273 215.252 172.793 216.102 176.638 215.579C182.737 214.75 188.845 213.897 194.481 209.861C199.914 205.971 206.581 200.554 210.917 194.072C211.516 193.177 210.713 193.258 210.171 193.312L210.168 193.312C210.055 193.324 209.956 193.333 209.881 193.333C207.144 193.333 204.133 192.863 201.441 192.153C200.926 192.017 200.11 191.834 199.257 191.643C197.208 191.183 194.955 190.677 196.209 190.677C200.635 190.677 205.915 189.721 209.98 187.062C212.188 185.618 214.067 183.862 215.903 181.528C204.214 185.121 195.188 182.214 192.138 180.311C190.252 178.745 187.695 175.405 187.695 175.405C187.695 175.405 194.516 171.414 195.468 170.977C203.572 167.27 211.279 161.879 218.025 154.081C224.267 146.865 230.84 138.465 235.745 129.18C238.161 124.605 239.855 119.113 241.508 113.753Z" fill="#2E3642"/>
<path d="M87.1798 322.946H54.1246L52.4236 489H87.1798V322.946Z" fill="#19252D"/>
<path d="M57.883 155.437C63.1252 148.701 66.335 140.208 69.9976 132.569V283.24H33.6302C26.4286 288.658 6.42399 288.897 1.76035 288.34C-1.09612 289.064 -2.82047 288.75 -5.90398 288.089C-11.9843 286.786 -18.4986 285.633 -24.2819 283.24C-28.6719 281.423 -24.7447 282.027 -22.1392 281.567C-17.9148 280.701 -8.47341 278.402 -4.50297 276.132C-4.50297 276.132 -14.9131 276.94 -19.4196 276.467C-33.931 274.944 -47.8458 269.4 -60.1723 261.626C-65.8015 258.075 -68.1332 252.977 -68.1332 252.977C-68.1332 252.977 -47.2261 253.94 -40.8055 253.348C-30.6228 252.409 -20.4244 251.441 -11.0135 246.868C-1.94196 242.459 9.18931 236.321 16.4297 228.975C17.6365 227.751 15.4258 228.139 14.699 228.139C10.1271 228.139 5.10258 227.606 0.606583 226.801C-2.3116 226.278 -11.0924 225.129 -8.1291 225.129C-0.74028 225.129 8.07578 224.045 14.8639 221.032C18.5499 219.396 21.6885 217.405 24.7533 214.761C5.23492 218.832 -9.83363 215.537 -14.9281 213.381C-18.0762 211.606 -22.3452 207.821 -22.3452 207.821C-22.3452 207.821 -10.9568 203.298 -9.36528 202.804C4.16399 198.602 17.034 192.494 28.297 183.657C38.7203 175.479 49.6953 165.96 57.883 155.437Z" fill="#19252D"/>
<path d="M63.231 92.0421C66.5141 87.9053 68.5244 82.6903 70.8182 78V170.519H48.0417C43.5314 173.846 31.0027 173.993 28.0819 173.651C26.2929 174.096 25.213 173.902 23.2818 173.497C19.4738 172.697 15.3939 171.988 11.7719 170.519C9.02247 169.403 11.482 169.774 13.1138 169.492C15.7595 168.96 21.6726 167.548 24.1592 166.155C24.1592 166.155 17.6395 166.65 14.8171 166.36C5.72873 165.425 -2.98602 162.02 -10.706 157.247C-14.2315 155.067 -15.6918 151.936 -15.6918 151.936C-15.6918 151.936 -2.59785 152.528 1.42329 152.164C7.80062 151.587 14.1878 150.993 20.0817 148.185C25.7632 145.478 32.7346 141.708 37.2692 137.198C38.025 136.446 36.6404 136.684 36.1853 136.684C33.3219 136.684 30.1751 136.357 27.3593 135.863C25.5317 135.542 20.0323 134.836 21.8882 134.836C26.5158 134.836 32.0372 134.17 36.2885 132.32C38.597 131.315 40.5627 130.093 42.4822 128.469C30.258 130.969 20.8207 128.946 17.6301 127.622C15.6584 126.533 12.9848 124.208 12.9848 124.208C12.9848 124.208 20.1173 121.431 21.114 121.127C29.5873 118.547 37.6477 114.796 44.7016 109.37C51.2295 104.348 58.1031 98.5032 63.231 92.0421Z" fill="#19252D"/>
<path d="M54.0357 257.934C60.9427 249.06 65.1719 237.873 69.9976 227.812V426.277H58.6227C58.6227 426.277 -18.2777 434.355 -30.0084 432.665C-41.7391 430.974 -46.6027 429.429 -54.2226 426.277C-60.0067 423.884 -54.8324 424.68 -51.3994 424.074C-45.8335 422.933 -33.3938 419.904 -28.1624 416.915C-28.1624 416.915 -41.8785 417.979 -47.8162 417.356C-66.936 415.35 -85.2699 408.047 -101.511 397.807C-108.928 393.13 -112 386.414 -112 386.414C-112 386.414 -84.4533 387.683 -75.9937 386.903C-62.5772 385.666 -49.1401 384.392 -36.7406 378.368C-24.7881 372.561 -10.1218 364.475 -0.582085 354.798C1.00792 353.186 -1.90483 353.697 -2.86235 353.697C-8.88618 353.697 -15.5064 352.995 -21.4302 351.935C-25.2751 351.247 -36.8445 349.732 -32.9401 349.732C-23.2048 349.732 -11.589 348.304 -2.64518 344.335C2.21144 342.18 6.34681 339.559 10.3849 336.075C-15.332 341.438 -35.186 337.098 -41.8983 334.258C-46.0462 331.92 -51.6709 326.934 -51.6709 326.934C-51.6709 326.934 -36.6658 320.977 -34.5689 320.326C-16.7431 314.791 0.21418 306.745 15.054 295.105C28.7874 284.332 43.2478 271.794 54.0357 257.934Z" fill="#19252D"/>
<path d="M78.4101 92.0421C75.127 87.9053 73.1167 82.6903 70.8229 78V170.519H93.5994C98.1097 173.846 110.638 173.993 113.559 173.651C115.348 174.096 116.428 173.902 118.359 173.497C122.167 172.697 126.247 171.988 129.869 170.519C132.619 169.403 130.159 169.774 128.527 169.492C125.882 168.96 119.969 167.548 117.482 166.155C117.482 166.155 124.002 166.65 126.824 166.36C135.912 165.425 144.627 162.02 152.347 157.247C155.873 155.067 157.333 151.936 157.333 151.936C157.333 151.936 144.239 152.528 140.218 152.164C133.84 151.587 127.453 150.993 121.559 148.185C115.878 145.478 108.907 141.708 104.372 137.198C103.616 136.446 105.001 136.684 105.456 136.684C108.319 136.684 111.466 136.357 114.282 135.863C116.109 135.542 121.609 134.836 119.753 134.836C115.125 134.836 109.604 134.17 105.353 132.32C103.044 131.315 101.078 130.093 99.1589 128.469C111.383 130.969 120.82 128.946 124.011 127.622C125.983 126.533 128.656 124.208 128.656 124.208C128.656 124.208 121.524 121.431 120.527 121.127C112.054 118.547 103.993 114.796 96.9395 109.37C90.4116 104.348 83.538 98.5032 78.4101 92.0421Z" fill="#19252D"/>
<path d="M82.1169 155.437C76.8747 148.701 73.6649 140.208 70.0023 132.569V283.24H106.37C113.571 288.658 133.576 288.897 138.24 288.34C141.096 289.064 142.82 288.75 145.904 288.089C151.984 286.786 158.498 285.633 164.282 283.24C168.672 281.423 164.745 282.027 162.139 281.567C157.915 280.701 148.473 278.402 144.503 276.132C144.503 276.132 154.913 276.94 159.419 276.467C173.931 274.944 187.846 269.4 200.172 261.626C205.801 258.075 208.133 252.977 208.133 252.977C208.133 252.977 187.226 253.94 180.805 253.348C170.623 252.409 160.424 251.441 151.013 246.868C141.942 242.459 130.811 236.321 123.57 228.975C122.363 227.751 124.574 228.139 125.301 228.139C129.873 228.139 134.897 227.606 139.393 226.801C142.311 226.278 151.092 225.129 148.129 225.129C140.74 225.129 131.924 224.045 125.136 221.032C121.45 219.396 118.311 217.405 115.247 214.761C134.765 218.832 149.834 215.537 154.928 213.381C158.076 211.606 162.345 207.821 162.345 207.821C162.345 207.821 150.957 203.298 149.365 202.804C135.836 198.602 122.966 192.494 111.703 183.657C101.28 175.479 90.3046 165.96 82.1169 155.437Z" fill="#19252D"/>
<path d="M85.9642 257.934C79.0572 249.06 74.828 237.873 70.0023 227.812V426.277H85.9642C95.4529 433.414 153.765 433.729 159.91 432.995C163.674 433.949 165.945 433.535 170.008 432.665C178.019 430.948 186.603 429.429 194.222 426.277C200.007 423.884 194.832 424.68 191.399 424.074C185.833 422.933 173.394 419.904 168.162 416.915C168.162 416.915 181.878 417.979 187.816 417.356C206.936 415.35 225.27 408.047 241.511 397.807C248.928 393.13 252 386.414 252 386.414C252 386.414 224.453 387.683 215.994 386.903C202.577 385.666 189.14 384.392 176.74 378.368C164.788 372.561 150.122 364.475 140.582 354.798C138.992 353.186 141.905 353.697 142.862 353.697C148.886 353.697 155.506 352.995 161.43 351.935C165.275 351.247 176.844 349.732 172.94 349.732C163.205 349.732 151.589 348.304 142.645 344.335C137.788 342.18 133.653 339.559 129.615 336.075C155.332 341.438 175.186 337.098 181.898 334.258C186.046 331.92 191.671 326.934 191.671 326.934C191.671 326.934 176.666 320.977 174.569 320.326C156.743 314.791 139.786 306.745 124.946 295.105C111.212 284.332 96.7521 271.794 85.9642 257.934Z" fill="#19252D"/>
<path d="M427.553 90.6623C450.553 106.663 401.954 164.653 385 174.805C385 174.805 359.041 183.508 346.058 174.805C333.075 166.103 297.106 142.803 300.053 113.662C303 84.5219 315.393 49.815 331 73.6242C327.46 68.2234 332.766 51.8127 336.553 21.6625C340.339 -8.48772 396.932 -1.33047 406.054 11.1625C427.553 45.1627 409.044 77.7858 427.553 90.6623Z" fill="#1ACCCB"/>
<path d="M432.651 102.388C408.074 86.2439 396.377 162.235 402.412 186.974C408.447 211.713 422.594 230.702 422.594 230.702C440.534 238.777 483.32 250.484 504.399 228.125C525.478 205.765 502.363 194.663 502.363 194.663C502.363 194.663 523.477 161.804 520.622 147.571C516.428 126.659 484.969 150.959 466.803 136.518C453.137 125.656 457.227 118.532 432.651 102.388Z" fill="#1ACCCB"/>
<path d="M422.612 214.249C404.347 222.154 400.435 385.43 402.852 402.03L382.23 402.03L390.959 256.645L364.162 194.375L378.722 153.875L369.369 130.19C354.305 88.8182 344.84 55.9832 383.186 143.42C387.781 125.785 393.282 105.284 393.282 105.284C393.282 105.284 397.126 110.57 394.919 119.939L388.355 156.509L374.052 190.407C380.444 211.43 393.992 249.125 397.051 231.724C400.109 214.323 411.756 203.682 417.197 200.536C422.978 190.996 434.969 170.589 436.691 165.277C438.412 159.965 435.439 158.077 433.737 157.797L433.737 145.168C433.737 145.168 436.127 146.441 443.628 153.83C451.128 161.218 438.588 181.364 431.38 190.514C433.578 189.632 439.641 185.322 446.313 175.136C452.984 164.95 482.846 146.76 482.846 146.76L482.18 151.895C482.18 151.895 457.599 173.896 454.457 181.255C448.505 195.196 445.443 204.367 422.612 214.249Z" fill="#1C215D" fill-opacity="0.5"/>
</svg>
