<svg width="518" height="542" viewBox="0 0 518 542" fill="none" xmlns="http://www.w3.org/2000/svg">
<path d="M228.581 193.243C253.158 177.099 264.855 253.09 258.82 277.829C252.784 302.568 246.521 304.902 228.581 312.977C210.642 321.052 177.912 341.339 156.833 318.98C135.754 296.62 169.371 290.787 167.5 277.829C164.405 256.399 130.145 250.71 133 236.477C137.194 215.566 158.958 195.311 186 189.477C208 184.731 204.005 209.388 228.581 193.243Z" fill="#1ACCCB"/>
<path d="M368.673 170.198C390.777 185.575 327.795 230.22 311.5 239.977C295.206 249.734 275.706 244.367 275.706 244.367C263.228 236.003 212.667 210.985 215.499 182.979C218.331 154.973 245 117.597 259.999 140.48C256.596 135.289 262.931 126.163 266.57 97.1869C270.209 68.2108 324.599 75.0893 333.365 87.0959C354.027 119.772 350.884 157.822 368.673 170.198Z" fill="#1ACCCB"/>
<path d="M238.62 305.104C256.885 313.01 260.797 476.285 258.38 492.885L279.002 492.885L270.273 347.5L297.07 285.231L282.51 244.731L291.863 221.045C306.927 179.674 316.392 146.839 278.046 234.275C273.451 216.641 267.95 196.139 267.95 196.139C267.95 196.139 264.106 201.425 266.313 210.795L272.877 247.365L287.18 281.263C280.788 302.286 267.24 339.981 264.181 322.58C261.123 305.179 249.476 294.537 244.035 291.391C238.254 281.852 226.263 261.444 224.541 256.133C222.819 250.821 225.793 248.933 227.495 248.653L227.495 236.023C227.495 236.023 225.105 237.297 217.604 244.685C210.104 252.073 222.644 272.22 229.852 281.369C227.654 280.487 221.591 276.177 214.919 265.992C208.248 255.806 178.386 237.616 178.386 237.616L179.052 242.751C179.052 242.751 203.633 264.752 206.775 272.111C212.727 286.051 215.789 295.222 238.62 305.104Z" fill="#1C215D" fill-opacity="0.5"/>
<path d="M443.15 473.449H418.654V532H443.15V473.449Z" fill="#2E3642"/>
<path d="M426.261 267.956L426.265 267.942C426.675 266.61 427.081 265.289 427.5 264C427.919 265.289 428.325 266.61 428.735 267.942L428.739 267.956C430.111 272.417 431.518 276.988 433.524 280.795C437.596 288.523 443.053 295.515 448.236 301.521C453.837 308.011 460.236 312.498 466.964 315.584C467.755 315.947 473.418 319.269 473.418 319.269C473.418 319.269 471.296 322.049 469.73 323.352C467.197 324.936 459.703 327.355 449.998 324.365C451.522 326.308 453.083 327.769 454.916 328.971C458.291 331.184 462.675 331.98 466.349 331.98C467.39 331.98 465.52 332.401 463.819 332.784C463.11 332.942 462.433 333.095 462.005 333.208C459.77 333.799 457.27 334.191 454.998 334.191C454.936 334.191 454.853 334.182 454.76 334.173L454.757 334.173C454.307 334.127 453.641 334.06 454.138 334.805C457.738 340.2 463.273 344.709 467.784 347.946C472.463 351.305 477.535 352.016 482.598 352.706C485.791 353.141 496.186 352.433 496.186 352.433C496.186 352.433 495.027 356.178 492.228 358.785C486.099 364.495 479.18 368.567 471.964 369.685C469.723 370.033 464.547 369.44 464.547 369.44C466.52 371.106 471.215 372.795 473.316 373.431C473.683 373.527 474.102 373.56 474.465 373.588L474.469 373.589C475.387 373.66 475.946 373.704 474.381 374.659C471.93 376.158 469.215 376.994 466.594 377.801L465.243 378.221C463.709 378.706 462.852 378.937 461.432 378.405C459.738 378.704 453.972 378.691 449.591 377.11C451.333 379.279 453.09 381.369 454.821 383.376C462.2 391.925 470.633 397.835 479.496 401.9C480.54 402.378 488.001 406.753 488.001 406.753C488.001 406.753 485.204 410.416 483.141 412.132C479.804 414.218 469.932 417.405 457.142 413.467C459.151 416.025 461.208 417.951 463.623 419.533C468.069 422.449 473.845 423.497 478.687 423.497C480.058 423.497 477.589 424.052 475.347 424.556L475.336 424.559L475.324 424.562C474.401 424.769 473.519 424.968 472.963 425.115C470.018 425.894 466.726 426.409 463.73 426.409C463.648 426.409 463.536 426.399 463.414 426.386C462.821 426.326 461.943 426.238 462.597 427.218C467.34 434.325 474.633 440.264 480.576 444.528C486.742 448.953 493.424 449.889 500.096 450.797C504.302 451.37 518 450.438 518 450.438C518 450.438 516.472 455.371 512.784 458.805C504.708 466.326 495.592 471.69 486.083 473.163C483.131 473.621 476.312 472.839 476.312 472.839C478.913 475.035 485.098 477.259 487.866 478.097C488.351 478.224 488.904 478.267 489.385 478.304L489.385 478.304L489.386 478.304C490.595 478.399 491.329 478.457 489.269 479.715C486.037 481.69 482.456 482.793 479.001 483.856C478.405 484.039 477.815 484.222 477.229 484.407C475.209 485.046 474.079 485.35 472.207 484.649C469.798 485.075 451.247 485.02 441.202 482.405L417.94 480.304C408.048 481.772 382.456 485.404 377.771 484.407C371.938 483.165 369.519 482.031 365.731 479.715C363.671 478.457 364.405 478.399 365.614 478.304L365.615 478.304L365.615 478.304C366.096 478.267 366.649 478.224 367.134 478.097C369.902 477.259 376.087 475.035 378.688 472.839C378.688 472.839 371.869 473.621 368.917 473.163C359.408 471.69 350.292 466.326 342.216 458.805C338.528 455.371 337 450.438 337 450.438C337 450.438 350.698 451.37 354.904 450.797C361.576 449.889 368.258 448.953 374.424 444.528C380.367 440.264 387.66 434.325 392.403 427.218C393.057 426.238 392.179 426.326 391.586 426.386C391.464 426.399 391.352 426.409 391.27 426.409C388.274 426.409 384.982 425.894 382.037 425.115C381.485 424.968 380.606 424.771 379.688 424.564L379.675 424.562L379.664 424.559L379.653 424.556C377.411 424.052 374.942 423.497 376.313 423.497C381.155 423.497 386.931 422.449 391.377 419.533C393.792 417.951 395.849 416.025 397.858 413.467C385.068 417.405 375.196 414.218 371.859 412.132C369.796 410.416 366.999 406.753 366.999 406.753C366.999 406.753 374.46 402.378 375.504 401.9C384.367 397.835 392.8 391.925 400.179 383.376C401.91 381.369 403.667 379.279 405.409 377.11C401.028 378.691 395.262 378.704 393.568 378.405C392.148 378.937 391.291 378.706 389.757 378.221L388.406 377.801C385.785 376.994 383.07 376.158 380.619 374.659C379.054 373.704 379.613 373.66 380.531 373.589L380.535 373.588C380.898 373.56 381.317 373.527 381.684 373.431C383.785 372.795 388.48 371.106 390.453 369.44C390.453 369.44 385.277 370.033 383.036 369.685C375.82 368.567 368.901 364.495 362.772 358.785C359.973 356.178 358.814 352.433 358.814 352.433C358.814 352.433 369.209 353.141 372.402 352.706C377.465 352.016 382.537 351.305 387.216 347.946C391.727 344.709 397.262 340.2 400.862 334.805C401.359 334.06 400.693 334.127 400.243 334.173L400.24 334.173C400.147 334.182 400.064 334.191 400.002 334.191C397.73 334.191 395.23 333.799 392.995 333.208C392.567 333.095 391.89 332.942 391.181 332.784C389.48 332.401 387.61 331.98 388.651 331.98C392.325 331.98 396.709 331.184 400.084 328.971C401.917 327.769 403.478 326.308 405.002 324.365C395.297 327.355 387.803 324.936 385.27 323.352C383.704 322.049 381.582 319.269 381.582 319.269C381.582 319.269 387.245 315.947 388.036 315.584C394.764 312.498 401.163 308.011 406.764 301.521C411.947 295.515 417.404 288.523 421.476 280.795C423.482 276.988 424.889 272.417 426.261 267.956Z" fill="#2E3642"/>
</svg>
