<svg xmlns="http://www.w3.org/2000/svg" version="1.0" width="220" height="45"><path fill="#49266c" d="M130.176 13.643V9.23h-15.747V31.94h15.747v-4.607h-9.372V22.3h7.795v-4.41h-7.795v-4.247h9.372M157.944 27.459h-9.838V9.229h-6.454V31.94h16.292v-4.482M209.925 17.884c-4.355-.98-5.88-1.095-5.88-2.827 0-1.608 2.158-2.108 3.4-2.108 2.007 0 4.378.468 6.795 1.707l1.757-4.18c-2.477-1.35-5.654-1.911-8.71-1.911-6.006 0-10.036 2.436-10.205 7.187-.172 4.332 3.35 5.953 6.588 6.621 3.121.645 6.287 1.197 6.351 3.051.058 1.71-1.48 2.442-4.381 2.442-2.688 0-5.186-.863-7.739-1.933l-1.492 4.543c2.935 1.248 5.914 1.936 8.985 1.936 4.266 0 7.38-.666 9.672-2.818 1.588-1.477 2.109-3.26 2.109-4.963.003-3.59-2.235-5.613-7.25-6.747M105.273 13.712V9.23H85.466v4.483h6.692v18.229h6.415V13.712h6.7M179.963 9.229v14.43c0 1.13 0 1.443-.068 1.883-.207 1.375-1.54 2.173-3.665 2.201-1.574-.025-2.727-.49-3.264-1.313-.27-.423-.402-1.183-.402-2.396V9.229h-6.693V24.88c0 2.169.29 3.148 1.269 4.386 1.616 2.02 4.766 3.082 9.103 3.082h.237c5.807 0 8.807-2.265 9.673-4.384.433-1.027.465-1.513.465-3.587V9.228h-6.655M88.49 3.01l-37.537 7.473v2.618l.12-.03C75.87 7.042 88.489 3.416 88.59 3.39c.14-.036.19-.145.17-.237-.021-.097-.122-.177-.272-.144"/><path d="M56.688 4.631v-.003.003m1.283-2.335c-1.825.104-5.203 2.806-7.058 4.411-7.385 6.39-12.876 12.262-16.868 18.413-8.323 4.458-18.936 9.042-29.472 12.62l-.254.086-2.028 5.46 1.158-.447c6.703-2.554 17.89-7.351 28.03-12.684-.57 1.523-.858 2.923-.858 4.2 0 .952.16 1.837.477 2.641.638 1.607 1.895 2.824 3.637 3.516 2.596 1.035 6.136 1.054 10.176-.169C55.231 37.215 67.474 27.61 70.14 25.7l.102-.072c.105-.076.112-.19.068-.267-.058-.088-.18-.112-.282-.05l-.131.08c-2.86 1.716-16.76 9.968-25.794 12.391-4.602 1.235-8.109.56-9.431-1.29-.46-.632-.68-1.431-.68-2.364 0-1.821.856-4.14 2.507-6.716 1.52-.865 2.939-1.71 4.218-2.514 8.814-4.953 18.968-14.584 19.402-20.463.002-.04.002-.087.002-.13 0-.508-.22-1.03-.605-1.415a1.95 1.95 0 0 0-1.544-.594zm-.983 2.802c.579-.375.745-.14.575.282-.275.675-1.548 4.736-10.997 12.493-2.465 2.02-4.219 3.154-7.77 5.256C44.611 14.981 53.1 7.623 56.988 5.098z" fill="#6ebe44"/><path fill="#49266c" d="M50.83 10.508L11.34 18.997l-1.524 4.107L50.953 13.1l1.273-.718-.036-1.87-1.36-.004"/></svg>