<svg width="16" height="18" viewBox="0 0 16 18" fill="none" xmlns="http://www.w3.org/2000/svg">
<path d="M5.71429 14.2143C5.71429 14.4152 5.55804 14.5714 5.35714 14.5714H4.64286C4.44196 14.5714 4.28571 14.4152 4.28571 14.2143V6.35714C4.28571 6.15625 4.44196 6 4.64286 6H5.35714C5.55804 6 5.71429 6.15625 5.71429 6.35714V14.2143ZM8.57143 14.2143C8.57143 14.4152 8.41518 14.5714 8.21429 14.5714H7.5C7.29911 14.5714 7.14286 14.4152 7.14286 14.2143V6.35714C7.14286 6.15625 7.29911 6 7.5 6H8.21429C8.41518 6 8.57143 6.15625 8.57143 6.35714V14.2143ZM11.4286 14.2143C11.4286 14.4152 11.2723 14.5714 11.0714 14.5714H10.3571C10.1562 14.5714 10 14.4152 10 14.2143V6.35714C10 6.15625 10.1562 6 10.3571 6H11.0714C11.2723 6 11.4286 6.15625 11.4286 6.35714V14.2143ZM5.35714 3.14286L5.90402 1.83705C5.9375 1.79241 6.02679 1.72545 6.09375 1.71429H9.6317C9.6875 1.72545 9.78795 1.79241 9.82143 1.83705L10.3571 3.14286H5.35714ZM15.7143 3.5C15.7143 3.29911 15.558 3.14286 15.3571 3.14286H11.9085L11.1272 1.27902C10.904 0.732143 10.2344 0.285713 9.64286 0.285713H6.07143C5.47991 0.285713 4.81027 0.732143 4.58705 1.27902L3.8058 3.14286H0.357143C0.15625 3.14286 0 3.29911 0 3.5V4.21429C0 4.41518 0.15625 4.57143 0.357143 4.57143H1.42857V15.1964C1.42857 16.4241 2.23214 17.4286 3.21429 17.4286H12.5C13.4821 17.4286 14.2857 16.3795 14.2857 15.1518V4.57143H15.3571C15.558 4.57143 15.7143 4.41518 15.7143 4.21429V3.5Z" fill="#9195A5"/>
</svg>
