<svg width="19" height="20" viewBox="0 0 19 20" fill="none" xmlns="http://www.w3.org/2000/svg">
<path d="M18.7902 1.37946C18.6562 1.07143 18.3482 0.857142 18 0.857142H0.857143C0.508929 0.857142 0.200893 1.07143 0.0669643 1.37946C-0.0669643 1.70089 0 2.07589 0.254464 2.31696L6.85714 8.91964V15.4286C6.85714 15.6562 6.95089 15.8705 7.11161 16.0312L10.5402 19.4598C10.7009 19.6339 10.9152 19.7143 11.1429 19.7143C11.25 19.7143 11.3705 19.6875 11.4777 19.6473C11.7857 19.5134 12 19.2054 12 18.8571V8.91964L18.6027 2.31696C18.8571 2.07589 18.9241 1.70089 18.7902 1.37946Z" fill="#828282"/>
</svg>
