<svg width="96" height="129" viewBox="0 0 96 129" fill="none" xmlns="http://www.w3.org/2000/svg">
<path fill-rule="evenodd" clip-rule="evenodd" d="M0 0V36.4044L14.4022 22.3997L11.2182 19.3177L4.40192 25.8893V10.3513L31.2343 36.4044V0L26.8356 4.22394V25.8893L0 0Z" transform="scale(3)" fill="#000581"/>
<path d="M2.29338 0.0443771V2.84013L0.668196 0.0443771H0V3.92737H0.622895V1.14271L2.24808 3.92737H2.91628V0.0443771H2.29338Z" transform="translate(0 117) scale(3)" fill="#000581"/>
<path d="M8.72986 0.0443771L8.00504 3.06202L7.21793 0.454865H6.65166L5.86455 3.06202L5.13972 0.0443771H4.48285L5.53045 3.92737H6.16467L6.93479 1.46444L7.70492 3.92737H8.33914L9.38673 0.0443771H8.72986Z" transform="translate(0 117) scale(3)" fill="#000581"/>
<path d="M10.8426 3.92737H11.4655V2.14119H13.0737V3.92737H13.6966V0.0443771H13.0737V1.56429H11.4655V0.0443771H10.8426V3.92737Z" transform="translate(0 117) scale(3)" fill="#000581"/>
<path d="M16.4895 0.0443771L15.1135 3.92737H15.7477L16.0761 2.96217H17.4918L17.8202 3.92737H18.4545L17.0784 0.0443771H16.4895ZM16.784 0.815428L17.3049 2.38527H16.263L16.784 0.815428Z" transform="translate(0 117) scale(3)" fill="#000581"/>
<path d="M23.0707 1.17599C22.8668 0.44377 22.3119 0 21.4682 0C20.5112 0 19.6334 0.671203 19.6334 1.98587C19.6334 3.30054 20.5112 3.97175 21.4682 3.97175C22.3119 3.97175 22.8668 3.52797 23.0707 2.79575L22.4818 2.65153C22.2836 3.14522 22.0061 3.39484 21.4682 3.39484C20.8 3.39484 20.2677 2.93443 20.2677 1.98587C20.2677 1.03731 20.8 0.576902 21.4682 0.576902C22.0061 0.576902 22.2836 0.826522 22.4818 1.32022L23.0707 1.17599Z" transform="translate(0 117) scale(3)" fill="#000581"/>
<path d="M24.6512 0.0443771V3.92737H25.2741V2.0247L26.7804 3.92737H27.5788L25.8517 1.78063L27.4486 0.0443771H26.6898L25.2741 1.53656V0.0443771H24.6512Z" transform="translate(0 117) scale(3)" fill="#000581"/>
<path d="M31.1102 0.654562C30.9007 0.288451 30.5609 0 30.0173 0C29.4397 0 28.981 0.432676 28.981 1.02067C28.981 2.21885 30.6685 2.05244 30.6685 2.8124C30.6685 3.15632 30.4193 3.39484 30.0626 3.39484C29.6096 3.39484 29.3774 3.00654 29.2642 2.57387L28.7545 2.89005C28.8961 3.51133 29.3661 3.97175 30.0626 3.97175C30.7761 3.97175 31.3027 3.50024 31.3027 2.79021C31.3027 1.59203 29.6039 1.7418 29.6039 0.976295C29.6039 0.748863 29.7625 0.554713 30.0173 0.554713C30.2495 0.554713 30.4477 0.687844 30.6062 0.981842L31.1102 0.654562Z" transform="translate(0 117) scale(3)" fill="#000581"/>
</svg>
