<svg xmlns="http://www.w3.org/2000/svg" viewBox="0 0 392.79 688"><defs><style>.cls-1{fill:#265a8f;}.cls-2{fill:#1d486b;}.cls-3{fill:#fff;}</style></defs><title>Blue</title><g id="Blue"><g id="Trust_Badge_Blue_" data-name="Trust Badge (Blue)"><path id="Background_Bottom_" data-name="Background (Bottom)" class="cls-1" d="M21.78,267.74c0-2.61,5.56-3.74,9.27-3.74H363.3c3.71,0,4.47,1.14,4.47,3.74V622a7.43,7.43,0,0,1-4.85,6.92l-159,58.15a19.62,19.62,0,0,1-11.72,0L28.9,628.93c-3.31-1.19-7.13-4.29-7.13-6.89Z"/><g id="Official_Plate" data-name="Official Plate"><polygon id="Shadow" class="cls-2" points="355.89 390.68 355.89 350.02 34.24 350.02 355.89 390.68"/><path id="Plate_Background" data-name="Plate Background" class="cls-3" d="M377.07,332.51s-159.77,52.82-361.36,0V229.73c186,48.41,361.36,0,361.36,0Z"/><path id="Plate_Border" data-name="Plate Border" class="cls-1" d="M377.07,229.73V332.51S306.05,356,199,356A723.55,723.55,0,0,1,15.71,332.51V229.73c62,16.14,122.8,21.52,176.33,21.52,107.07,0,185-21.52,185-21.52m15.58-20.46-19.72,5.44c-.84.23-77.47,21-180.88,21-60.84,0-118.85-7.07-172.41-21L.13,209.57v135l11.63,3a739.08,739.08,0,0,0,187.23,24c108.32,0,180-23.27,183-24.26l10.69-3.53V209.26Z"/><g id="Official"><path class="cls-1" d="M75.44,269.91a7.84,7.84,0,0,1,3,1.21,8.45,8.45,0,0,1,2.2,2.13A8.32,8.32,0,0,1,81.86,276a7.48,7.48,0,0,1,.11,3.16l-5.52,31.2a7.11,7.11,0,0,1-1.22,2.93A8.55,8.55,0,0,1,73,315.51a8.05,8.05,0,0,1-3,1.18,9.07,9.07,0,0,1-3.41,0Q53.77,314.25,41,311.36A9.13,9.13,0,0,1,37.89,310a8.46,8.46,0,0,1-2.3-2.29,7.75,7.75,0,0,1-1.2-2.91,7.41,7.41,0,0,1,.08-3.16l7.4-30.81A7.8,7.8,0,0,1,43.2,268a7.55,7.55,0,0,1,2.27-2,8.94,8.94,0,0,1,2.91-1.06,7.87,7.87,0,0,1,3.2.07Q63.47,267.64,75.44,269.91Zm-6.27,10.56q-8.07-1.58-16.11-3.36L47.77,301q8.33,1.84,16.69,3.48Z"/><path class="cls-1" d="M130,278.29a1.25,1.25,0,0,1,.28,1l-.93,8.93a1.23,1.23,0,0,1-.48.87,1.3,1.3,0,0,1-1,.27q-11.62-1.23-23.2-2.87c-.23,0-.36,0-.38.22l-1,7.34a.31.31,0,0,0,.3.39q8.89,1.25,17.79,2.28a1.21,1.21,0,0,1,.87.48,1.29,1.29,0,0,1,.25,1l-1,8.45a1.27,1.27,0,0,1-.46.87,1.23,1.23,0,0,1-1,.27q-9.05-1-18.08-2.31a.31.31,0,0,0-.4.29L99.44,320.8q-.18,1.28-1.56,1.08-5-.72-10-1.52-1.38-.22-1.18-1.5l7.12-44.45a1.15,1.15,0,0,1,1.49-1.07q16.86,2.67,33.81,4.47A1.27,1.27,0,0,1,130,278.29Z"/><path class="cls-1" d="M173.38,281.42a1.25,1.25,0,0,1,.34.93l-.35,9a1.23,1.23,0,0,1-.42.9,1.29,1.29,0,0,1-1,.34q-11.66-.47-23.31-1.35c-.23,0-.35.06-.37.24l-.56,7.39a.3.3,0,0,0,.33.37q8.93.67,17.88,1.11a1.21,1.21,0,0,1,.9.42,1.29,1.29,0,0,1,.31.93l-.4,8.49a1.27,1.27,0,0,1-.4.9,1.23,1.23,0,0,1-.95.33q-9.09-.45-18.16-1.13c-.24,0-.37.09-.38.31l-1.16,15.26q-.1,1.29-1.49,1.18-5.05-.39-10.1-.86-1.39-.13-1.27-1.42l4.21-44.82a1.15,1.15,0,0,1,1.42-1.17q17,1.56,34,2.25A1.27,1.27,0,0,1,173.38,281.42Z"/><path class="cls-1" d="M192.18,327.83q0,1.29-1.41,1.28-5.06-.06-10.12-.2-1.39,0-1.36-1.33l1.28-45a1.15,1.15,0,0,1,1.34-1.26q4.72.13,9.45.18a1.15,1.15,0,0,1,1.29,1.31Z"/><path class="cls-1" d="M215.92,293.27a1.13,1.13,0,0,0-.36.89l.51,22a1.1,1.1,0,0,0,.42.87,1.44,1.44,0,0,0,1,.32q11.58-.29,23.15-1a1.38,1.38,0,0,1,1,.32,1.22,1.22,0,0,1,.45.89l.54,9a1.2,1.2,0,0,1-.35.94,1.4,1.4,0,0,1-1,.43q-7.66.45-15.32.73-6.31.23-12.61.35l-1.32,0a9,9,0,0,1-3.34-.56,8.41,8.41,0,0,1-2.76-1.67,7.73,7.73,0,0,1-1.84-2.54,7.45,7.45,0,0,1-.67-3.09V320l0-5-.08-15.84,0-4.42,0-5.24a7.85,7.85,0,0,1,.6-3.1,7.54,7.54,0,0,1,1.7-2.53,8.85,8.85,0,0,1,2.56-1.73,7.74,7.74,0,0,1,3.11-.69l1.23,0q13-.25,26.07-1a1.27,1.27,0,0,1,.95.32,1.25,1.25,0,0,1,.43.89l.54,9a1.23,1.23,0,0,1-.33.94,1.29,1.29,0,0,1-.92.43q-11.17.65-22.35.93A1.37,1.37,0,0,0,215.92,293.27Z"/><path class="cls-1" d="M267.09,324.68q.12,1.29-1.27,1.42-5,.47-10.09.87-1.39.11-1.49-1.18L250.8,280.9a1.15,1.15,0,0,1,1.2-1.39q4.71-.37,9.42-.81a1.15,1.15,0,0,1,1.42,1.16Z"/><path class="cls-1" d="M305.38,273.14a7.83,7.83,0,0,1,3.19.14,8.47,8.47,0,0,1,2.79,1.26,8.34,8.34,0,0,1,2.13,2.19,7.49,7.49,0,0,1,1.18,2.94l6.53,37.79a1.2,1.2,0,0,1-.24,1,1.4,1.4,0,0,1-.92.54q-5,.86-10.09,1.65a1.4,1.4,0,0,1-1-.22,1.2,1.2,0,0,1-.54-.85l-1.85-12a1.27,1.27,0,0,0-.5-.85,1.24,1.24,0,0,0-1-.23q-7.05,1.07-14.12,2a1.36,1.36,0,0,0-.92.5,1.21,1.21,0,0,0-.28,1L291.28,322q.17,1.28-1.22,1.46-5,.64-10.07,1.21-1.39.16-1.53-1.13l-4.23-38.12a7.85,7.85,0,0,1,.28-3.14,7.55,7.55,0,0,1,1.43-2.69,8.89,8.89,0,0,1,2.36-2,7.82,7.82,0,0,1,3-1Q293.38,275.06,305.38,273.14Zm-.62,23-1.82-11.83q-8.1,1.25-16.23,2.3l1.54,11.87Q296.51,297.43,304.76,296.16Z"/><path class="cls-1" d="M362.72,298.45a1.26,1.26,0,0,1,1.57,1l2.1,8.73a1.25,1.25,0,0,1-.14,1,1.28,1.28,0,0,1-.85.59q-15.52,3.69-31.15,6.69-1.38.26-1.62-1l-8.38-44.23a1.15,1.15,0,0,1,1-1.51q4.66-.89,9.31-1.85a1.15,1.15,0,0,1,1.54,1L343,301.6a1.1,1.1,0,0,0,.57.78,1.45,1.45,0,0,0,1,.13Q353.67,300.61,362.72,298.45Z"/></g></g><g id="Background_Top_" data-name="Background (Top)"><path class="cls-1" d="M392.9,209.24,373,199.37,372.78,0h-355l.38,201L-.11,210l18.27,12.69V223h.41l1.12.78.08-.78h6.16s170.42,51.17,344.48.78H373V223l.11,0Z"/></g><g id="_2019_Season" data-name="2019 Season"><g id="Season"><path class="cls-3" d="M87.94,561.43a7.44,7.44,0,0,1,2.5,1.69,8.73,8.73,0,0,1,1.69,2.5,7.29,7.29,0,0,1,.64,3v12.69a7.53,7.53,0,0,1-.64,3.07,8.58,8.58,0,0,1-1.69,2.53,7.43,7.43,0,0,1-2.5,1.69,7.87,7.87,0,0,1-3.07.61H57.94A1.13,1.13,0,0,1,56.66,588v-8.17a1.27,1.27,0,0,1,1.28-1.28H80.89a1.3,1.3,0,0,0,.91-.34,1.13,1.13,0,0,0,.37-.88v-5.6a1.27,1.27,0,0,0-1.28-1.28H64.55a7.88,7.88,0,0,1-3.07-.61A7.79,7.79,0,0,1,59,568.11a7.89,7.89,0,0,1-1.69-2.5,7.62,7.62,0,0,1-.61-3V549.89a7.87,7.87,0,0,1,.61-3.07,7.43,7.43,0,0,1,1.69-2.5,8.6,8.6,0,0,1,2.53-1.69,7.53,7.53,0,0,1,3.07-.64H90a1.13,1.13,0,0,1,1.28,1.28v8.3a1.13,1.13,0,0,1-.37.88,1.3,1.3,0,0,1-.91.34H68.47a1.13,1.13,0,0,0-.88.37,1.3,1.3,0,0,0-.34.91v5.47a1.3,1.3,0,0,0,.34.91,1.13,1.13,0,0,0,.88.37h16.4A7.87,7.87,0,0,1,87.94,561.43Z"/><path class="cls-3" d="M138.76,542.37a1.24,1.24,0,0,1,.37.91v8.5a1.13,1.13,0,0,1-.37.88,1.3,1.3,0,0,1-.91.34H115.24a.3.3,0,0,0-.34.34v7.36c0,.18.11.27.34.27h19.3a1.14,1.14,0,0,1,.88.37,1.31,1.31,0,0,1,.34.91V569a1.3,1.3,0,0,1-.34.91,1.13,1.13,0,0,1-.88.37h-19.3a.3.3,0,0,0-.34.34v7.29a.3.3,0,0,0,.34.34h22.61a1.27,1.27,0,0,1,1.28,1.28V588a1.27,1.27,0,0,1-1.28,1.28H104.3A1.13,1.13,0,0,1,103,588V543.28A1.27,1.27,0,0,1,104.3,542h33.54A1.24,1.24,0,0,1,138.76,542.37Z"/><path class="cls-3" d="M181.58,542a7.53,7.53,0,0,1,3.07.64,7.93,7.93,0,0,1,4.18,4.18,7.53,7.53,0,0,1,.64,3.07V588a1.27,1.27,0,0,1-1.28,1.28h-9.38a1.27,1.27,0,0,1-1.28-1.28V575.88a1.31,1.31,0,0,0-.34-.91,1.14,1.14,0,0,0-.88-.37H163a1.27,1.27,0,0,0-1.28,1.28V588a1.13,1.13,0,0,1-1.28,1.28h-9.31a1.13,1.13,0,0,1-1.28-1.28V549.89a7.88,7.88,0,0,1,.61-3.07,7.44,7.44,0,0,1,1.69-2.5,8.6,8.6,0,0,1,2.53-1.69,7.52,7.52,0,0,1,3.07-.64Zm-4,22.47V552.59H161.67v11.88Z"/><path class="cls-3" d="M231.22,561.43a7.42,7.42,0,0,1,2.5,1.69,8.72,8.72,0,0,1,1.69,2.5,7.27,7.27,0,0,1,.64,3v12.69a7.51,7.51,0,0,1-.64,3.07,8.57,8.57,0,0,1-1.69,2.53,7.41,7.41,0,0,1-2.5,1.69,7.86,7.86,0,0,1-3.07.61H201.22a1.13,1.13,0,0,1-1.28-1.28v-8.17a1.27,1.27,0,0,1,1.28-1.28h22.95a1.3,1.3,0,0,0,.91-.34,1.13,1.13,0,0,0,.37-.88v-5.6a1.27,1.27,0,0,0-1.28-1.28H207.83a7.86,7.86,0,0,1-7.29-4.79,7.62,7.62,0,0,1-.61-3V549.89a7.87,7.87,0,0,1,.61-3.07,7.43,7.43,0,0,1,1.69-2.5,8.61,8.61,0,0,1,2.53-1.69,7.52,7.52,0,0,1,3.07-.64h25.44a1.13,1.13,0,0,1,1.28,1.28v8.3a1.14,1.14,0,0,1-.37.88,1.3,1.3,0,0,1-.91.34H211.75a1.13,1.13,0,0,0-.88.37,1.31,1.31,0,0,0-.34.91v5.47a1.3,1.3,0,0,0,.34.91,1.13,1.13,0,0,0,.88.37h16.4A7.86,7.86,0,0,1,231.22,561.43Z"/><path class="cls-3" d="M278,542a7.52,7.52,0,0,1,3.07.64,7.93,7.93,0,0,1,4.18,4.18,7.53,7.53,0,0,1,.64,3.07v31.45a7.53,7.53,0,0,1-.64,3.07,8.57,8.57,0,0,1-1.69,2.53,7.41,7.41,0,0,1-2.5,1.69,7.86,7.86,0,0,1-3.07.61H254.06a7.86,7.86,0,0,1-3.07-.61,7.76,7.76,0,0,1-4.22-4.22,7.89,7.89,0,0,1-.61-3.07V549.89a7.88,7.88,0,0,1,.61-3.07,7.44,7.44,0,0,1,1.69-2.5,8.61,8.61,0,0,1,2.53-1.69,7.52,7.52,0,0,1,3.07-.64Zm-4,11.47H258v24.3H273.9Z"/><path class="cls-3" d="M335.76,542.37a1.24,1.24,0,0,1,.37.91V588a1.27,1.27,0,0,1-1.28,1.28h-9.72a2.19,2.19,0,0,1-1.08-.3,2.06,2.06,0,0,1-.81-.78l-14.92-27.54V588a1.13,1.13,0,0,1-1.28,1.28h-9.31a1.13,1.13,0,0,1-1.28-1.28V543.28a1.13,1.13,0,0,1,1.28-1.28h9.58a2.18,2.18,0,0,1,1.08.3,2.08,2.08,0,0,1,.81.78l15,27.6v-27.4a1.27,1.27,0,0,1,1.28-1.28h9.38A1.24,1.24,0,0,1,335.76,542.37Z"/></g><g id="_2019" data-name="2019"><path class="cls-3" d="M79.58,486.17V497a2,2,0,0,0,2.18,1.82h40.72a2,2,0,0,1,1.58.67,2.35,2.35,0,0,1,.61,1.64v14.66a2.34,2.34,0,0,1-.61,1.64,2,2,0,0,1-1.58.67H62.85a2,2,0,0,1-2.3-2.3V481.08a13.7,13.7,0,0,1,1.09-5.45,14.17,14.17,0,0,1,3-4.48,14,14,0,0,1,4.54-3A14.14,14.14,0,0,1,74.73,467h28.72a2.28,2.28,0,0,0,2.3-2.3V454.9a2.28,2.28,0,0,0-2.3-2.3H65.4a2.08,2.08,0,0,1-2.18-2.18V435.51a2.34,2.34,0,0,1,.61-1.64,2,2,0,0,1,1.58-.67h45.2a13.09,13.09,0,0,1,5.45,1.15,15.7,15.7,0,0,1,4.48,3,13.36,13.36,0,0,1,3,4.48,14.14,14.14,0,0,1,1.09,5.51v3.39a.5.5,0,0,1,.12.36V482a2,2,0,0,1-.67,1.58,2.34,2.34,0,0,1-1.64.61H81.76A2.16,2.16,0,0,0,79.58,486.17Z"/><path class="cls-3" d="M194.1,433.21a13.51,13.51,0,0,1,5.51,1.15,14.24,14.24,0,0,1,7.51,7.51,13.5,13.5,0,0,1,1.15,5.51v56.47a13.49,13.49,0,0,1-1.15,5.51,15.42,15.42,0,0,1-3,4.54,13.34,13.34,0,0,1-4.48,3A14.14,14.14,0,0,1,194.1,518H157.62a14.12,14.12,0,0,1-5.51-1.09,13.92,13.92,0,0,1-7.57-7.57,14.13,14.13,0,0,1-1.09-5.51V447.39a14.13,14.13,0,0,1,1.09-5.51,13.33,13.33,0,0,1,3-4.48,15.42,15.42,0,0,1,4.54-3,13.5,13.5,0,0,1,5.51-1.15H194.1Zm-6.42,20.6H164v43.63h23.63Z"/><path class="cls-3" d="M253.36,435.51v80.23a2,2,0,0,1-2.3,2.3H234.33a2,2,0,0,1-2.3-2.3V455.87c0-.32-.18-.46-.55-.42a2.61,2.61,0,0,0-1.27.67l-5.94,4.6q-.73.61-1.27.3a1.33,1.33,0,0,1-.54-1.27v-17a4.27,4.27,0,0,1,.54-2,5.4,5.4,0,0,1,1.27-1.64l5.94-4.61a5.44,5.44,0,0,1,1.94-1,7.63,7.63,0,0,1,2.18-.36h16.72A2,2,0,0,1,253.36,435.51Z"/><path class="cls-3" d="M317.83,433.21a13.51,13.51,0,0,1,5.51,1.15,14.24,14.24,0,0,1,7.51,7.51,13.5,13.5,0,0,1,1.15,5.51v68.35a2.28,2.28,0,0,1-2.3,2.3H312.86a2,2,0,0,1-1.58-.67,2.33,2.33,0,0,1-.61-1.64V495.87a2,2,0,0,0-.67-1.58,2.35,2.35,0,0,0-1.64-.61h-27a13.47,13.47,0,0,1-5.51-1.15,15.35,15.35,0,0,1-4.54-3,13.29,13.29,0,0,1-3-4.48,14.14,14.14,0,0,1-1.09-5.51V447.39a14.15,14.15,0,0,1,1.09-5.51,13.33,13.33,0,0,1,3-4.48,15.41,15.41,0,0,1,4.54-3,13.51,13.51,0,0,1,5.51-1.15h36.48Zm-6.42,19.27H287.77v21.33h23.63Z"/></g></g><g id="MLH_Logo" data-name="MLH Logo"><path class="cls-3" d="M80.64,157.5a2.28,2.28,0,0,1,1.2,1.2,2.16,2.16,0,0,1,.18.88v11a.37.37,0,0,1-.37.37H79a.32.32,0,0,1-.25-.11.38.38,0,0,1-.1-.26v-9.92H76.44v9.92a.38.38,0,0,1-.1.26.32.32,0,0,1-.25.11H73.64a.37.37,0,0,1-.37-.37v-9.92H71.1v9.92a.33.33,0,0,1-.37.37H68a.33.33,0,0,1-.37-.37V157.69a.33.33,0,0,1,.37-.37H79.76A2.17,2.17,0,0,1,80.64,157.5Z"/><path class="cls-3" d="M94.23,157.32a2.18,2.18,0,0,1,.89.18,2.29,2.29,0,0,1,1.2,1.2,2.16,2.16,0,0,1,.18.88v11a.36.36,0,0,1-.37.37h-2.7a.37.37,0,0,1-.37-.37v-3.48a.38.38,0,0,0-.1-.26.33.33,0,0,0-.25-.11H88.87a.37.37,0,0,0-.37.37v3.48a.33.33,0,0,1-.37.37H85.45a.33.33,0,0,1-.37-.37v-11a2.28,2.28,0,0,1,.17-.88,2.13,2.13,0,0,1,.49-.72,2.45,2.45,0,0,1,.73-.49,2.17,2.17,0,0,1,.88-.18Zm-1.16,6.47v-3.42H88.5v3.42Z"/><path class="cls-3" d="M108.73,157.43a.36.36,0,0,1,.11.26v11a2.18,2.18,0,0,1-.18.88,2.47,2.47,0,0,1-.49.73,2.13,2.13,0,0,1-.72.49,2.27,2.27,0,0,1-.88.17h-5.85a2.27,2.27,0,0,1-.88-.17,2.26,2.26,0,0,1-1.39-2.1v-4.16a.33.33,0,0,1,.37-.37h2.68a.33.33,0,0,1,.37.37v2.78a.32.32,0,0,0,.11.25.37.37,0,0,0,.26.1H105a.37.37,0,0,0,.26-.1.33.33,0,0,0,.11-.25v-9.58a.38.38,0,0,1,.1-.26.33.33,0,0,1,.25-.11h2.7A.36.36,0,0,1,108.73,157.43Z"/><path class="cls-3" d="M121,157.32a2.17,2.17,0,0,1,.88.18,2.28,2.28,0,0,1,1.2,1.2,2.16,2.16,0,0,1,.18.88v9.05a2.16,2.16,0,0,1-.18.88,2.46,2.46,0,0,1-.49.73,2.14,2.14,0,0,1-.72.49,2.27,2.27,0,0,1-.88.17h-6.88a2.27,2.27,0,0,1-.88-.17,2.26,2.26,0,0,1-1.39-2.1v-9.05a2.26,2.26,0,0,1,.18-.88,2.14,2.14,0,0,1,.49-.72,2.48,2.48,0,0,1,.73-.49,2.17,2.17,0,0,1,.88-.18Zm-1.16,3.3h-4.56v7h4.56Z"/><path class="cls-3" d="M138.18,170.6a.21.21,0,0,1,0,.22.24.24,0,0,1-.21.09H134.9a.63.63,0,0,1-.31-.09.6.6,0,0,1-.23-.22l-2.06-3.69a.14.14,0,0,0-.14-.08h-2.31a.09.09,0,0,0-.1.1v3.61a.33.33,0,0,1-.37.37H126.7a.33.33,0,0,1-.37-.37V157.69a.33.33,0,0,1,.37-.37h8.78a2.17,2.17,0,0,1,.88.18,2.3,2.3,0,0,1,1.2,1.2,2.18,2.18,0,0,1,.18.88v5.11a2.19,2.19,0,0,1-.44,1.33,2.16,2.16,0,0,1-1.12.81l-.06,0q-.14,0-.06.12l0,0Zm-3.87-10.12h-4.68v3.3h4.68Z"/><path class="cls-3" d="M156.5,167.61a.33.33,0,0,1,.25.11.38.38,0,0,1,.1.26v2.56a.38.38,0,0,1-.1.26.33.33,0,0,1-.25.11h-8.39a.33.33,0,0,1-.37-.37V157.69a.33.33,0,0,1,.37-.37h2.68a.33.33,0,0,1,.37.37v9.58a.32.32,0,0,0,.11.25.38.38,0,0,0,.26.1Z"/><path class="cls-3" d="M169,157.43a.36.36,0,0,1,.11.26v2.45a.33.33,0,0,1-.11.25.38.38,0,0,1-.26.1h-6.51a.09.09,0,0,0-.1.1v2.12c0,.05,0,.08.1.08h5.56a.32.32,0,0,1,.25.11.38.38,0,0,1,.1.26v1.94a.37.37,0,0,1-.1.26.32.32,0,0,1-.25.11h-5.56a.09.09,0,0,0-.1.1v2.1a.09.09,0,0,0,.1.1h6.51a.36.36,0,0,1,.37.37v2.43a.36.36,0,0,1-.37.37h-9.65a.33.33,0,0,1-.37-.37V157.69a.37.37,0,0,1,.37-.37h9.65A.36.36,0,0,1,169,157.43Z"/><path class="cls-3" d="M181.36,157.32a2.18,2.18,0,0,1,.89.18,2.29,2.29,0,0,1,1.2,1.2,2.16,2.16,0,0,1,.18.88v11a.36.36,0,0,1-.37.37h-2.7a.37.37,0,0,1-.37-.37v-3.48a.38.38,0,0,0-.1-.26.33.33,0,0,0-.25-.11H176a.37.37,0,0,0-.37.37v3.48a.33.33,0,0,1-.37.37h-2.68a.33.33,0,0,1-.37-.37v-11a2.28,2.28,0,0,1,.17-.88,2.13,2.13,0,0,1,.49-.72,2.45,2.45,0,0,1,.73-.49,2.17,2.17,0,0,1,.88-.18Zm-1.16,6.47v-3.42h-4.56v3.42Z"/><path class="cls-3" d="M198,163.6a.36.36,0,0,1,.11.26v4.78a2.16,2.16,0,0,1-.18.88,2.46,2.46,0,0,1-.49.73,2.14,2.14,0,0,1-.72.49,2.27,2.27,0,0,1-.88.17h-6.88a2.27,2.27,0,0,1-.88-.17,2.26,2.26,0,0,1-1.39-2.1v-9.05a2.26,2.26,0,0,1,.18-.88,2.14,2.14,0,0,1,.49-.72,2.48,2.48,0,0,1,.73-.49,2.17,2.17,0,0,1,.88-.18h8a.37.37,0,0,1,.37.37v2.56a.37.37,0,0,1-.37.37h-6.51a.37.37,0,0,0-.26.1.33.33,0,0,0-.11.25v6.29a.33.33,0,0,0,.11.25.37.37,0,0,0,.26.1h3.85a.33.33,0,0,0,.35-.35v-3.4a.36.36,0,0,1,.37-.37h2.7A.36.36,0,0,1,198,163.6Z"/><path class="cls-3" d="M212.31,157.43a.36.36,0,0,1,.11.26v11a2.16,2.16,0,0,1-.18.88,2.46,2.46,0,0,1-.49.73,2.13,2.13,0,0,1-.72.49,2.28,2.28,0,0,1-.89.17h-6.88a2.27,2.27,0,0,1-.88-.17,2.25,2.25,0,0,1-1.21-1.21,2.28,2.28,0,0,1-.17-.88v-11a.33.33,0,0,1,.37-.37H204a.33.33,0,0,1,.37.37v9.58a.33.33,0,0,0,.11.25.37.37,0,0,0,.26.1h3.85a.34.34,0,0,0,.25-.1.34.34,0,0,0,.1-.25v-9.58a.37.37,0,0,1,.37-.37H212A.36.36,0,0,1,212.31,157.43Z"/><path class="cls-3" d="M225.77,157.43a.36.36,0,0,1,.11.26v2.45a.33.33,0,0,1-.11.25.38.38,0,0,1-.26.1H219a.09.09,0,0,0-.1.1v2.12c0,.05,0,.08.1.08h5.56a.32.32,0,0,1,.25.11.38.38,0,0,1,.1.26v1.94a.37.37,0,0,1-.1.26.32.32,0,0,1-.25.11H219a.09.09,0,0,0-.1.1v2.1a.09.09,0,0,0,.1.1h6.51a.36.36,0,0,1,.37.37v2.43a.36.36,0,0,1-.37.37h-9.65a.33.33,0,0,1-.37-.37V157.69a.37.37,0,0,1,.37-.37h9.65A.36.36,0,0,1,225.77,157.43Z"/><path class="cls-3" d="M246.62,157.32a.36.36,0,0,1,.37.37v12.86a.36.36,0,0,1-.37.37h-2.7a.37.37,0,0,1-.37-.37v-4.49a.33.33,0,0,0-.35-.35h-3.85a.38.38,0,0,0-.26.1.32.32,0,0,0-.11.25v4.49a.33.33,0,0,1-.37.37h-2.68a.33.33,0,0,1-.37-.37V157.69a.33.33,0,0,1,.37-.37h2.68a.33.33,0,0,1,.37.37V162a.33.33,0,0,0,.37.37h3.85a.33.33,0,0,0,.25-.11.38.38,0,0,0,.1-.26v-4.35a.37.37,0,0,1,.37-.37Z"/><path class="cls-3" d="M259.2,157.32a2.18,2.18,0,0,1,.89.18,2.29,2.29,0,0,1,1.2,1.2,2.16,2.16,0,0,1,.18.88v11a.36.36,0,0,1-.37.37h-2.7a.37.37,0,0,1-.37-.37v-3.48a.38.38,0,0,0-.1-.26.33.33,0,0,0-.25-.11h-3.85a.37.37,0,0,0-.37.37v3.48a.33.33,0,0,1-.37.37h-2.68a.33.33,0,0,1-.37-.37v-11a2.28,2.28,0,0,1,.17-.88,2.13,2.13,0,0,1,.49-.72,2.45,2.45,0,0,1,.73-.49,2.17,2.17,0,0,1,.88-.18ZM258,163.79v-3.42h-4.56v3.42Z"/><path class="cls-3" d="M268,160.72a.32.32,0,0,0-.11.25v6.29a.32.32,0,0,0,.11.25.38.38,0,0,0,.26.1h6.24a.36.36,0,0,1,.37.37v2.56a.36.36,0,0,1-.37.37h-7.75a2.27,2.27,0,0,1-.88-.17,2.24,2.24,0,0,1-.73-.49,2.22,2.22,0,0,1-.49-.73,2.26,2.26,0,0,1-.18-.88v-9.05a2.26,2.26,0,0,1,.18-.88,2.12,2.12,0,0,1,.49-.72,2.48,2.48,0,0,1,.73-.49,2.17,2.17,0,0,1,.88-.18h7.75a.36.36,0,0,1,.37.37v2.56a.36.36,0,0,1-.37.37h-6.24A.38.38,0,0,0,268,160.72Z"/><path class="cls-3" d="M285.7,163a.11.11,0,0,0,0,.14l4.55,7.42a.21.21,0,0,1,0,.22.24.24,0,0,1-.21.09h-3.22a.63.63,0,0,1-.31-.09.6.6,0,0,1-.23-.22l-2.93-5.3c0-.06-.07-.07-.1,0L281.62,167a.76.76,0,0,0-.16.28,1,1,0,0,0-.07.34v2.87a.33.33,0,0,1-.37.37h-2.68a.33.33,0,0,1-.37-.37V157.69a.33.33,0,0,1,.37-.37H281a.33.33,0,0,1,.37.37v5.77l5-5.87a.74.74,0,0,1,.27-.19.82.82,0,0,1,.33-.08h3.22c.1,0,.16,0,.18.08s0,.12-.07.19Z"/><path class="cls-3" d="M296.17,170.55a.33.33,0,0,1-.37.37h-2.68a.33.33,0,0,1-.37-.37V157.69a.33.33,0,0,1,.37-.37h2.68a.33.33,0,0,1,.37.37Z"/><path class="cls-3" d="M309.25,157.5a2.3,2.3,0,0,1,1.2,1.2,2.18,2.18,0,0,1,.18.88v11a.36.36,0,0,1-.37.37h-2.7a.33.33,0,0,1-.25-.11.38.38,0,0,1-.1-.26V161a.33.33,0,0,0-.11-.25.37.37,0,0,0-.26-.1H303a.38.38,0,0,0-.26.1.32.32,0,0,0-.11.25v9.58a.33.33,0,0,1-.37.37h-2.68a.33.33,0,0,1-.37-.37V157.69a.33.33,0,0,1,.37-.37h8.78A2.17,2.17,0,0,1,309.25,157.5Z"/><path class="cls-3" d="M325,163.6a.36.36,0,0,1,.11.26v4.78a2.16,2.16,0,0,1-.18.88,2.46,2.46,0,0,1-.49.73,2.14,2.14,0,0,1-.72.49,2.27,2.27,0,0,1-.88.17h-6.88a2.27,2.27,0,0,1-.88-.17,2.26,2.26,0,0,1-1.39-2.1v-9.05a2.26,2.26,0,0,1,.18-.88,2.14,2.14,0,0,1,.49-.72,2.48,2.48,0,0,1,.73-.49,2.17,2.17,0,0,1,.88-.18h8a.37.37,0,0,1,.37.37v2.56a.37.37,0,0,1-.37.37h-6.51a.37.37,0,0,0-.26.1.33.33,0,0,0-.11.25v6.29a.33.33,0,0,0,.11.25.37.37,0,0,0,.26.1h3.85a.33.33,0,0,0,.35-.35v-3.4a.36.36,0,0,1,.37-.37h2.7A.36.36,0,0,1,325,163.6Z"/><path class="cls-3" d="M149.61,63.72a14.41,14.41,0,0,1,7.61,7.59,13.62,13.62,0,0,1,1.17,5.57v71.33a2.3,2.3,0,0,1-2.33,2.33H139a2.05,2.05,0,0,1-1.6-.67,2.35,2.35,0,0,1-.61-1.65V83.38H123v64.84a2.36,2.36,0,0,1-.61,1.65,2.06,2.06,0,0,1-1.6.67H105.36a2.3,2.3,0,0,1-2.33-2.33V83.38H89.28v64.84a2.06,2.06,0,0,1-2.33,2.33H70a2.06,2.06,0,0,1-2.33-2.33V64.89A2.06,2.06,0,0,1,70,62.56h74A13.71,13.71,0,0,1,149.61,63.72Z"/><path class="cls-3" d="M149.61,63.72a14.41,14.41,0,0,1,7.61,7.59,13.62,13.62,0,0,1,1.17,5.57v6.36l-21.6.13H89.28l-21.6-.13V64.89A2.06,2.06,0,0,1,70,62.56h74A13.71,13.71,0,0,1,149.61,63.72Z"/><path class="cls-3" d="M232.78,129.19a2.22,2.22,0,0,1,1.69.69,2.39,2.39,0,0,1,.65,1.7v16.59a2.38,2.38,0,0,1-.65,1.7,2.22,2.22,0,0,1-1.69.69H174.35a2.15,2.15,0,0,1-2.47-2.39V64.95a2.15,2.15,0,0,1,2.47-2.39h17.94a2.15,2.15,0,0,1,2.47,2.39v62a2.07,2.07,0,0,0,.72,1.63,2.55,2.55,0,0,0,1.76.63Z"/><path class="cls-3" d="M194.57,150.56H174.34a2.15,2.15,0,0,1-2.46-2.39V64.95a2.15,2.15,0,0,1,2.46-2.39h17.9a2.15,2.15,0,0,1,2.46,2.39v62C194.71,127.6,194.57,150.56,194.57,150.56Z"/><path class="cls-3" d="M322.6,62.56a2.45,2.45,0,0,1,1.77.69,2.28,2.28,0,0,1,.72,1.7v83.46a2.27,2.27,0,0,1-.72,1.7,2.45,2.45,0,0,1-1.77.69H304.43a2.44,2.44,0,0,1-1.77-.69,2.27,2.27,0,0,1-.72-1.7V119.29a2.18,2.18,0,0,0-.65-1.64,2.35,2.35,0,0,0-1.7-.63h-25.5a2.58,2.58,0,0,0-1.77.63,2.08,2.08,0,0,0-.72,1.64v29.12q0,2.4-2.48,2.4h-18q-2.49,0-2.48-2.4V65q0-2.39,2.48-2.4h18q2.48,0,2.48,2.4V93.19q0,2.4,2.48,2.4h25.5a2.23,2.23,0,0,0,1.7-.69,2.39,2.39,0,0,0,.65-1.7V65a2.27,2.27,0,0,1,.72-1.7,2.45,2.45,0,0,1,1.77-.69Z"/><path class="cls-3" d="M271.61,119.29v29.12q0,2.4-2.48,2.4h-18q-2.49,0-2.48-2.4V65q0-2.39,2.48-2.4h18q2.48,0,2.48,2.4v54.34Z"/><path class="cls-3" d="M322.6,62.56a2.45,2.45,0,0,1,1.77.69,2.28,2.28,0,0,1,.72,1.7v83.46a2.27,2.27,0,0,1-.72,1.7,2.45,2.45,0,0,1-1.77.69H304.43a2.44,2.44,0,0,1-1.77-.69,2.27,2.27,0,0,1-.72-1.7V65a2.27,2.27,0,0,1,.72-1.7,2.45,2.45,0,0,1,1.77-.69Z"/></g></g></g></svg>