<svg width="535" height="383" viewBox="0 0 625 380" fill="none" xmlns="http://www.w3.org/2000/svg">
<rect width="619" height="380" fill="black" fill-opacity="0" transform="translate(3)"/>
<rect width="164.86" height="230.303" fill="black" fill-opacity="0" transform="translate(17.1895 7.97192)"/>
<rect width="137.279" height="230.303" fill="black" fill-opacity="0" transform="translate(17.1895 7.97192)"/>
<rect width="134.813" height="230.303" fill="black" fill-opacity="0" transform="translate(19.6553 7.97192)"/>
<path d="M150.35 75.3247C153.656 73.759 155.932 81.0556 153.356 82.9702C139.089 93.5751 125.255 99.086 119.681 101.05C117.985 101.648 116.185 101.809 114.396 101.63L70.835 97.2599L75.3891 81.624L115.83 87.7031C115.83 87.7031 128.057 85.8827 150.35 75.3247Z" fill="#9CA9EB"/>
<path d="M75.6134 101.272C69.7677 100.242 63.7317 95.8946 63.3673 90.9796C63.0028 86.0646 57.2647 74.7785 79.3461 80.1183L93.1597 82.5522L89.4271 103.706L75.6134 101.272Z" fill="white"/>
<path d="M27.8311 137.296H83.7007V212.571L27.8311 238.275V137.296Z" fill="#0C2264"/>
<path d="M73.7536 93.2429C73.9253 91.5116 74.8197 89.9334 76.2168 88.8965C79.6366 86.3584 84.5404 87.9629 85.7992 92.0317L89.4162 103.722L73.0213 100.627L73.7536 93.2429Z" fill="#F7FBFF"/>
<path d="M24.0883 103.153C24.0882 92.0268 23.5 87.7807 28.4828 83.8804C33.9477 79.6026 41.3254 80.4218 52.2554 76.8721C52.2554 76.8721 55.0932 78.4194 67.4665 78.4194C79.8398 78.4194 86.0172 88.5682 86.0172 103.153C86.0172 117.739 86.0172 107.863 86.0172 130.686C86.0172 153.509 79.63 156.148 67.2567 156.148H46.4922C34.1189 156.148 22.2892 156.148 24.0883 130.686C24.0883 130.686 24.0885 114.28 24.0883 103.153Z" fill="white"/>
<path d="M62.6581 9.16172C71.5706 12.2218 73.4596 18.7671 75.8411 27.2674C76.8007 30.6927 78.4538 38.5401 82.305 44.6931C94.3824 63.9889 80.4339 67.559 75.8411 67.559C67.0103 67.559 59.875 68.4513 59.875 59.5785C59.875 55.0488 61.7171 43.3349 64.7185 40.4144C64.236 40.4584 63.7473 40.481 63.2533 40.481C54.4225 40.481 44.1348 34.2702 44.1348 25.3973C44.1348 16.5245 53.7456 6.10158 62.6581 9.16172Z" fill="#352623"/>
<rect x="47.7617" y="62.2183" width="15.4841" height="16.3831" fill="#8895EA"/>
<path d="M63.2458 68.6807V78.6015H47.7617V71.7753C47.7617 71.7753 53.6832 71.8742 56.87 71.2291C59.7287 70.6505 63.2458 68.6807 63.2458 68.6807Z" fill="#ABB8F9"/>
<path d="M76.5228 41.293C79.0433 52.9205 73.6598 62.9461 67.3751 64.8575C63.3108 66.0936 59.0727 65.8638 57.0827 65.4036C46.0617 62.8551 38.9329 52.8565 39.9126 38.8539C40.8923 24.8512 50.3474 14.105 61.0311 14.8517C71.7148 15.5983 73.5906 27.7658 76.5228 41.293Z" fill="#ABB8F9"/>
<path d="M52.1234 41.2839C47.8708 33.6336 66.4971 23.8583 69.3888 16.633C71.2525 11.9765 59.6079 6.77258 47.2754 8.21763C41.1727 8.93271 34.1025 12.4318 30.4881 20.4413C26.1053 30.1535 28.4728 40.2092 23.9302 47.0184C11.3609 65.8589 29.6298 67.0522 38.6851 69.2501C68.4533 76.4753 52.1234 41.2839 52.1234 41.2839Z" fill="#3E2E2B"/>
<path d="M69.5752 41.6484C69.6195 41.6635 69.6923 41.7393 69.7794 41.8652C71.5626 43.893 71.0318 47.0955 68.6188 48.4167L68.3467 48.5658C71.8196 46.4034 70.4173 42.788 69.7794 41.8652C69.7144 41.7914 69.6464 41.719 69.5752 41.6484Z" fill="#8895EA"/>
<rect width="58.1751" height="17.7986" fill="black" fill-opacity="0" transform="translate(26.293 28.5332) rotate(-2.00113)"/>
<path d="M26.6099 37.6155C26.5713 36.5116 27.4349 35.5855 28.5388 35.5469L43.5098 35.0244L43.6582 39.272L28.6872 39.7945C27.5833 39.833 26.6572 38.9694 26.6186 37.8655L26.6099 37.6155Z" fill="#8BC2E8"/>
<g filter="url(#filter0_d)">
<rect width="42.1345" height="17.7986" fill="black" fill-opacity="0" transform="translate(42.3242 27.9736) rotate(-2.00113)"/>
<path fill-rule="evenodd" clip-rule="evenodd" d="M50.9104 27.674C46.1684 27.8395 42.4631 31.9556 42.635 36.8675C42.8065 41.7795 46.7899 45.6272 51.5319 45.4617L63.7747 45.0344C65.7092 44.9669 67.4903 43.9642 68.5513 42.3453C69.1138 41.4864 70.3282 41.4619 70.927 42.2972L71.9381 43.7074C72.3934 44.3425 73.1363 44.7077 73.9173 44.6805C78.6593 44.515 82.3642 40.3989 82.1927 35.4869C82.0212 30.575 78.0378 26.7272 73.2955 26.8927L50.9104 27.674Z" fill="#94CCF2"/>
<path fill-rule="evenodd" clip-rule="evenodd" d="M54.7063 28.1698C49.9643 28.3353 46.2541 32.3109 46.4199 37.0496C46.5854 41.7883 50.5638 45.4956 55.3058 45.33L63.8476 45.0319C65.7412 44.9658 67.4898 44.0009 68.5552 42.4341C69.1188 41.6049 70.3331 41.5797 70.9308 42.3848C72.0184 43.8495 73.7564 44.6861 75.5796 44.6225L76.468 44.5915C81.21 44.426 84.9199 40.4504 84.7544 35.7117C84.589 30.973 80.6105 27.2657 75.8682 27.4312L54.7063 28.1698Z" fill="url(#paint0_linear)"/>
</g>
<path d="M55.5057 86.1559C59.7815 86.1559 63.2478 82.6922 63.2478 78.4194H47.7637C47.7637 82.6922 51.2299 86.1559 55.5057 86.1559Z" fill="#ABB8F9"/>
<path d="M23.7201 99.3935C21.4212 93.0819 24.675 86.1041 30.9877 83.8081C37.3004 81.5122 44.2814 84.7675 46.5803 91.0791L52.0074 105.979L29.1473 114.294L23.7201 99.3935Z" fill="#F7FBFF"/>
<path d="M26.1162 101.668L40.2102 95.7126C47.7029 101.668 59.2704 128.57 59.2704 128.57L93.3354 116.647C95.2969 119.922 95.2482 125.384 95.2482 125.384C79.2447 135.119 64.9191 141.619 57.4452 144.761C54.2151 146.12 50.5395 145.069 48.484 142.231C41.8589 133.085 27.9787 112.875 26.1162 101.668Z" fill="#ABB8F9"/>
<path d="M22.6221 98.6356C20.7803 91.917 24.3406 84.9 30.8503 82.4185C35.5685 80.62 40.8473 83.0324 42.5754 87.7769L48.7628 104.764L26.5201 112.854L22.6221 98.6356Z" fill="white"/>
<path d="M72.6577 53.4805C72.1112 54.1176 70.745 55.2098 68.8322 55.2098C66.317 55.2098 64.8245 54.0266 64.2781 53.2074C63.9772 52.7563 63.9067 52.123 64.6423 51.7511C65.4754 51.3301 67.4053 51.114 68.741 51.114C70.0593 51.114 71.4195 51.1888 72.3844 51.4781C73.2952 51.7511 73.2151 52.8305 72.6577 53.4805Z" fill="#2C1341"/>
<rect width="31.6953" height="28.0333" fill="black" fill-opacity="0" transform="translate(90.9658 99.5352)"/>
<path d="M105.632 104.588C105.062 105.81 102.618 109.722 102.536 109.803L107.908 105.542C107.908 105.542 107.883 104.312 107.361 103.995C106.947 103.743 106.089 103.61 105.632 104.588Z" fill="#9BABFB"/>
<path d="M94.3064 116.323C94.018 116.391 93.0607 116.828 93.0607 116.828L90.9658 127.568C90.9658 127.568 96.5277 125.017 97.1136 125.055C104.491 125.531 109.135 123.249 109.135 123.249L110.684 122.923C110.684 122.923 112.254 122.853 113.554 123.109C115.181 123.428 116.287 123.382 117.926 123.109C119.453 122.854 120.398 122.353 120.931 121.131C121.465 119.908 119.483 118.93 119.483 118.93C120.16 118.551 121.661 118.194 122.192 117.425C122.365 117.174 122.658 116.737 122.66 116.29L122.66 116.268C122.663 115.818 122.667 115.223 122.481 114.735C122.24 114.107 121.386 113.75 121.386 113.75L120.931 113.568C121.002 113.559 121.064 113.555 121.148 113.539C122.552 113.265 123.068 111.596 121.386 109.885C121.008 109.5 120.572 109.25 120.146 109.277C119.287 109.33 118.432 109.354 117.573 109.383C116.237 109.427 115.025 109.584 113.698 109.759C113.315 109.809 112.802 109.803 112.398 109.759C111.994 109.714 111.918 109.575 111.943 109.333C112.006 108.728 114.708 106.439 116.522 105.659C117.004 105.452 117.483 105.234 117.969 105.037C118.346 104.885 118.808 104.56 119.239 104.343C120.295 103.812 121.424 102.626 121.424 102.626C121.673 102.18 121.975 101.758 122.212 101.307C122.406 100.939 122.529 100.422 122.233 100.082C121.883 99.6809 121.173 99.6198 120.673 99.5463C120.335 99.4966 120.048 99.6224 119.738 99.7489C119.454 99.8654 119.227 99.9536 118.996 100.154C118.776 100.344 118.629 100.392 118.359 100.503C117.654 100.793 116.973 101.119 116.263 101.401C115.903 101.545 115.567 101.737 115.205 101.876C114.932 101.981 114.648 102.056 114.377 102.162C113.764 102.402 113.165 102.701 112.565 102.971C111.792 103.318 111.048 103.644 110.32 104.085C109.493 104.586 108.6 104.996 107.792 105.524C107.204 105.908 106.608 106.291 106.034 106.697C105.024 107.412 104.244 108.414 103.288 109.193C102.748 109.634 102.146 110.056 101.712 110.61C101.532 110.84 101.272 110.998 101.08 111.22C100.922 111.402 100.681 111.664 100.456 111.765C100.129 111.91 99.8395 112.28 99.5649 112.514C99.3462 112.701 99.1351 112.931 98.8941 113.084C98.1113 113.582 97.4628 114.288 96.7062 114.824C95.8242 115.45 95.5484 116.027 94.3064 116.323Z" fill="#ABB8F9"/>
<path d="M113.92 113.006C113.996 112.73 114.206 112.551 114.558 112.551L121.48 112.278C121.832 112.278 122.275 112.6 122.118 112.915C121.936 113.279 121.286 113.552 120.934 113.552H114.558C114.206 113.552 113.828 113.346 113.92 113.006Z" fill="#9BABFB"/>
<path d="M112.66 117.011C112.735 116.734 112.945 116.556 113.297 116.556L120.219 116.283C120.572 116.283 121.014 116.605 120.857 116.92C120.675 117.284 120.025 117.557 119.673 117.557H113.297C112.945 117.557 112.567 117.35 112.66 117.011Z" fill="#9BABFB"/>
<path d="M111.633 121.375C111.726 121.108 111.904 120.951 112.165 120.986L117.318 121.394C117.579 121.428 117.864 121.791 117.706 122.088C117.523 122.431 117.007 122.638 116.747 122.603L112.033 121.978C111.772 121.944 111.52 121.702 111.633 121.375Z" fill="#9BABFB"/>
<path d="M119.566 118.285L113.599 116.58C113.268 116.459 113.009 116.555 112.844 116.789C112.641 117.077 112.424 117.351 112.755 117.471L119.384 118.922C119.566 118.922 119.475 118.922 119.475 118.922L120.113 118.649C120.113 118.649 119.817 118.396 119.566 118.285Z" fill="#9BABFB"/>
<rect width="35.3402" height="20.5743" fill="black" fill-opacity="0" transform="translate(146.709 63.3059)"/>
<rect width="7.13705" height="2.89664" rx="1.44832" transform="matrix(0.92462 0.380891 -0.378419 0.925635 166.317 69.2773)" fill="#7785CB"/>
<rect width="7.15378" height="2.88986" rx="1.44493" transform="matrix(0.488815 0.872387 -0.870794 0.491648 171.985 69.9841)" fill="#7785CB"/>
<rect width="7.13705" height="2.89664" rx="1.44832" transform="matrix(0.92462 0.380891 -0.378419 0.925635 164.109 71.1775)" fill="#7785CB"/>
<rect width="7.15378" height="2.88986" rx="1.44493" transform="matrix(0.488815 0.872387 -0.870794 0.491648 170.114 73.2236)" fill="#7785CB"/>
<rect width="7.776" height="2.89525" rx="1.44763" transform="matrix(0.998156 0.0404571 -0.040233 1.00021 166.932 68.644)" fill="#7785CB"/>
<rect width="7.15355" height="2.88996" rx="1.44498" transform="matrix(0.756602 0.651976 -0.650742 0.760937 173.272 68.5039)" fill="#7785CB"/>
<path d="M160.921 67.8212L146.709 77.4001L149.909 82.9407C154.182 84.5604 162.352 83.8465 164.712 82.5999C166.325 81.7474 167.958 81.0278 169.946 80.2823C172.868 79.1867 173.883 78.423 173.883 78.423C173.883 78.423 175.973 77.253 175.836 76.292C175.723 75.5001 173.458 75.4396 173.458 75.4396L167.545 77.0424C166.184 77.3369 165.087 76.9843 164.15 75.951C162.759 74.4166 171.76 67.8212 171.76 67.8212C171.76 67.8212 179.317 66.496 180.41 66.0409C181.455 65.6056 182.049 64.8576 182.049 64.3115C182.049 63.7654 181.304 63.1655 180.545 63.3352C176.855 64.4433 170.656 64.4433 170.656 64.4433C168.108 63.7961 165.006 67.201 164.15 67.2563C163.295 67.3117 160.921 67.8212 160.921 67.8212Z" fill="url(#paint1_linear)"/>
<path fill-rule="evenodd" clip-rule="evenodd" d="M3 248.541L312.5 117.082L622 248.541L312.5 380L3 248.541Z" fill="#00D5D5" fill-opacity="0.4"/>
<path fill-rule="evenodd" clip-rule="evenodd" d="M3 216.491L312.5 85.0317L622 216.491L312.5 347.95L3 216.491Z" fill="url(#paint2_linear)"/>
<path fill-rule="evenodd" clip-rule="evenodd" d="M3 206.713L312.5 75.2539L622 206.713L312.5 338.172L3 206.713Z" stroke="url(#paint3_linear)" stroke-width="2"/>
<g style="mix-blend-mode:hard-light">
<path fill-rule="evenodd" clip-rule="evenodd" d="M3 206.713L312.5 75.2539L622 206.713L312.5 338.172L3 206.713Z" stroke="url(#paint4_linear)" stroke-width="2"/>
</g>
<rect width="495.732" height="211.702" fill="black" fill-opacity="0" transform="translate(65.5205 100.536)"/>
<path d="M65.5205 180.257L375.021 312.238" stroke="url(#paint5_linear)" stroke-width="2"/>
<path d="M128.041 153.683L437.098 285.222" stroke="url(#paint6_linear)" stroke-width="2"/>
<path d="M190.119 127.11L499.176 258.648" stroke="url(#paint7_linear)" stroke-width="2"/>
<path d="M252.196 100.536L561.253 232.075" stroke="url(#paint8_linear)" stroke-width="2"/>
<ellipse cx="217.167" cy="34.9883" rx="35.0294" ry="34.9883" fill="url(#paint9_radial)"/>
<rect width="495.288" height="211.702" fill="black" fill-opacity="0" transform="translate(561.253 100.536) scale(-1 1)"/>
<path d="M561.253 180.699L252.196 312.238" stroke="url(#paint10_linear)" stroke-width="2"/>
<path d="M499.176 153.683L190.119 285.222" stroke="url(#paint11_linear)" stroke-width="2"/>
<path d="M435.769 127.552L128.042 258.648" stroke="url(#paint12_linear)" stroke-width="2"/>
<path d="M375.021 100.536L65.9649 232.075" stroke="url(#paint13_linear)" stroke-width="2"/>
<path d="M312.5 347.95L3 216.491V220.022L312.5 351.752L622 220.293V216.491L312.5 347.95Z" fill="#00BCBC"/>
<rect width="62.0774" height="77.0627" fill="black" fill-opacity="0" transform="translate(377.238 196.644)"/>
<path d="M404.702 255.415H409.164V273.706L404.702 271.935V255.415Z" fill="#2E3642"/>
<path d="M413.597 255.415H409.163V273.706L413.597 271.935V255.415Z" fill="#19252D"/>
<path d="M407.852 197.755L407.854 197.751C407.994 197.377 408.133 197.006 408.277 196.644C408.421 197.006 408.56 197.377 408.7 197.751L408.702 197.755C409.172 199.008 409.655 200.293 410.343 201.362C411.74 203.534 413.611 205.498 415.389 207.186C417.31 209.009 419.505 210.27 421.812 211.137C422.083 211.239 424.025 212.172 424.025 212.172C424.025 212.172 423.297 212.953 422.76 213.319C421.892 213.764 419.322 214.444 415.993 213.604C416.516 214.15 417.051 214.561 417.68 214.898C418.837 215.52 420.341 215.744 421.601 215.744C421.958 215.744 421.317 215.862 420.733 215.969C420.49 216.014 420.258 216.057 420.111 216.089C419.345 216.255 418.487 216.365 417.708 216.365C417.687 216.365 417.658 216.362 417.626 216.36L417.625 216.36C417.471 216.347 417.242 216.328 417.413 216.537C418.648 218.053 420.546 219.32 422.093 220.229C423.698 221.173 425.437 221.373 427.174 221.567C428.269 221.689 431.834 221.49 431.834 221.49C431.834 221.49 431.437 222.542 430.477 223.275C428.374 224.879 426.002 226.023 423.527 226.337C422.758 226.435 420.983 226.268 420.983 226.268C421.66 226.737 423.27 227.211 423.991 227.39C424.116 227.417 424.26 227.426 424.385 227.434L424.386 227.434C424.701 227.454 424.892 227.466 424.356 227.735C423.515 228.156 422.584 228.391 421.685 228.618L421.222 228.736C420.695 228.872 420.401 228.937 419.915 228.787C419.334 228.871 417.356 228.868 415.853 228.424C416.451 229.033 417.053 229.62 417.647 230.184C420.178 232.586 423.07 234.246 426.11 235.389C426.468 235.523 429.027 236.752 429.027 236.752C429.027 236.752 428.068 237.781 427.36 238.263C426.215 238.85 422.83 239.745 418.443 238.639C419.132 239.357 419.838 239.898 420.666 240.343C422.191 241.162 424.172 241.457 425.833 241.457C426.303 241.457 425.456 241.613 424.687 241.754L424.683 241.755L424.679 241.756C424.363 241.814 424.06 241.87 423.869 241.911C422.859 242.13 421.73 242.275 420.703 242.275C420.674 242.275 420.636 242.272 420.594 242.268C420.391 242.251 420.09 242.227 420.314 242.502C421.941 244.499 424.442 246.167 426.48 247.366C428.595 248.609 430.887 248.872 433.175 249.127C434.618 249.288 439.316 249.026 439.316 249.026C439.316 249.026 438.792 250.412 437.527 251.377C434.757 253.49 431.63 254.997 428.369 255.411C427.357 255.54 425.018 255.32 425.018 255.32C425.91 255.937 428.031 256.562 428.981 256.797C429.147 256.833 429.337 256.845 429.501 256.855L429.501 256.855L429.502 256.856C429.916 256.882 430.168 256.898 429.462 257.252C428.353 257.807 427.125 258.117 425.94 258.415C425.736 258.467 425.533 258.518 425.332 258.57C424.64 258.75 424.252 258.835 423.61 258.638C422.784 258.758 416.421 258.742 412.976 258.008L404.998 257.417C401.606 257.83 392.828 258.85 391.222 258.57C389.221 258.221 388.391 257.903 387.092 257.252C386.386 256.898 386.638 256.882 387.052 256.856L387.052 256.855L387.052 256.855C387.217 256.845 387.407 256.833 387.573 256.797C388.523 256.562 390.644 255.937 391.536 255.32C391.536 255.32 389.197 255.54 388.185 255.411C384.923 254.997 381.797 253.49 379.027 251.377C377.762 250.412 377.238 249.026 377.238 249.026C377.238 249.026 381.936 249.288 383.379 249.127C385.667 248.872 387.959 248.609 390.074 247.366C392.112 246.167 394.613 244.499 396.24 242.502C396.464 242.227 396.163 242.251 395.96 242.268C395.918 242.272 395.879 242.275 395.851 242.275C394.824 242.275 393.695 242.13 392.685 241.911C392.495 241.87 392.194 241.814 391.879 241.756L391.875 241.756L391.871 241.755L391.867 241.754C391.098 241.613 390.251 241.457 390.721 241.457C392.382 241.457 394.363 241.162 395.888 240.343C396.716 239.898 397.422 239.357 398.111 238.639C393.724 239.745 390.338 238.85 389.194 238.263C388.486 237.781 387.527 236.752 387.527 236.752C387.527 236.752 390.086 235.523 390.444 235.389C393.484 234.246 396.376 232.586 398.907 230.184C399.501 229.62 400.103 229.033 400.701 228.424C399.198 228.868 397.22 228.871 396.639 228.787C396.152 228.937 395.858 228.872 395.332 228.736L394.869 228.618C393.97 228.391 393.039 228.156 392.198 227.735C391.662 227.466 391.853 227.454 392.168 227.434L392.169 227.434C392.294 227.426 392.438 227.417 392.563 227.39C393.284 227.211 394.894 226.737 395.571 226.268C395.571 226.268 393.796 226.435 393.027 226.337C390.552 226.023 388.179 224.879 386.077 223.275C385.117 222.542 384.72 221.49 384.72 221.49C384.72 221.49 388.285 221.689 389.38 221.567C391.117 221.373 392.856 221.173 394.461 220.229C396.008 219.32 397.906 218.053 399.141 216.537C399.312 216.328 399.083 216.347 398.929 216.36L398.928 216.36C398.896 216.362 398.867 216.365 398.846 216.365C398.067 216.365 397.209 216.255 396.443 216.089C396.296 216.057 396.064 216.014 395.821 215.969C395.237 215.862 394.596 215.744 394.953 215.744C396.213 215.744 397.717 215.52 398.874 214.898C399.503 214.561 400.038 214.15 400.561 213.604C397.232 214.444 394.662 213.764 393.793 213.319C393.256 212.953 392.528 212.172 392.528 212.172C392.528 212.172 394.471 211.239 394.742 211.137C397.049 210.27 399.244 209.009 401.165 207.186C402.943 205.498 404.814 203.534 406.211 201.362C406.899 200.293 407.381 199.008 407.852 197.755Z" fill="#19252D"/>
<g style="mix-blend-mode:hard-light">
<path fill-rule="evenodd" clip-rule="evenodd" d="M3 206.713L312.5 75.2539L622 206.713L312.5 338.172L3 206.713Z" stroke="url(#paint14_linear)" stroke-width="2"/>
</g>
<rect width="86.0206" height="98.3216" fill="black" fill-opacity="0" transform="translate(100.551 126.667)"/>
<path d="M139.4 184.116H144.204V224.988L139.4 223.133V184.116Z" fill="#2E3642"/>
<path d="M148.827 184.116H144.024V224.988L148.827 223.133V184.116Z" fill="#19252D"/>
<rect width="43.2026" height="83.3887" fill="black" fill-opacity="0" transform="translate(143.753 126.667) scale(-1 1)"/>
<path d="M140.699 144.861C141.937 143.278 142.696 141.283 143.562 139.488V174.89H134.967C133.265 176.163 128.537 176.22 127.435 176.089C126.76 176.259 126.353 176.185 125.624 176.03C124.187 175.724 122.648 175.453 121.281 174.89C120.243 174.464 121.171 174.606 121.787 174.497C122.786 174.294 125.017 173.754 125.955 173.22C125.955 173.22 123.495 173.41 122.43 173.299C119.001 172.941 115.712 171.639 112.799 169.812C111.469 168.978 110.918 167.78 110.918 167.78C110.918 167.78 115.859 168.006 117.376 167.867C119.782 167.646 122.192 167.419 124.417 166.344C126.56 165.308 129.191 163.866 130.902 162.14C131.187 161.852 130.665 161.944 130.493 161.944C129.413 161.944 128.225 161.818 127.163 161.629C126.473 161.506 124.398 161.236 125.098 161.236C126.844 161.236 128.928 160.982 130.532 160.274C131.403 159.889 132.145 159.422 132.869 158.8C128.256 159.757 124.695 158.983 123.491 158.476C122.747 158.059 121.739 157.17 121.739 157.17C121.739 157.17 124.43 156.107 124.806 155.991C128.003 155.003 131.045 153.568 133.707 151.492C136.17 149.57 138.764 147.334 140.699 144.861Z" fill="#19252D"/>
<path d="M141.96 129.966C142.736 128.994 143.211 127.769 143.753 126.667V148.405H138.37C137.304 149.187 134.343 149.222 133.653 149.141C133.23 149.246 132.975 149.2 132.519 149.105C131.619 148.917 130.655 148.751 129.799 148.405C129.149 148.143 129.73 148.23 130.116 148.164C130.741 148.039 132.139 147.707 132.726 147.38C132.726 147.38 131.185 147.496 130.518 147.428C128.371 147.208 126.311 146.408 124.487 145.287C123.653 144.775 123.308 144.039 123.308 144.039C123.308 144.039 126.403 144.178 127.353 144.092C128.86 143.957 130.37 143.817 131.763 143.158C133.105 142.522 134.753 141.636 135.824 140.576C136.003 140.399 135.676 140.455 135.568 140.455C134.892 140.455 134.148 140.378 133.482 140.262C133.051 140.187 131.751 140.021 132.189 140.021C133.283 140.021 134.588 139.865 135.593 139.43C136.138 139.194 136.603 138.907 137.056 138.525C134.167 139.112 131.937 138.637 131.183 138.326C130.717 138.07 130.085 137.524 130.085 137.524C130.085 137.524 131.771 136.871 132.007 136.8C134.009 136.194 135.914 135.312 137.581 134.037C139.124 132.857 140.748 131.484 141.96 129.966Z" fill="#19252D"/>
<path d="M139.789 168.945C141.422 166.86 142.421 164.231 143.562 161.867V208.5H140.873C140.873 208.5 122.7 210.398 119.928 210C117.155 209.603 116.006 209.24 114.205 208.5C112.838 207.937 114.061 208.124 114.872 207.982C116.188 207.714 119.127 207.002 120.364 206.3C120.364 206.3 117.122 206.55 115.719 206.403C111.201 205.932 106.868 204.216 103.03 201.81C101.277 200.711 100.551 199.133 100.551 199.133C100.551 199.133 107.061 199.431 109.06 199.248C112.231 198.957 115.406 198.658 118.337 197.242C121.161 195.878 124.627 193.978 126.882 191.705C127.257 191.326 126.569 191.446 126.343 191.446C124.919 191.446 123.355 191.281 121.955 191.032C121.046 190.87 118.312 190.514 119.235 190.514C121.535 190.514 124.281 190.179 126.394 189.246C127.542 188.74 128.519 188.124 129.474 187.305C123.396 188.565 118.704 187.546 117.118 186.878C116.137 186.329 114.808 185.157 114.808 185.157C114.808 185.157 118.354 183.758 118.85 183.605C123.062 182.304 127.07 180.414 130.577 177.679C133.822 175.147 137.24 172.201 139.789 168.945Z" fill="#19252D"/>
<rect width="43.0107" height="83.5402" fill="black" fill-opacity="0" transform="translate(143.561 126.667)"/>
<rect width="43.0107" height="83.5402" fill="black" fill-opacity="0" transform="translate(143.561 126.667)"/>
<path d="M145.547 129.966C144.771 128.994 144.296 127.769 143.754 126.667V148.405H149.137C150.202 149.187 153.163 149.222 153.854 149.141C154.276 149.246 154.532 149.2 154.988 149.105C155.888 148.917 156.852 148.751 157.708 148.405C158.358 148.143 157.777 148.23 157.391 148.164C156.766 148.039 155.368 147.707 154.781 147.38C154.781 147.38 156.321 147.496 156.988 147.428C159.136 147.208 161.196 146.408 163.02 145.287C163.853 144.775 164.198 144.039 164.198 144.039C164.198 144.039 161.104 144.178 160.154 144.092C158.647 143.957 157.137 143.817 155.744 143.158C154.402 142.522 152.754 141.636 151.682 140.576C151.504 140.399 151.831 140.455 151.939 140.455C152.615 140.455 153.359 140.378 154.024 140.262C154.456 140.187 155.756 140.021 155.317 140.021C154.224 140.021 152.919 139.865 151.914 139.43C151.369 139.194 150.904 138.907 150.45 138.525C153.339 139.112 155.57 138.637 156.324 138.326C156.79 138.07 157.421 137.524 157.421 137.524C157.421 137.524 155.736 136.871 155.5 136.8C153.498 136.194 151.593 135.312 149.926 134.037C148.383 132.857 146.759 131.484 145.547 129.966Z" fill="#19252D"/>
<path d="M146.424 144.862C145.185 143.279 144.426 141.283 143.561 139.488V174.891H152.155C153.857 176.164 158.585 176.22 159.687 176.089C160.362 176.259 160.769 176.185 161.498 176.03C162.935 175.724 164.474 175.453 165.841 174.891C166.879 174.464 165.951 174.606 165.335 174.498C164.337 174.294 162.105 173.754 161.167 173.221C161.167 173.221 163.627 173.41 164.692 173.299C168.122 172.941 171.41 171.639 174.323 169.812C175.653 168.978 176.204 167.78 176.204 167.78C176.204 167.78 171.264 168.006 169.746 167.867C167.34 167.646 164.93 167.419 162.706 166.345C160.562 165.309 157.931 163.866 156.22 162.14C155.935 161.853 156.457 161.944 156.629 161.944C157.709 161.944 158.897 161.819 159.959 161.63C160.649 161.507 162.724 161.237 162.024 161.237C160.278 161.237 158.194 160.982 156.59 160.274C155.719 159.889 154.977 159.422 154.253 158.8C158.866 159.757 162.427 158.983 163.631 158.476C164.375 158.059 165.384 157.17 165.384 157.17C165.384 157.17 162.692 156.107 162.316 155.991C159.119 155.004 156.077 153.568 153.415 151.492C150.952 149.571 148.358 147.334 146.424 144.862Z" fill="#19252D"/>
<path d="M147.333 168.945C145.7 166.86 144.701 164.231 143.561 161.867V208.5H147.333C149.575 210.177 163.356 210.251 164.808 210.078C165.697 210.303 166.234 210.205 167.195 210.001C169.088 209.597 171.116 209.24 172.917 208.5C174.284 207.937 173.061 208.124 172.25 207.982C170.934 207.714 167.995 207.002 166.758 206.3C166.758 206.3 170 206.55 171.403 206.404C175.921 205.932 180.254 204.216 184.092 201.81C185.845 200.711 186.571 199.133 186.571 199.133C186.571 199.133 180.061 199.432 178.062 199.248C174.891 198.958 171.716 198.658 168.786 197.243C165.961 195.878 162.495 193.978 160.24 191.705C159.865 191.326 160.553 191.446 160.779 191.446C162.203 191.446 163.767 191.281 165.167 191.032C166.076 190.87 168.81 190.514 167.887 190.514C165.587 190.514 162.842 190.179 160.728 189.246C159.58 188.74 158.603 188.124 157.649 187.305C163.726 188.565 168.418 187.546 170.004 186.878C170.985 186.329 172.314 185.158 172.314 185.158C172.314 185.158 168.768 183.758 168.272 183.605C164.06 182.304 160.052 180.414 156.545 177.679C153.3 175.148 149.882 172.202 147.333 168.945Z" fill="#19252D"/>
<rect width="251.237" height="192.843" fill="black" fill-opacity="0" transform="translate(127.774 125.773)"/>
<rect width="189.552" height="160.919" fill="black" fill-opacity="0" transform="translate(127.774 125.773)"/>
<path fill-rule="evenodd" clip-rule="evenodd" d="M222.55 125.885V286.692L127.774 247.399L222.55 125.885Z" fill="url(#paint15_linear)"/>
<path fill-rule="evenodd" clip-rule="evenodd" d="M222.55 125.884V286.691L317.326 247.399L222.55 125.884Z" fill="url(#paint16_linear)"/>
<path fill-rule="evenodd" clip-rule="evenodd" d="M222.701 125.773L187.611 170.668L208.41 161.964L222.701 180.578V125.773Z" fill="#F9F7F0"/>
<path fill-rule="evenodd" clip-rule="evenodd" d="M222.551 125.884L256.384 169.292L235.196 161.152L222.551 180.084V125.884Z" fill="white"/>
<rect width="84.248" height="71.3051" fill="black" fill-opacity="0" transform="translate(294.763 206.387)"/>
<path fill-rule="evenodd" clip-rule="evenodd" d="M336.443 206.387V276.364L294.763 259.265L336.443 206.387Z" fill="url(#paint17_linear)"/>
<path fill-rule="evenodd" clip-rule="evenodd" d="M336.443 206.387L335.557 277.692L379.011 259.268L336.443 206.387Z" fill="url(#paint18_linear)"/>
<path fill-rule="evenodd" clip-rule="evenodd" d="M336.443 206.387L320.45 226.595L330.332 222.696L336.443 229.52V206.387Z" fill="#F9F7F0"/>
<path fill-rule="evenodd" clip-rule="evenodd" d="M336.443 206.387L351.247 225.346L342.051 221.386L336.443 229.438V206.387Z" fill="white"/>
<rect width="118.469" height="100.505" fill="black" fill-opacity="0" transform="translate(235.582 218.111)"/>
<path fill-rule="evenodd" clip-rule="evenodd" d="M294.817 218.111V318.616L235.582 294.058L294.817 218.111Z" fill="url(#paint19_linear)"/>
<path fill-rule="evenodd" clip-rule="evenodd" d="M294.816 218.111V318.616L354.051 294.058L294.816 218.111Z" fill="url(#paint20_linear)"/>
<path fill-rule="evenodd" clip-rule="evenodd" d="M294.816 218.111L272.088 247.135L286.131 241.535L294.816 251.335V218.111Z" fill="#F9F7F0"/>
<path fill-rule="evenodd" clip-rule="evenodd" d="M294.816 218.111L315.855 245.341L302.787 239.654L294.816 251.218V218.111Z" fill="white"/>
<rect x="292.99" y="94.022" width="54.9828" height="79.5912" rx="27.4914" fill="#6D5B93"/>
<path d="M300.92 111.292C285.48 137.947 305.816 139.824 311.841 139.824" stroke="#8571B1" stroke-width="20" stroke-linecap="round" stroke-linejoin="round"/>
<path d="M339.554 109.039C354.274 136.396 334.887 138.323 329.143 138.323" stroke="#8571B1" stroke-width="20" stroke-linecap="round" stroke-linejoin="round"/>
<rect width="20.3361" height="27.7818" fill="black" fill-opacity="0" transform="translate(302.781 146.154)"/>
<path d="M304.4 154.036C304.762 149.583 308.482 146.154 312.949 146.154C317.417 146.154 321.137 149.583 321.499 154.036L322.293 163.801C322.737 169.26 318.426 173.936 312.949 173.936C307.472 173.936 303.162 169.26 303.606 163.801L304.4 154.036Z" fill="#B49BE7"/>
<ellipse cx="1.81013" cy="1.34949" rx="1.81013" ry="1.34949" transform="matrix(-0.173028 -0.984917 -0.984706 0.174227 309.832 154.225)" fill="#5E4B88"/>
<ellipse cx="1.81013" cy="1.34949" rx="1.81013" ry="1.34949" transform="matrix(-0.173028 -0.984917 -0.984706 0.174227 312.844 151.972)" fill="#5E4B88"/>
<ellipse cx="1.81013" cy="1.34949" rx="1.81013" ry="1.34949" transform="matrix(0.173028 -0.984917 0.984706 0.174227 313.326 151.972)" fill="#5E4B88"/>
<ellipse cx="1.81013" cy="1.34949" rx="1.81013" ry="1.34949" transform="matrix(0.173028 -0.984917 0.984706 0.174227 316.34 154.976)" fill="#5E4B88"/>
<ellipse cx="4.74554" cy="4.15817" rx="4.74554" ry="4.15817" transform="matrix(-0.00752812 -0.999972 -0.999952 0.00975136 317.193 163.153)" fill="#5E4B88"/>
<rect width="19.9595" height="27.7818" fill="black" fill-opacity="0" transform="translate(327.26 146.154)"/>
<path d="M328.604 154.098C328.907 149.626 332.623 146.154 337.105 146.154C341.542 146.154 345.237 149.56 345.596 153.983L346.405 163.922C346.844 169.316 342.584 173.936 337.172 173.936C331.81 173.936 327.567 169.396 327.93 164.046L328.604 154.098Z" fill="#B49BE7"/>
<ellipse cx="1.81013" cy="1.34949" rx="1.81013" ry="1.34949" transform="matrix(-0.173028 -0.984917 -0.984706 0.174227 333.934 154.225)" fill="#5E4B88"/>
<ellipse cx="1.81013" cy="1.34949" rx="1.81013" ry="1.34949" transform="matrix(-0.173028 -0.984917 -0.984706 0.174227 336.947 151.972)" fill="#5E4B88"/>
<ellipse cx="1.81013" cy="1.34949" rx="1.81013" ry="1.34949" transform="matrix(0.173028 -0.984917 0.984706 0.174227 337.429 151.972)" fill="#5E4B88"/>
<ellipse cx="1.81013" cy="1.34949" rx="1.81013" ry="1.34949" transform="matrix(0.173028 -0.984917 0.984706 0.174227 340.44 154.976)" fill="#5E4B88"/>
<ellipse cx="4.74554" cy="4.15817" rx="4.74554" ry="4.15817" transform="matrix(-0.00752812 -0.999972 -0.999952 0.00975136 341.297 163.153)" fill="#5E4B88"/>
<rect width="52.723" height="55.5637" fill="black" fill-opacity="0" transform="translate(292.989 60.2329)"/>
<rect width="52.723" height="55.5637" fill="black" fill-opacity="0" transform="translate(292.989 60.2329)"/>
<rect width="9.70725" height="13.0049" rx="4.85362" transform="translate(292.989 67.668) scale(1.00018 0.999824) rotate(-49.9982)" fill="#6D5B93"/>
<rect width="9.70725" height="13.0049" rx="4.85362" transform="translate(345.712 67.668) scale(-1.00018 0.999824) rotate(-49.9982)" fill="#6D5B93"/>
<g filter="url(#filter1_d)">
<rect x="297.103" y="60.4907" width="45.1829" height="55.3059" rx="22.5914" fill="#8571B1"/>
</g>
<ellipse cx="6.2683" cy="4.67317" rx="6.2683" ry="4.67317" transform="matrix(0.173028 -0.984917 0.984706 0.174227 304.222 82.656)" fill="#5E4B88"/>
<ellipse cx="6.2683" cy="4.67317" rx="6.2683" ry="4.67317" transform="matrix(-0.173028 -0.984917 -0.984706 0.174227 334.205 82.656)" fill="#5E4B88"/>
<ellipse cx="310.743" cy="75.5576" rx="1.49292" ry="1.48852" fill="#1E0E47"/>
<ellipse cx="328.263" cy="75.5576" rx="1.49292" ry="1.48852" fill="#1E0E47"/>
<rect width="17.5199" height="18.1719" fill="black" fill-opacity="0" transform="translate(310.896 74.5806)"/>
<path d="M310.896 83.3405C310.896 78.5025 314.817 74.5806 319.655 74.5806C324.493 74.5806 328.415 78.5025 328.415 83.3405V85.0575C328.415 89.3074 324.97 92.7525 320.72 92.7525H318.59C314.341 92.7525 310.896 89.3074 310.896 85.0575V83.3405Z" fill="#B49BE7"/>
<rect width="8.29889" height="5.57901" fill="black" fill-opacity="0" transform="translate(315.547 78.8318)"/>
<path d="M315.547 83.3574C315.946 83.7086 317.371 84.4109 319.883 84.4109C322.395 84.4109 323.572 83.7086 323.846 83.3574" stroke="#1E0E47" stroke-linecap="round" stroke-linejoin="round"/>
<rect x="316.12" y="78.8318" width="7.21214" height="3.4732" rx="1.7366" fill="#1E0E47"/>
<line x1="319.998" y1="82.1724" x2="319.998" y2="84.4109" stroke="#1E0E47"/>
<rect x="311.145" y="74.6145" width="0.497389" height="0.744258" rx="0.248694" fill="white"/>
<rect x="328.553" y="74.6145" width="0.497389" height="0.744258" rx="0.248694" fill="white"/>
<defs>
<filter id="filter0_d" x="25.6289" y="13.8875" width="76.1313" height="52.5793" filterUnits="userSpaceOnUse" color-interpolation-filters="sRGB">
<feFlood flood-opacity="0" result="BackgroundImageFix"/>
<feColorMatrix in="SourceAlpha" type="matrix" values="0 0 0 0 0 0 0 0 0 0 0 0 0 0 0 0 0 0 255 0"/>
<feOffset dy="4"/>
<feGaussianBlur stdDeviation="8.5"/>
<feColorMatrix type="matrix" values="0 0 0 0 0.686057 0 0 0 0 0.741082 0 0 0 0 0.805677 0 0 0 1 0"/>
<feBlend mode="multiply" in2="BackgroundImageFix" result="effect1_dropShadow"/>
<feBlend mode="normal" in="SourceGraphic" in2="effect1_dropShadow" result="shape"/>
</filter>
<filter id="filter1_d" x="297.103" y="60.4907" width="45.1829" height="59.3059" filterUnits="userSpaceOnUse" color-interpolation-filters="sRGB">
<feFlood flood-opacity="0" result="BackgroundImageFix"/>
<feColorMatrix in="SourceAlpha" type="matrix" values="0 0 0 0 0 0 0 0 0 0 0 0 0 0 0 0 0 0 255 0"/>
<feOffset dy="4"/>
<feColorMatrix type="matrix" values="0 0 0 0 0.427451 0 0 0 0 0.356863 0 0 0 0 0.576471 0 0 0 1 0"/>
<feBlend mode="normal" in2="BackgroundImageFix" result="effect1_dropShadow"/>
<feBlend mode="normal" in="SourceGraphic" in2="effect1_dropShadow" result="shape"/>
</filter>
<linearGradient id="paint0_linear" x1="65.1406" y1="15.085" x2="64.4211" y2="45.0182" gradientUnits="userSpaceOnUse">
<stop offset="0.596073" stop-color="#E0F9FF"/>
<stop offset="1" stop-color="#A6D6F6"/>
</linearGradient>
<linearGradient id="paint1_linear" x1="184.49" y1="62.924" x2="154.919" y2="78.7284" gradientUnits="userSpaceOnUse">
<stop offset="0.0701764" stop-color="#FF9A9A"/>
<stop offset="1" stop-color="#9CA9EB"/>
</linearGradient>
<linearGradient id="paint2_linear" x1="312.5" y1="85.0317" x2="312.5" y2="347.95" gradientUnits="userSpaceOnUse">
<stop stop-color="white"/>
<stop offset="1" stop-color="#EDFFFC"/>
</linearGradient>
<linearGradient id="paint3_linear" x1="312.5" y1="75.2539" x2="312.5" y2="338.172" gradientUnits="userSpaceOnUse">
<stop stop-color="#92F1DA"/>
<stop offset="1" stop-color="#43DEDE"/>
</linearGradient>
<linearGradient id="paint4_linear" x1="312.5" y1="75.2539" x2="312.5" y2="338.172" gradientUnits="userSpaceOnUse">
<stop stop-color="#92F1DA"/>
<stop offset="1" stop-color="#43DEDE"/>
</linearGradient>
<linearGradient id="paint5_linear" x1="220.271" y1="180.257" x2="220.271" y2="312.238" gradientUnits="userSpaceOnUse">
<stop stop-color="#92F1DA"/>
<stop offset="1" stop-color="#43DEDE"/>
</linearGradient>
<linearGradient id="paint6_linear" x1="282.569" y1="153.683" x2="282.569" y2="285.222" gradientUnits="userSpaceOnUse">
<stop stop-color="#92F1DA"/>
<stop offset="1" stop-color="#43DEDE"/>
</linearGradient>
<linearGradient id="paint7_linear" x1="344.647" y1="127.11" x2="344.647" y2="258.648" gradientUnits="userSpaceOnUse">
<stop stop-color="#92F1DA"/>
<stop offset="1" stop-color="#43DEDE"/>
</linearGradient>
<linearGradient id="paint8_linear" x1="406.725" y1="100.536" x2="406.725" y2="232.075" gradientUnits="userSpaceOnUse">
<stop stop-color="#92F1DA"/>
<stop offset="1" stop-color="#43DEDE"/>
</linearGradient>
<radialGradient id="paint9_radial" cx="0" cy="0" r="1" gradientUnits="userSpaceOnUse" gradientTransform="translate(217.925 17.2213) rotate(94.2786) scale(52.7581 57.6051)">
<stop stop-color="#FFDBBA"/>
<stop offset="0.812155" stop-color="#FF9789"/>
<stop offset="1" stop-color="#FF8C73"/>
</radialGradient>
<linearGradient id="paint10_linear" x1="406.725" y1="180.699" x2="406.725" y2="312.238" gradientUnits="userSpaceOnUse">
<stop stop-color="#92F1DA"/>
<stop offset="1" stop-color="#43DEDE"/>
</linearGradient>
<linearGradient id="paint11_linear" x1="344.647" y1="153.683" x2="344.647" y2="285.222" gradientUnits="userSpaceOnUse">
<stop stop-color="#92F1DA"/>
<stop offset="1" stop-color="#43DEDE"/>
</linearGradient>
<linearGradient id="paint12_linear" x1="281.905" y1="127.552" x2="281.905" y2="258.648" gradientUnits="userSpaceOnUse">
<stop stop-color="#92F1DA"/>
<stop offset="1" stop-color="#43DEDE"/>
</linearGradient>
<linearGradient id="paint13_linear" x1="220.493" y1="100.536" x2="220.493" y2="232.075" gradientUnits="userSpaceOnUse">
<stop stop-color="#92F1DA"/>
<stop offset="1" stop-color="#43DEDE"/>
</linearGradient>
<linearGradient id="paint14_linear" x1="312.5" y1="75.2539" x2="312.5" y2="338.172" gradientUnits="userSpaceOnUse">
<stop stop-color="#92F1DA"/>
<stop offset="1" stop-color="#43DEDE"/>
</linearGradient>
<linearGradient id="paint15_linear" x1="162.007" y1="108.091" x2="95.7882" y2="230.681" gradientUnits="userSpaceOnUse">
<stop stop-color="#FFD8B8"/>
<stop offset="1" stop-color="#A9E3EB"/>
</linearGradient>
<linearGradient id="paint16_linear" x1="228.205" y1="287.958" x2="194.98" y2="171.982" gradientUnits="userSpaceOnUse">
<stop stop-color="#91DCE4"/>
<stop offset="1" stop-color="#F0FAFF"/>
</linearGradient>
<linearGradient id="paint17_linear" x1="309.818" y1="198.644" x2="281.169" y2="252.243" gradientUnits="userSpaceOnUse">
<stop stop-color="#FFD8B8"/>
<stop offset="1" stop-color="#A9E3EB"/>
</linearGradient>
<linearGradient id="paint18_linear" x1="338.93" y1="276.915" x2="324.601" y2="226.367" gradientUnits="userSpaceOnUse">
<stop stop-color="#91DCE4"/>
<stop offset="1" stop-color="#F0FAFF"/>
</linearGradient>
<linearGradient id="paint19_linear" x1="256.978" y1="206.99" x2="215.591" y2="283.609" gradientUnits="userSpaceOnUse">
<stop stop-color="#FFD8B8"/>
<stop offset="1" stop-color="#A9E3EB"/>
</linearGradient>
<linearGradient id="paint20_linear" x1="298.35" y1="319.407" x2="277.584" y2="246.923" gradientUnits="userSpaceOnUse">
<stop stop-color="#91DCE4"/>
<stop offset="1" stop-color="#F0FAFF"/>
</linearGradient>
</defs>
</svg>
