<svg width="1440" height="415" viewBox="0 0 1440 415" fill="none" xmlns="http://www.w3.org/2000/svg">
<rect width="1442" height="415" fill="black" fill-opacity="0"/>
<path d="M184.422 6.82387L184.199 6.77739L135.165 10.2206H112.261L0 28.9461V157.39L1327.58 157.722V105.941C1320.23 100.841 1313.09 95.2951 1302.39 91.8768C1293.47 89.0287 1283.73 87.4527 1273.44 86.5001C1258.36 85.1054 1242.67 85.2281 1227.43 84.2488C1192.98 82.0351 1158.43 78.9289 1124.7 74.6874C1106.46 72.3926 1088.31 70.3618 1070.25 67.801C1060.64 66.4375 1051.08 65.0457 1041.4 63.8017C1036.22 63.1364 1030.91 62.5145 1025.89 61.5769C1022.33 60.9103 1018.98 59.5161 1015.07 59.9347C1011.89 60.2763 1008.12 60.8319 1004.87 60.5439C1001.37 60.2337 998.786 58.7889 995.395 58.372C988.794 57.5605 980.419 58.2661 973.654 58.2661C961.285 58.2661 953.891 55.9188 943.156 53.2338C931.153 50.2317 918.927 47.5787 906.733 44.7053C901.576 43.4901 895.362 43.0138 889.694 42.5792L888.753 42.507C881.167 41.9219 874.334 40.6265 866.601 40.6265C857.579 40.6265 848.196 40.1244 839.606 38.6135C833.819 37.5958 829.52 36.0235 823.12 35.859C817.83 35.723 810.907 35.8466 805.81 35.1703C799.424 34.3231 795.84 31.7271 790.87 29.6613C779.449 24.9141 765.279 29.1156 752.335 26.8008C742.263 24.9997 734.767 20.084 725.803 17.3188C712.285 13.1489 698.956 11.1431 683.404 10.2206C670.239 9.4396 656.197 13.6562 645.487 17.1599C640.04 18.9422 634.993 21.0005 629.414 22.6955C623.402 24.5218 616.518 25.4906 610.404 27.251C596.337 31.301 582.407 35.7325 568.005 39.4346C566.035 39.9408 560.556 41.8477 558.835 40.5205C556.008 38.3406 556.434 37.951 551.622 37.1833C545.102 36.1429 543.813 33.9099 539.361 31.6212C536.2 29.9959 531.349 30.1836 527.873 28.9461C523.194 27.281 518.952 25.2714 514.014 23.7814C502.11 20.1892 482.874 23.3303 469.915 23.4636C463.585 23.5286 458.348 26.0437 451.781 25.2646C447.16 24.7163 443.794 23.1739 439.932 21.9274C430.558 18.9012 420.472 18.4179 410.413 16.0475C400.197 13.6403 389.409 11.1729 378.626 9.45248C366.596 7.53303 351.754 5.71317 339.988 8.57844C337.074 9.28812 333.507 9.18497 330.715 9.90274C326.815 10.9053 323.053 12.0659 319.587 13.4519C314.771 15.3774 309.076 15.7865 303.359 14.8821C288.672 12.5589 274.89 8.05045 260.548 5.13526C249.786 2.94789 238.167 3.1185 227.37 1.26831C224.28 0.73871 218.588 -1.01995 215.727 0.818053C212.202 3.08345 208.994 7.21059 203.672 8.57844C198.828 9.82382 188.872 7.75056 184.422 6.82387Z" fill="#D3E1F5"/>
<path d="M1408.99 53.3506C1422.32 50.033 1428.83 53.6731 1442 55.2725V185H482.937C476.001 183.274 509.768 168.689 512.377 167.751C538.259 158.446 562.001 139.679 595.773 137.577C608.057 136.813 621.581 137.943 633.225 135.367C651.631 131.295 665.324 123.74 683.61 119.8C699.528 116.37 718.37 119.334 733.031 114.563C742.792 111.386 751.788 109.068 760.926 105.53C769.635 102.158 785.806 103.664 795.771 101.494C802.94 99.9327 802.885 97.0576 805.327 93.7583C810.104 87.3042 830.749 88.2527 840.945 85.9266C851.661 83.4818 862.426 81.3032 872.894 78.6234C898.212 72.1422 919.201 60.5541 952.237 62.8639C956.487 63.1611 962.999 63.969 962.999 63.969C962.999 63.969 970.737 69.3935 974.63 70.6476C981.183 72.7582 989.616 72.0588 996.831 73.4343C1002.77 74.5675 1016.63 79.6431 1023.28 76.5094C1031.97 72.4102 1042.21 69.6278 1054.94 70.1671C1067.04 70.6799 1085.84 74.7875 1097.6 72.7617C1108.76 70.8397 1112.36 74.073 1121.93 75.8367C1127.38 76.8417 1137.1 80.257 1142.39 80.257C1149.12 80.257 1158.52 74.8943 1163.91 73.05C1175.31 69.15 1192.09 69.5856 1200.5 64.3534C1201.26 63.8776 1214.32 64.2658 1217 63.969C1227.4 62.8192 1237.81 57.9427 1246.54 54.9361C1256.24 51.5931 1263.21 63.4529 1265.55 65.8909C1269.43 69.9291 1281.63 59.844 1285.92 58.3475C1305.2 51.6304 1331.3 59.6171 1347.79 64.7858C1352.05 66.119 1355.12 69.1101 1360.34 69.1101C1367.51 69.1101 1371.78 67.0987 1376.94 64.7858C1386.52 60.4936 1397.22 56.2795 1408.99 53.3506Z" fill="url(#paint0_linear)"/>
<path d="M19.4736 35.7777C19.4736 35.7777 4.33143 34.878 0 33.9766V212.727H1251.97C1244.62 207.627 1128.89 122.494 1118.19 119.076C1109.27 116.228 1099.53 114.652 1089.24 113.699C1074.17 112.305 1058.47 112.427 1043.23 111.448C1008.78 109.234 974.234 106.128 940.505 101.887C922.257 99.5918 904.107 97.561 886.051 95.0003C876.437 93.6367 866.88 92.2449 857.201 91.0009C852.025 90.3356 846.71 89.7138 841.694 88.7761C838.129 88.1095 834.784 86.7153 830.876 87.1339C827.686 87.4755 823.925 88.0312 820.675 87.7431C817.176 87.4329 814.587 85.9882 811.196 85.5713C804.595 84.7597 796.22 85.4653 789.456 85.4653C777.086 85.4653 769.693 83.118 758.957 80.433C746.954 77.431 734.728 74.7779 722.534 71.9045C717.091 70.6218 710.469 70.1623 704.555 69.7062C696.968 69.1211 690.136 67.8257 682.402 67.8257C673.38 67.8257 663.997 67.3236 655.407 65.8127C649.62 64.795 645.321 63.2227 638.921 63.0582C633.631 62.9222 626.708 63.0458 621.611 62.3696C615.225 61.5223 611.641 58.9263 606.671 56.8605C595.25 52.1133 581.081 56.3148 568.136 54C558.064 52.1989 550.569 47.2832 541.604 44.518C528.086 40.3481 514.757 38.3423 499.205 37.4198C486.04 36.6388 471.998 40.8554 461.289 44.3591C455.841 46.1414 450.794 48.1997 445.215 49.8947C439.203 51.721 432.32 52.6898 426.205 54.4503C412.138 58.5002 398.208 62.9317 383.806 66.6338C381.837 67.14 376.357 69.047 374.636 67.7197C371.809 65.5398 372.235 65.1503 367.423 64.3825C360.903 63.3421 359.614 61.1091 355.162 58.8204C352.001 57.1951 347.151 57.3828 343.674 56.1454C338.996 54.4803 334.753 52.4706 329.816 50.9806C317.912 47.3884 298.676 50.5295 285.717 50.6628C279.387 50.7279 274.15 53.243 267.582 52.4638C262.961 51.9155 259.595 50.3731 255.733 49.1266C246.359 46.1004 236.273 45.6171 226.214 43.2467C215.998 40.8395 205.21 38.3721 194.427 36.6517C182.397 34.7323 167.555 32.9124 155.789 35.7777C152.875 36.4873 149.308 36.3842 146.516 37.102C142.616 38.1045 138.854 39.2651 135.388 40.6511C130.573 42.5766 124.878 42.9858 119.16 42.0813C104.474 39.7581 90.6916 35.2497 76.3491 32.3345C65.5873 30.1471 53.9681 30.3177 43.1717 28.4675C40.0814 27.9379 34.3888 26.1793 31.5288 28.0173C28.0036 30.2827 19.4736 35.7777 19.4736 35.7777Z" fill="url(#paint1_linear)"/>
<path d="M1428.4 141.039C1428.4 141.039 1438.98 140.41 1442 139.779V245.385H643.617H567.794C572.924 241.818 653.735 201.709 661.208 199.318C667.435 197.325 674.237 196.223 681.425 195.556C691.949 194.58 702.909 194.666 713.549 193.981C737.602 192.432 761.727 190.259 785.279 187.292C798.021 185.686 810.695 184.265 823.302 182.474C830.015 181.52 836.689 180.546 843.447 179.676C847.061 179.21 850.772 178.775 854.275 178.119C856.764 177.653 859.1 176.677 861.829 176.97C864.056 177.209 866.683 177.598 868.952 177.396C871.395 177.179 873.203 176.168 875.571 175.877C880.18 175.309 886.028 175.803 890.751 175.803C899.388 175.803 904.551 174.16 912.047 172.282C920.428 170.182 928.965 168.325 937.48 166.315C941.281 165.418 945.905 165.096 950.035 164.777C955.332 164.368 960.103 163.461 965.503 163.461C971.803 163.461 978.354 163.11 984.353 162.053C988.393 161.341 991.396 160.241 995.864 160.126C999.558 160.031 1004.39 160.117 1007.95 159.644C1012.41 159.051 1014.91 157.235 1018.38 155.79C1026.36 152.468 1036.25 155.408 1045.29 153.788C1052.32 152.528 1057.56 149.089 1063.82 147.154C1073.26 144.237 1082.56 142.834 1093.42 142.188C1102.62 141.642 1112.42 144.592 1119.9 147.043C1123.7 148.29 1127.23 149.73 1131.12 150.916C1135.32 152.194 1140.13 152.872 1144.4 154.103C1154.22 156.937 1163.95 160.037 1174 162.627C1175.38 162.982 1179.2 164.316 1180.41 163.387C1182.38 161.862 1182.08 161.59 1185.44 161.052C1189.99 160.324 1190.89 158.762 1194 157.161C1196.21 156.024 1199.6 156.155 1202.02 155.289C1205.29 154.124 1208.25 152.718 1211.7 151.676C1220.01 149.163 1233.45 151.36 1242.49 151.454C1246.91 151.499 1250.57 153.259 1255.16 152.714C1258.38 152.33 1260.73 151.251 1263.43 150.379C1269.98 148.262 1277.02 147.923 1284.04 146.265C1291.18 144.581 1298.71 142.855 1306.24 141.651C1314.64 140.308 1325 139.035 1333.22 141.039C1335.25 141.536 1337.74 141.464 1339.69 141.966C1342.42 142.667 1345.04 143.479 1347.46 144.449C1350.83 145.796 1354.8 146.082 1358.79 145.45C1369.05 143.824 1378.67 140.67 1388.69 138.63C1396.2 137.1 1404.32 137.219 1411.85 135.925C1414.01 135.554 1417.99 134.324 1419.98 135.61C1422.45 137.195 1428.4 141.039 1428.4 141.039Z" fill="url(#paint2_linear)"/>
<path d="M1425.97 144.843C1425.97 144.843 1436.15 144.237 1439.06 143.629V245.377H670.184H597.163C602.103 241.94 679.928 203.297 687.125 200.993C693.122 199.073 699.673 198.011 706.595 197.368C716.73 196.428 727.284 196.511 737.531 195.851C760.696 194.359 783.93 192.265 806.611 189.406C818.882 187.859 831.087 186.49 843.229 184.764C849.694 183.845 856.121 182.906 862.629 182.068C866.11 181.619 869.684 181.2 873.057 180.568C875.455 180.119 877.704 179.179 880.332 179.461C882.477 179.692 885.006 180.066 887.192 179.872C889.545 179.663 891.286 178.689 893.566 178.408C898.005 177.861 903.637 178.336 908.186 178.336C916.504 178.336 921.475 176.754 928.695 174.944C936.766 172.921 944.988 171.132 953.188 169.195C956.848 168.331 961.301 168.021 965.278 167.714C970.38 167.319 974.974 166.446 980.175 166.446C986.242 166.446 992.552 166.108 998.328 165.089C1002.22 164.403 1005.11 163.343 1009.41 163.232C1012.97 163.141 1017.63 163.224 1021.05 162.768C1025.35 162.197 1027.76 160.447 1031.1 159.055C1038.78 155.855 1048.31 158.687 1057.01 157.126C1063.79 155.912 1068.83 152.599 1074.86 150.735C1083.95 147.924 1092.91 146.572 1103.37 145.95C1112.22 145.424 1121.66 148.266 1128.87 150.628C1132.53 151.829 1135.92 153.217 1139.67 154.359C1143.72 155.59 1148.35 156.243 1152.46 157.43C1161.92 160.16 1171.28 163.147 1180.97 165.643C1182.29 165.984 1185.98 167.269 1187.14 166.375C1189.04 164.905 1188.75 164.643 1191.99 164.125C1196.37 163.424 1197.24 161.918 1200.23 160.376C1202.36 159.28 1205.62 159.407 1207.96 158.573C1211.1 157.45 1213.96 156.095 1217.28 155.091C1225.28 152.67 1238.22 154.787 1246.93 154.877C1251.19 154.921 1254.71 156.616 1259.12 156.091C1262.23 155.721 1264.5 154.682 1267.09 153.841C1273.4 151.801 1280.18 151.476 1286.94 149.878C1293.81 148.255 1301.07 146.592 1308.32 145.432C1316.41 144.138 1326.39 142.912 1334.3 144.843C1336.26 145.321 1338.66 145.252 1340.54 145.736C1343.16 146.412 1345.69 147.194 1348.02 148.128C1351.26 149.426 1355.09 149.702 1358.93 149.092C1368.81 147.526 1378.08 144.487 1387.72 142.522C1394.96 141.048 1402.77 141.163 1410.03 139.915C1412.11 139.558 1415.94 138.373 1417.86 139.612C1420.23 141.139 1425.97 144.843 1425.97 144.843Z" fill="url(#paint3_linear)"/>
<path d="M1425.97 143.843C1425.97 143.843 1436.15 143.237 1439.06 142.629L1440.06 246.377H670.184H597.163C602.103 242.94 679.928 202.297 687.125 199.993C693.122 198.073 699.673 197.011 706.595 196.368C716.73 195.428 727.284 195.511 737.531 194.851C760.696 193.359 783.93 191.265 806.611 188.406C818.882 186.859 831.087 185.49 843.229 183.764C849.694 182.845 856.121 181.906 862.629 181.068C866.11 180.619 869.684 180.2 873.057 179.568C875.455 179.119 877.704 178.179 880.332 178.461C882.477 178.692 885.006 179.066 887.192 178.872C889.545 178.663 891.286 177.689 893.566 177.408C898.005 176.861 903.637 177.336 908.186 177.336C916.504 177.336 921.475 175.754 928.695 173.944C936.766 171.921 944.988 170.132 953.188 168.195C956.848 167.331 961.301 167.021 965.278 166.714C970.38 166.319 974.974 165.446 980.175 165.446C986.242 165.446 992.552 165.108 998.328 164.089C1002.22 163.403 1005.11 162.343 1009.41 162.232C1012.97 162.141 1017.63 162.224 1021.05 161.768C1025.35 161.197 1027.76 159.447 1031.1 158.055C1038.78 154.855 1048.31 157.687 1057.01 156.126C1063.79 154.912 1068.83 151.599 1074.86 149.735C1083.95 146.924 1092.91 145.572 1103.37 144.95C1112.22 144.424 1121.66 147.266 1128.87 149.628C1132.53 150.829 1135.92 152.217 1139.67 153.359C1143.72 154.59 1148.35 155.243 1152.46 156.43C1161.92 159.16 1171.28 162.147 1180.97 164.643C1182.29 164.984 1185.98 166.269 1187.14 165.375C1189.04 163.905 1188.75 163.643 1191.99 163.125C1196.37 162.424 1197.24 160.918 1200.23 159.376C1202.36 158.28 1205.62 158.407 1207.96 157.573C1211.1 156.45 1213.96 155.095 1217.28 154.091C1225.28 151.67 1238.22 153.787 1246.93 153.877C1251.19 153.921 1254.71 155.616 1259.12 155.091C1262.23 154.721 1264.5 153.682 1267.09 152.841C1273.4 150.801 1280.18 150.476 1286.94 148.878C1293.81 147.255 1301.07 145.592 1308.32 144.432C1316.41 143.138 1326.39 141.912 1334.3 143.843C1336.26 144.321 1338.66 144.252 1340.54 144.736C1343.16 145.412 1345.69 146.194 1348.02 147.128C1351.26 148.426 1355.09 148.702 1358.93 148.092C1368.81 146.526 1378.08 143.487 1387.72 141.522C1394.96 140.048 1402.77 140.163 1410.03 138.915C1412.11 138.558 1415.94 137.373 1417.86 138.612C1420.23 140.139 1425.97 143.843 1425.97 143.843Z" fill="url(#paint4_linear)"/>
<path d="M0 114.644V63.4578H48.6268V99.7643H57.0107V96.7883H67.0714V99.7643H72.9402V96.7883H87.1929V93.8124H103.122V91.4316H121.567V86.6702H148.396V91.4316H154.264V102.145H166.002V105.121H177.739V111.668H186.123V140.832H191.154V122.977L194.507 120.596V114.644H199.538V117.62H205.406V111.668H212.952V105.121H234.75V99.7643H258.225V102.145H268.286V158.07H279.185V122.977H295.114V117.62H304.337V122.977H316.913C318.925 122.977 317.751 126.944 316.913 128.928H326.135V136.666H338.711V108.097H343.741V75.5297H336.196V72.5538L331.165 67.7923H337.034V64.8163H342.064V61.8404H349.61V43.7939H352.963V61.8404H360.509V64.8163H366.378V67.7923H371.408L366.378 72.5538V75.5297H360.509V108.097H368.055V101.55H386.499V106.907H394.045V114.644H404.944V109.882H421.712V114.644H428.419V117.62H431.772V112.858H440.995V128.928H447.702V120.596H456.924V127.143V134.285H461.955V161.069H466.147V140.237H470.338V118.81H482.914V114.644H491.298V109.882H507.228V118.81H518.965V133.095H526.511V125.953H531.541V120.596H536.572V127.143H542.44V134.285H557.531V149.76H561.723V165.189H599.451V105.121H612.027V95.0028H624.603V98.5739H632.148L635.502 96.1931H640.532V105.121H659.815V151.287H691.142V209.933H738.132C779.011 209.933 825.486 233.104 866.864 246H0V114.644Z" fill="#26589F"/>
<path d="M0 355.652V398.528H48.6364V368.116H57.0219V370.609H67.0846V368.116H72.9545V370.609H87.21V373.102H103.143V375.096H121.591V379.084H148.425V375.096H154.295V366.122H166.034V363.629H177.774V358.145H186.16V333.715H191.191V348.672L194.545 350.666V355.652H199.577V353.159H205.447V358.145H212.994V363.629H234.796V368.116H258.276V366.122H268.339V319.276H279.24V348.672H295.172V353.159H304.397V348.672H316.975C318.987 348.672 317.813 345.348 316.975 343.686H326.199V337.205H338.777V361.136H343.809V388.416H336.262V390.909L331.23 394.898H337.1V397.39H342.132V399.883H349.679V415H353.033V399.883H360.58V397.39H366.45V394.898H371.481L366.45 390.909V388.416H360.58V361.136H368.127V366.62H386.575V362.133H394.122V355.652H405.023V359.64H421.795V355.652H428.503V353.159H431.857V357.147H441.081V343.686H447.79V350.666H457.014V345.182V339.199H462.045V316.764H466.238V334.213H470.431V352.162H483.009V355.652H491.395V359.64H507.328V352.162H519.067V340.196H526.614V346.179H531.646V350.666H536.677V345.182H542.547V339.199H557.641V326.236H561.834V313.312H599.569V363.629H612.147V372.104H624.726V369.113H632.273L635.627 371.107H640.658V363.629H659.945V324.958H691.278V275.832H738.277C779.164 275.832 825.649 256.77 867.035 245.968H0V355.652Z" fill="url(#paint5_linear)"/>
<path d="M1426.97 330.219C1426.97 330.219 1437.15 330.727 1440.06 331.235V246.08H671.184H598.163C603.103 248.957 680.928 281.298 688.125 283.227C694.122 284.833 700.673 285.722 707.595 286.26C717.73 287.047 728.284 286.977 738.531 287.53C761.696 288.779 784.93 290.531 807.611 292.924C819.882 294.219 832.087 295.364 844.229 296.809C850.694 297.578 857.121 298.363 863.629 299.065C867.11 299.44 870.684 299.791 874.057 300.32C876.455 300.696 878.704 301.483 881.332 301.247C883.477 301.054 886.006 300.74 888.192 300.903C890.545 301.078 892.286 301.893 894.566 302.128C899.005 302.586 904.637 302.188 909.186 302.188C917.504 302.188 922.475 303.512 929.695 305.027C937.766 306.72 945.988 308.217 954.188 309.838C957.655 310.524 961.834 310.792 965.646 311.038L966.278 311.078C971.38 311.408 975.974 312.139 981.175 312.139C987.242 312.139 993.552 312.423 999.328 313.275C1003.22 313.849 1006.11 314.736 1010.41 314.829C1013.97 314.906 1018.63 314.836 1022.05 315.217C1026.35 315.695 1028.76 317.16 1032.1 318.325C1039.78 321.003 1049.31 318.633 1058.01 319.939C1064.79 320.955 1069.83 323.728 1075.86 325.288C1084.95 327.641 1093.91 328.772 1104.37 329.293C1113.22 329.733 1122.66 327.355 1129.87 325.378C1133.53 324.372 1136.92 323.211 1140.67 322.255C1144.72 321.225 1149.35 320.678 1153.46 319.685C1162.92 317.4 1172.28 314.9 1181.97 312.812C1183.29 312.526 1186.98 311.45 1188.14 312.199C1190.04 313.429 1189.75 313.649 1192.99 314.082C1197.37 314.669 1198.24 315.928 1201.23 317.22C1203.36 318.136 1206.62 318.031 1208.96 318.729C1212.1 319.668 1214.96 320.802 1218.28 321.642C1226.28 323.669 1239.22 321.897 1247.93 321.822C1252.19 321.785 1255.71 320.366 1260.12 320.806C1263.23 321.115 1265.5 321.985 1268.09 322.688C1274.4 324.396 1281.18 324.668 1287.94 326.005C1294.81 327.363 1302.07 328.755 1309.32 329.726C1317.41 330.809 1327.39 331.836 1335.3 330.219C1337.26 329.819 1339.66 329.877 1341.54 329.472C1344.16 328.906 1346.69 328.252 1349.02 327.47C1352.26 326.383 1356.09 326.153 1359.93 326.663C1369.81 327.974 1379.08 330.517 1388.72 332.162C1395.96 333.396 1403.77 333.299 1411.03 334.343C1413.11 334.642 1416.94 335.634 1418.86 334.597C1421.23 333.319 1426.97 330.219 1426.97 330.219Z" fill="url(#paint6_linear)"/>
<defs>
<linearGradient id="paint0_linear" x1="962" y1="52" x2="962" y2="185" gradientUnits="userSpaceOnUse">
<stop stop-color="#85ADE0"/>
<stop offset="1" stop-color="#8CC8EA"/>
</linearGradient>
<linearGradient id="paint1_linear" x1="625.985" y1="27.1992" x2="625.985" y2="231.482" gradientUnits="userSpaceOnUse">
<stop stop-color="#5386C2"/>
<stop offset="1" stop-color="#A4B6F3"/>
<stop offset="1" stop-color="#7F83E5"/>
<stop offset="1" stop-color="#292C86"/>
<stop offset="1" stop-color="#BABCE5"/>
<stop offset="1" stop-color="#A4C4F3"/>
</linearGradient>
<linearGradient id="paint2_linear" x1="1042" y1="157.264" x2="1042.21" y2="245.387" gradientUnits="userSpaceOnUse">
<stop stop-color="#F4BE8C"/>
<stop offset="1" stop-color="#87B3F5"/>
</linearGradient>
<linearGradient id="paint3_linear" x1="1051.89" y1="156.444" x2="1052.61" y2="245.394" gradientUnits="userSpaceOnUse">
<stop stop-color="#347BDF"/>
<stop offset="1" stop-color="#71A2EA"/>
<stop offset="1" stop-color="#71A1E9"/>
</linearGradient>
<linearGradient id="paint4_linear" x1="1051.89" y1="155.444" x2="1052.61" y2="244.394" gradientUnits="userSpaceOnUse">
<stop stop-color="#347BDF"/>
<stop offset="1" stop-color="#71A1E9"/>
<stop offset="1" stop-color="#71A2EA"/>
</linearGradient>
<linearGradient id="paint5_linear" x1="433.517" y1="415" x2="433.517" y2="245.968" gradientUnits="userSpaceOnUse">
<stop stop-color="#8EA0DF"/>
<stop offset="1" stop-color="#E2EEFF"/>
</linearGradient>
<linearGradient id="paint6_linear" x1="1055.62" y1="321.42" x2="1055.5" y2="219.5" gradientUnits="userSpaceOnUse">
<stop stop-color="#ADCAF2"/>
<stop offset="1" stop-color="#DAE9FF"/>
<stop offset="1" stop-color="#D5DEFF"/>
</linearGradient>
</defs>
</svg>
