<svg width="22" height="21" viewBox="0 0 22 21" fill="none" xmlns="http://www.w3.org/2000/svg">
<path d="M21.5759 9.57143C21.5759 9.11607 21.3884 8.67411 21.0804 8.35268L20.0759 7.34821C19.7545 7.04018 19.3125 6.85268 18.8571 6.85268C18.4018 6.85268 17.9598 7.04018 17.6518 7.34821L13.7143 11.2857V1.85714C13.7143 0.919642 12.9375 0.142858 12 0.142858H10.2857C9.34821 0.142858 8.57143 0.919642 8.57143 1.85714V11.2857L4.63393 7.34821C4.32589 7.04018 3.88393 6.85268 3.42857 6.85268C2.97321 6.85268 2.53125 7.04018 2.20982 7.34821L1.21875 8.35268C0.897321 8.67411 0.709821 9.11607 0.709821 9.57143C0.709821 10.0268 0.897321 10.4688 1.21875 10.7768L9.9375 19.5089C10.2455 19.817 10.6875 20.0045 11.1429 20.0045C11.5982 20.0045 12.0402 19.817 12.3616 19.5089L21.0804 10.7768C21.3884 10.4688 21.5759 10.0268 21.5759 9.57143Z" fill="#828282"/>
</svg>
